<svg xmlns="http://www.w3.org/2000/svg" width="318" height="71.872" viewBox="0 0 318 71.872">
  <g id="グループ_66" data-name="グループ 66" transform="translate(-539 -97)">
    <circle id="楕円形_30" data-name="楕円形 30" cx="20" cy="20" r="20" transform="translate(539 97)" fill="#ffe699"/>
    <path id="パス_61" data-name="パス 61" d="M20.928,26.528a2.536,2.536,0,0,0-.192-.928C19.68,23.1,15.52,11.968,13.472,6.208A3.192,3.192,0,0,0,10.5,4,2.957,2.957,0,0,0,7.68,6.144C.672,25.856.576,26.112.576,26.688a1.719,1.719,0,0,0,1.824,1.6,1.819,1.819,0,0,0,1.792-1.312c.48-1.536,1.216-3.84,2.016-6.368a.4.4,0,0,1,.384-.288c.672-.032,2.816-.032,4.736-.032,1.44,0,2.752,0,3.264.032.192,0,.288.1.352.288.992,2.976,1.824,5.536,2.208,6.464a1.877,1.877,0,0,0,1.824,1.184A1.815,1.815,0,0,0,20.928,26.528ZM13.664,16.8c0,.1-.064.128-.256.128-.448,0-1.568.032-2.72.032-1.12,0-2.3-.032-2.944-.032-.192,0-.256-.064-.256-.192,0-.288,2.08-6.272,2.56-7.552.224-.64.416-.928.576-.928.192,0,.352.32.544.9.512,1.568,1.472,4.48,2.464,7.488A.348.348,0,0,1,13.664,16.8Zm27.744,4.32A5.682,5.682,0,0,0,36.1,15.136c-.352-.032-.48-.1-.48-.128,0-.064.192-.128.512-.192,2.24-.32,3.84-2.688,3.84-5.12,0-2.688-1.984-5.5-7.3-5.856-.48-.032-1.152-.064-1.856-.064-2.72,0-6.272.064-6.368,4.064-.064,2.048-.1,6.4-.1,10.3,0,2.592,0,4.992.064,6.336.128,4,3.808,4.128,6.912,4.128.8,0,1.632-.032,2.048-.064C38.912,28.224,41.408,24.544,41.408,21.12ZM32.352,7.1c2.816,0,4,1.408,4,2.912a3.837,3.837,0,0,1-3.776,3.616c-.576.032-1.408.032-2.176.032-2.112,0-2.56,0-2.56-.672.032-1.856,0-3.68.064-4.448.1-1.216.736-1.472,2.784-1.472C31.52,7.072,32.352,7.1,32.352,7.1ZM33.5,25.28c-.608.032-1.408.064-2.144.064-2.976,0-3.3-.384-3.456-1.568-.1-.864-.1-2.336-.1-6.336,0-.64.288-.736,3.264-.736.8,0,1.632.032,2.432.1,2.944.224,4.224,2.08,4.224,3.968A4.477,4.477,0,0,1,33.5,25.28Zm23.424,3.328c7.04,0,12.352-4.96,12.352-12.416A12.042,12.042,0,0,0,56.928,3.776a12.016,12.016,0,0,0-12.32,12.416C44.608,23.648,49.888,28.608,56.928,28.608Zm0-3.36c-4.736,0-8.576-3.552-8.576-9.056,0-5.536,3.84-9.12,8.576-9.12s8.576,3.584,8.576,9.12C65.5,21.7,61.664,25.248,56.928,25.248Zm26.3,3.328c4.7,0,9.824-3.328,9.664-10.3-.032-2.016-.064-3.808-.064-5.632,0-2.08.032-4.256.1-6.912V5.664a1.692,1.692,0,0,0-1.856-1.632,1.656,1.656,0,0,0-1.856,1.7c.032,1.376.064,2.784.064,4.192,0,2.816-.064,5.664-.064,8.448,0,4.352-3.1,6.624-6.112,6.624-2.912,0-5.792-2.08-5.792-6.368V17.312c0-2.592-.064-5.216-.064-7.84,0-1.248.032-2.5.064-3.744V5.664a1.682,1.682,0,0,0-1.824-1.632,1.627,1.627,0,0,0-1.856,1.7c.064,1.856.064,3.776.064,5.728,0,2.336,0,4.7-.032,6.944v.16C73.664,25.248,78.432,28.576,83.232,28.576Zm20.96-1.92a1.731,1.731,0,0,0,1.92,1.632c.992,0,1.984-.544,1.92-1.664-.1-2.368-.16-6.272-.16-10.112,0-3.136.032-6.24.1-8.416,0-.64,0-.64,3.168-.64.768,0,1.7,0,2.784.064h.128a1.554,1.554,0,0,0,1.536-1.7A1.615,1.615,0,0,0,113.92,4.1c-1.824.032-4.544.064-7.264.064-3.328,0-6.72-.032-8.64-.064h-.064a1.644,1.644,0,0,0-1.76,1.7A1.705,1.705,0,0,0,98.016,7.52c1.5,0,3.008-.064,4.224-.064,1.888,0,1.984,0,1.984.64.064,1.7.064,4.352.064,7.168,0,4.224-.032,8.864-.1,11.36Zm23.488.224a1.52,1.52,0,0,0,1.7,1.44,1.763,1.763,0,0,0,1.92-1.6c.16-4.416.608-14.144.832-16.96.064-.672.192-.928.352-.928.128,0,.288.224.416.608,1.184,3.776,4,13.92,5.024,16.352a2.484,2.484,0,0,0,2.3,1.792,2.77,2.77,0,0,0,2.5-1.824c1.312-3.424,4.608-13.824,5.312-16.48.1-.384.32-.672.48-.672s.288.224.288.768c0,0,.32,12.7.64,17.28a1.788,1.788,0,0,0,1.92,1.664,1.717,1.717,0,0,0,1.856-1.664v-.128c-.256-4.544-.96-14.944-1.056-19.072a3.3,3.3,0,0,0-3.2-3.488,3.533,3.533,0,0,0-3.3,2.624c-1.248,3.648-3.808,12.544-5.024,15.488-.064.192-.192.288-.288.288-.128,0-.224-.1-.32-.288-.768-1.568-3.584-11.488-4.8-15.328A3.5,3.5,0,0,0,132,4c-1.5,0-2.976,1.216-3.1,3.584-.256,4.64-.992,13.632-1.216,19.232ZM170.816,7.264A1.762,1.762,0,0,0,172.7,5.536a1.706,1.706,0,0,0-1.792-1.7c-.48-.032-2.24-.064-4.064-.064-1.792,0-3.616.032-4.192.064-2.592.128-4.256,1.472-4.32,4.032-.064,2.016-.1,6.368-.1,10.272,0,2.592,0,4.96.064,6.3.128,2.816,1.952,3.872,4.9,4.1.416.032,2.272.064,4.1.064,1.856,0,3.712-.032,4.128-.064a1.866,1.866,0,0,0,2.016-1.792,1.623,1.623,0,0,0-1.728-1.632h-.16c-.608.032-2.656.064-4.544.064-4.512,0-5.024-.064-5.184-1.536-.064-.544-.1-1.28-.1-6.048,0-.672.32-.7,4.288-.7,1.216,0,2.432.032,3.232.1h.16a1.7,1.7,0,0,0,1.7-1.824,1.611,1.611,0,0,0-1.792-1.7c-.576.032-2.112.032-3.584.032-3.936,0-3.968,0-3.968-.64.032-1.856,0-3.424.064-4.192.1-1.376.768-1.44,3.968-1.44C167.968,7.232,170.816,7.264,170.816,7.264Z" transform="translate(607 101)" fill="#2c2d48"/>
    <circle id="楕円形_31" data-name="楕円形 31" cx="20" cy="20" r="20" transform="translate(817 97)" fill="#ffe699"/>
    <path id="パス_62" data-name="パス 62" d="M36.548,4.512a8,8,0,0,0,.744-2.232c0-.7-.744-1.056-1.416-1.056-.576,0-1.128.24-1.2.768a18.391,18.391,0,0,1-.624,2.544c-2.544,0-4.728.024-4.848,2.928-.048,1.584-.072,3.7-.072,5.784,0,2.064.024,4.1.072,5.544.1,3.24,2.04,3.288,7.776,3.288,1.176,0,2.352-.024,3.288-.072,2.328-.1,3.6-1.032,3.672-3.264.024-1.2.048-3.144.048-5.136,0-2.328-.024-4.752-.072-6.288a2.842,2.842,0,0,0-2.928-2.736C40.052,4.512,38.276,4.512,36.548,4.512ZM31.34,9.624c0-2.232.072-2.928,1.776-3.024.768-.048,2.136-.072,3.552-.072,4.416,0,4.944,0,5.016,1.632.024.408.048.912.048,1.464Zm10.416,4.944H31.316v-2.9h10.44Zm-.024,2.04c0,2.232,0,3.168-1.848,3.264-.792.048-1.992.072-3.168.072-4.7,0-5.28-.048-5.328-1.632-.024-.456-.048-1.056-.048-1.7ZM53.708,5.04c2.424-.048,4.728-.1,6.912-.1,1.368,0,2.688,0,3.96.048,1.152.048,1.176.528,1.176,2.592,0,2.136-.168,2.16-2.232,2.16-2.328,0-5.112-.048-6.984-.048-1.32,0-3.816,0-3.984,2.808-.048.912-.072,2.28-.072,3.624,0,.7,0,1.416.024,2.04.144,3.456,3.048,3.72,8.088,3.72a45.009,45.009,0,0,0,5.784-.336c3.168-.432,3.864-2.64,3.864-5.16a1.273,1.273,0,0,0-1.368-1.2,1.15,1.15,0,0,0-1.248,1.224c0,1.3-.432,2.688-1.632,2.9a35.517,35.517,0,0,1-5.232.36c-5.088,0-5.808-.48-5.856-1.872-.024-.48-.024-1.032-.024-1.632,0-1.248.048-2.592.12-3.36a1.03,1.03,0,0,1,1.1-.96H64.94c3.12-.048,3.192-2.256,3.192-4.056,0-.744-.024-1.512-.048-2.184-.072-2.016-1.272-2.76-3.072-2.784-1.488-.024-2.952-.048-4.44-.048-2.28,0-4.536.024-6.864.048a1.1,1.1,0,0,0-1.176,1.1,1.083,1.083,0,0,0,1.152,1.1Zm30.84-.216c.792-.024,1.776-.048,2.808-.048a6.724,6.724,0,0,1-3.528,5.52A1.229,1.229,0,0,0,83.18,11.3a1.025,1.025,0,0,0,1.056,1.008,1.663,1.663,0,0,0,.96-.336,9.3,9.3,0,0,0,4.2-7.224c.864,0,1.7,0,2.376.024.456,0,.768.264.768.84a10.689,10.689,0,0,1-.48,2.9,1.418,1.418,0,0,1-1.416,1.1,3.344,3.344,0,0,1-.792-.12.985.985,0,0,0-.264-.024,1.01,1.01,0,0,0-.936,1.1c0,1.08,1.008,1.176,2.016,1.176a3.33,3.33,0,0,0,3.384-2.424,13.773,13.773,0,0,0,.6-3.816A2.352,2.352,0,0,0,92.18,2.856c-.912,0-2.016-.024-3.12-.024-1.584,0-3.24.024-4.512.048a.976.976,0,0,0-.984,1.008.9.9,0,0,0,.96.936Zm9.36,14.928c.024-.36.024-.768.024-1.224,0-1.1-.048-2.4-.072-3.288a2.315,2.315,0,0,0-2.352-2.112c-.72-.024-1.608-.048-2.5-.048-.744,0-1.512.024-2.184.048a2.228,2.228,0,0,0-2.256,2.208c-.024.84-.072,2.04-.072,3.168,0,.456,0,.888.024,1.3.1,2.352,1.92,2.352,4.848,2.352.792,0,1.56-.024,2.184-.072A2.318,2.318,0,0,0,93.908,19.752ZM77.612,21.6a1.056,1.056,0,0,0,1.1,1.1,1.1,1.1,0,0,0,1.152-1.128l-.048-8.76c.552-.1,1.032-.168,1.368-.24.048.144.072.312.12.456a.9.9,0,0,0,.84.768A1.127,1.127,0,0,0,83.2,12.624c0-.888-1.32-3.384-2.352-3.384a.884.884,0,0,0-.936.792c0,.216.024.288.552,1.032-.552.072-1.3.144-2.088.24C80.42,8.688,82.2,5.688,82.2,5.064A1.147,1.147,0,0,0,81,4.008a.908.908,0,0,0-.888.6,27.537,27.537,0,0,1-1.824,3.48c-.336-.312-.7-.648-1.08-.96C78,5.952,79.628,2.976,79.628,2.184a1.124,1.124,0,0,0-1.2-1.008.927.927,0,0,0-.96.7A16.374,16.374,0,0,1,75.644,6L75.5,5.928a1.168,1.168,0,0,0-.528-.144.944.944,0,0,0-.5,1.752A20,20,0,0,1,77.18,9.744a17.945,17.945,0,0,1-1.44,1.824c-.432.024-.816.048-1.128.072a.83.83,0,0,0-.768.888.922.922,0,0,0,.888.984c.288,0,2.928-.36,2.952-.36l-.072,8.424Zm4.92-2.064a1.2,1.2,0,0,0,1.152-1.224,8.866,8.866,0,0,0-1.608-3.552,1.139,1.139,0,0,0-.84-.384.845.845,0,0,0-.912.792.97.97,0,0,0,.168.528,9.949,9.949,0,0,1,1.1,2.952A.933.933,0,0,0,82.532,19.536ZM75.5,20.5a13.549,13.549,0,0,0,1.584-4.968,1.059,1.059,0,0,0-1.1-1.056.917.917,0,0,0-.96.84A11.478,11.478,0,0,1,73.6,19.488a1.3,1.3,0,0,0-.216.672,1,1,0,0,0,1.056.936A1.262,1.262,0,0,0,75.5,20.5Zm16.248-1.968c0,1.584-.312,1.608-2.52,1.608-2.568,0-2.616,0-2.616-1.824,0-2.928.024-3.312.936-3.336.432-.024,1.032-.024,1.608-.024,2.136,0,2.5,0,2.544.816C91.724,16.44,91.748,17.64,91.748,18.528Zm27.216-8.664a1.118,1.118,0,0,0-.648-1.008,28.194,28.194,0,0,1-7.7-5.928,3.047,3.047,0,0,0-2.256-1.08,2.594,2.594,0,0,0-2.088,1.08A25.411,25.411,0,0,1,98.756,9.6a1.228,1.228,0,0,0-.744,1.1,1.255,1.255,0,0,0,1.272,1.224,1.8,1.8,0,0,0,1.008-.336,36.2,36.2,0,0,0,7.632-7.1c.216-.288.432-.432.6-.432a.945.945,0,0,1,.648.432c1.824,2.088,6.912,6.744,8.4,6.744A1.42,1.42,0,0,0,118.964,9.864Zm-8.472,11.712a1.241,1.241,0,0,0,2.472,0v-12a1.15,1.15,0,0,0-1.248-1.1,1.115,1.115,0,0,0-1.224,1.1ZM104.276,9.768c0,.768.024,2.952.024,3.72,0,2.544-.984,6.12-5.448,7.08a1.052,1.052,0,0,0-.816,1.08,1.189,1.189,0,0,0,1.248,1.224c.336,0,7.248-1.08,7.392-9.288.024-.576.048-2.28.048-3.264V9.768a1.185,1.185,0,0,0-1.272-1.1,1.083,1.083,0,0,0-1.176,1.08Z" transform="translate(627 146)" fill="#2c2d48"/>
  </g>
</svg>
