<svg xmlns="http://www.w3.org/2000/svg" width="318" height="74.632" viewBox="0 0 318 74.632">
  <g id="グループ_67" data-name="グループ 67" transform="translate(-541 -436)">
    <circle id="楕円形_56" data-name="楕円形 56" cx="20" cy="20" r="20" transform="translate(541 436)" fill="#ffe699"/>
    <path id="パス_68" data-name="パス 68" d="M27.336,23.424a2.193,2.193,0,0,0-2.144-2.048,1.863,1.863,0,0,0-1.568.832A7.651,7.651,0,0,1,17.48,24.9c-6.752,0-8.32-6.016-8.32-8.7,0-4.32,2.88-8.928,8.288-8.928a6.744,6.744,0,0,1,5.28,2.272,2.05,2.05,0,0,0,1.632.864,2.009,2.009,0,0,0,1.952-1.984c0-1.728-3.456-4.672-8.544-4.672C9.96,3.744,5.384,9.92,5.384,16.416c0,6.24,4.288,12.16,12.256,12.16C23.528,28.576,27.336,25.088,27.336,23.424Zm15.072,5.184c7.04,0,12.352-4.96,12.352-12.416A12.042,12.042,0,0,0,42.408,3.776a12.016,12.016,0,0,0-12.32,12.416C30.088,23.648,35.368,28.608,42.408,28.608Zm0-3.36c-4.736,0-8.576-3.552-8.576-9.056,0-5.536,3.84-9.12,8.576-9.12s8.576,3.584,8.576,9.12C50.984,21.7,47.144,25.248,42.408,25.248Zm16.8,1.5a1.66,1.66,0,0,0,1.856,1.536c.928,0,1.824-.48,1.824-1.5V26.72c-.1-3.392-.192-12.832-.192-16.16,0-1.472,0-1.792.192-1.792.16,0,.384.416.512.608,1.728,2.912,7.712,13.856,9.952,17.408a3.262,3.262,0,0,0,2.752,1.6,2.893,2.893,0,0,0,2.912-3.04V25.28c-.064-2.784-.1-6.976-.1-11.04,0-3.2.032-6.3.1-8.544V5.632A1.864,1.864,0,0,0,75.3,5.7c.1,2.944.192,12.928.192,15.936,0,1.248-.128,1.344-.224,1.344s-.256-.16-.448-.448C72.392,18.88,67.048,8.9,65.032,5.7A3.866,3.866,0,0,0,61.9,3.968c-1.408,0-2.656.9-2.656,3.136v.128c.032,2.4.064,5.44.064,8.64,0,3.68-.032,7.552-.1,10.848Zm31.168-.1a1.731,1.731,0,0,0,1.92,1.632c.992,0,1.984-.544,1.92-1.664-.1-2.368-.16-6.272-.16-10.112,0-3.136.032-6.24.1-8.416,0-.64,0-.64,3.168-.64.768,0,1.7,0,2.784.064h.128a1.554,1.554,0,0,0,1.536-1.7A1.615,1.615,0,0,0,100.1,4.1c-1.824.032-4.544.064-7.264.064-3.328,0-6.72-.032-8.64-.064h-.064a1.644,1.644,0,0,0-1.76,1.7A1.705,1.705,0,0,0,84.2,7.52c1.5,0,3.008-.064,4.224-.064,1.888,0,1.984,0,1.984.64.064,1.7.064,4.352.064,7.168,0,4.224-.032,8.864-.1,11.36Zm30.528-.128a2.536,2.536,0,0,0-.192-.928c-1.056-2.5-5.216-13.632-7.264-19.392A3.192,3.192,0,0,0,110.472,4a2.957,2.957,0,0,0-2.816,2.144c-7.008,19.712-7.1,19.968-7.1,20.544a1.719,1.719,0,0,0,1.824,1.6,1.819,1.819,0,0,0,1.792-1.312c.48-1.536,1.216-3.84,2.016-6.368a.4.4,0,0,1,.384-.288c.672-.032,2.816-.032,4.736-.032,1.44,0,2.752,0,3.264.032.192,0,.288.1.352.288.992,2.976,1.824,5.536,2.208,6.464a1.877,1.877,0,0,0,1.824,1.184A1.815,1.815,0,0,0,120.9,26.528ZM113.64,16.8c0,.1-.064.128-.256.128-.448,0-1.568.032-2.72.032-1.12,0-2.3-.032-2.944-.032-.192,0-.256-.064-.256-.192,0-.288,2.08-6.272,2.56-7.552.224-.64.416-.928.576-.928.192,0,.352.32.544.9.512,1.568,1.472,4.48,2.464,7.488A.348.348,0,0,1,113.64,16.8Zm30.848,6.624a2.193,2.193,0,0,0-2.144-2.048,1.863,1.863,0,0,0-1.568.832,7.651,7.651,0,0,1-6.144,2.688c-6.752,0-8.32-6.016-8.32-8.7,0-4.32,2.88-8.928,8.288-8.928a6.744,6.744,0,0,1,5.28,2.272,2.05,2.05,0,0,0,1.632.864,2.009,2.009,0,0,0,1.952-1.984c0-1.728-3.456-4.672-8.544-4.672-7.808,0-12.384,6.176-12.384,12.672,0,6.24,4.288,12.16,12.256,12.16C140.68,28.576,144.488,25.088,144.488,23.424Zm9.632,3.232a1.731,1.731,0,0,0,1.92,1.632c.992,0,1.984-.544,1.92-1.664-.1-2.368-.16-6.272-.16-10.112,0-3.136.032-6.24.1-8.416,0-.64,0-.64,3.168-.64.768,0,1.7,0,2.784.064h.128a1.554,1.554,0,0,0,1.536-1.7A1.615,1.615,0,0,0,163.848,4.1c-1.824.032-4.544.064-7.264.064-3.328,0-6.72-.032-8.64-.064h-.064a1.644,1.644,0,0,0-1.76,1.7,1.705,1.705,0,0,0,1.824,1.728c1.5,0,3.008-.064,4.224-.064,1.888,0,1.984,0,1.984.64.064,1.7.064,4.352.064,7.168,0,4.224-.032,8.864-.1,11.36Z" transform="translate(615 444)" fill="#2c2d48"/>
    <circle id="楕円形_57" data-name="楕円形 57" cx="20" cy="20" r="20" transform="translate(819 436)" fill="#ffe699"/>
    <path id="パス_67" data-name="パス 67" d="M22.46,9.864a1.166,1.166,0,0,0-.024-1.7c-.864-.912-3.264-1.512-4.992-1.368a1.066,1.066,0,1,0,.12,2.112,4.483,4.483,0,0,1,3.168.984A1.21,1.21,0,0,0,22.46,9.864Zm-11.5,4.824a12.2,12.2,0,0,1,2.52-.912,6.7,6.7,0,0,1,3.888.048c2.088.768,1.416,2.472.84,3.24-1.152,1.536-2.688,1.512-4.56.6A1.145,1.145,0,1,0,12.62,19.7a5.861,5.861,0,0,0,7.7-1.44c1.224-1.776,1.872-5.016-2.088-6.384a9.209,9.209,0,0,0-5.328-.024,14.775,14.775,0,0,0-2.016.744c-.024-.912-.024-1.8,0-2.544a13.874,13.874,0,0,0,2.256-1.08c1.68-1.008.216-2.9-1.08-2.04a7.212,7.212,0,0,1-.96.552c.048-.72.072-1.488.12-2.016A1.215,1.215,0,1,0,8.8,5.5c.048.912.1,1.68.1,2.808a5.991,5.991,0,0,1-2.424.216c-1.992-.408-2.28,1.992-.5,2.208a9,9,0,0,0,2.88-.1c0,.96.024,1.992.048,3a15.458,15.458,0,0,0-3.384,2.544c-1.272,1.392-2.064,3.1.792,4.488,1.968.96,5.04,1.008,4.848-2.424C11.108,17.208,11.012,15.96,10.964,14.688Zm-2.04,1.2c.024.984.024,1.872,0,2.52-.024.936-.72,1.008-1.752.5-.552-.264-.552-.888-.048-1.44A11.782,11.782,0,0,1,8.924,15.888Zm35.016-5.64v.984c0,1.488.024,3.1.024,4.68,0,1.032-.024,2.064-.048,3.024-.024,1.176-.624,1.464-1.416,1.464a8.6,8.6,0,0,1-1.272-.144c-.072,0-.12-.024-.192-.024a.967.967,0,0,0-.936,1.056c0,1.056.864,1.272,2.544,1.272,2.736,0,3.576-1.488,3.576-3.192,0-.84-.024-1.848-.024-2.976,0-3.048-.048-6.768-.048-10.368v-1.8c0-1.08-.744-2.04-2.52-2.136-.408-.024-1.08-.024-1.776-.024-.984,0-1.992,0-2.448.024a1.994,1.994,0,0,0-2.088,1.9c-.024.84-.048,1.752-.048,2.64,0,.552,0,1.08.024,1.56.072,2.112,2.064,2.112,4.9,2.112C42.884,10.3,43.508,10.272,43.94,10.248ZM40.916,17.04c.024-.408.024-.84.024-1.248,0-.672-.024-1.344-.048-1.968a2.276,2.276,0,0,0-2.232-2.136c-.5-.024-1.368-.048-2.256-.048-.864,0-1.752.024-2.328.048a2.177,2.177,0,0,0-2.208,2.16c-.024.648-.048,1.32-.048,2.016,0,3.48.7,3.528,4.68,3.528.792,0,1.56-.024,2.112-.072A2.282,2.282,0,0,0,40.916,17.04ZM29.084,21.6c.072-3.384.1-6.648.1-9.216V10.248c.432.024,1.032.048,1.656.048,4.752,0,4.776-.6,4.776-3.672,0-.888-.024-1.8-.048-2.64a2.039,2.039,0,0,0-2.136-1.9c-.456-.024-1.44-.024-2.352-.024-2.5,0-4.128,0-4.128,2.352-.048,5.208,0,12.792-.168,17.184v.048a1.163,1.163,0,0,0,2.3-.048ZM39.38,5.4c0-.288.024-.552.024-.792.048-.768.312-.768,2.232-.768,2.208,0,2.256.024,2.256,1.56Zm4.56,3.12c-.336.024-1.1.024-1.9.024-2.544,0-2.616-.1-2.64-.768,0-.24-.024-.5-.024-.792h4.56ZM29.18,5.4c0-.216.024-.432.024-.624.048-.864.216-.936,2.184-.936,1.92,0,2.04.072,2.088.744,0,.24.024.528.024.816ZM33.5,6.984c0,.288-.024.552-.024.792-.024.672-.192.768-2.52.768-.72,0-1.44,0-1.776-.024V6.984ZM37.8,17.4c-.312.024-.864.024-1.416.024-1.7,0-2.3-.024-2.352-.768C34,16.272,34,15.768,34,15.288c0-1.752.048-1.824,2.352-1.824,2.256,0,2.4.024,2.4,1.536C38.756,16.968,38.756,17.328,37.8,17.4Zm32.376-3.768a9.207,9.207,0,0,0-3.6-5.568c-1.44-1.08-2.736.7-1.584,1.488a7.573,7.573,0,0,1,2.664,4.656A1.292,1.292,0,1,0,70.172,13.632Zm-10.488,3.96a10.98,10.98,0,0,0,.936-1.848,1.179,1.179,0,0,0-2.184-.864,9.438,9.438,0,0,1-.792,1.416c-.528.72-.84.648-1.464.048-1.344-1.3-1.8-3.672-1.9-6.192-.048-1.1.048-1.152,0-2.088a1.224,1.224,0,1,0-2.448.024,23.907,23.907,0,0,0,.12,2.664c.192,3.024.984,5.808,2.712,7.68C56.012,19.872,58.148,20.088,59.684,17.592Zm35.16-7.368a.945.945,0,0,0-.528-.864A34.73,34.73,0,0,1,86.66,3.1a3.183,3.183,0,0,0-2.3-1.1A2.634,2.634,0,0,0,82.22,3.12,30.363,30.363,0,0,1,74.78,10.1a1.2,1.2,0,0,0-.648,1.032,1.284,1.284,0,0,0,1.32,1.224,1.792,1.792,0,0,0,1.08-.408,46.323,46.323,0,0,0,7.344-7.224c.24-.312.432-.48.648-.48s.432.168.7.48A44.33,44.33,0,0,0,92.564,11.4a1.446,1.446,0,0,0,2.28-1.176Zm-6.1.744a1.057,1.057,0,1,0,0-2.112H80.684a1.057,1.057,0,1,0,0,2.112Zm2.616,8.352c.024-.6.048-1.224.048-1.824,0-.624-.024-1.224-.048-1.728a2.484,2.484,0,0,0-2.544-2.16c-1.536-.024-3.24-.048-4.824-.048-1.3,0-2.52.024-3.528.048A2.439,2.439,0,0,0,77.8,15.984c-.024.552-.024,1.248-.024,1.92,0,.5,0,1.008.024,1.44a2.5,2.5,0,0,0,2.712,2.448q2.016.072,4.032.072c1.368,0,2.76-.024,4.152-.072A2.609,2.609,0,0,0,91.364,19.32Zm-3.408.408c-1.1.024-2.28.048-3.456.048-1.152,0-2.28-.024-3.312-.048-.936-.024-1.152-.264-1.152-2.04,0-1.344.024-2.088,1.128-2.112,1.128-.024,2.448-.048,3.744-.048,1.08,0,2.112.024,3,.048,1.1.024,1.152.456,1.152,2.256C89.06,18.912,89.06,19.68,87.956,19.728Zm15.384-2.52a24.193,24.193,0,0,0,.024,3.552c.1,1.032.792,1.416,1.44,1.32a1.294,1.294,0,0,0,1.1-1.536,30.3,30.3,0,0,1-.192-5.712,14.387,14.387,0,0,1,3.024-2.016c3.312-1.7,5.808-1.368,6.888-.264,1.056,1.1.768,2.976-1.776,4.68a12.236,12.236,0,0,1-2.544,1.176,1.287,1.287,0,1,0,.768,2.448,14.7,14.7,0,0,0,3.408-1.752c3.624-2.616,4.032-5.856,2.28-7.824-1.728-1.968-5.544-2.76-9.816-.48a16.255,16.255,0,0,0-2.064,1.32V12c.48-.864.84-1.536.96-1.7,1.08-1.536.432-2.688-.5-2.712.168-1.392.336-2.568.456-3.432.216-1.416-2.208-1.752-2.352-.072-.1,1.032-.24,2.544-.408,4.3-1.224.5-2.52,1.128-3.408,1.536-1.368.648-.576,3.048,1.152,1.968a15.641,15.641,0,0,1,1.728-1.032.4.4,0,0,1,.312-.048l-.048.576a36.25,36.25,0,0,1-3.192,5.856,9.736,9.736,0,0,0-.72.96c-1.056,1.584,1.224,2.928,2.208,1.2.432-.744.792-1.392,1.128-1.944Zm24.36-4.1c.048,1.008.12,2.112.216,2.976.336,3.264,1.488,4.752,4.632,5.088a14.447,14.447,0,0,0,4.968-.408,1.231,1.231,0,1,0-.672-2.352,13.358,13.358,0,0,1-3.912.648c-2.016-.048-2.784-.864-2.976-3.456-.072-.84-.1-1.992-.12-3.12,1.584-.408,3.456-.84,5.448-1.152a5.938,5.938,0,0,1-.7,2.544c-.336.5-.744.624-1.44-.288-.936-1.224-2.232-.072-1.608.984a9.635,9.635,0,0,0,.936,1.272,2.09,2.09,0,0,0,2.952.36c1.128-.768,1.608-2.256,1.848-3.888.048-.408.12-.84.144-1.248.336-.024.648-.072.984-.1a22.8,22.8,0,0,1,3.384-.048c1.944.12,2.328-2.232.36-2.352a22.828,22.828,0,0,0-3.984.264c-.216.024-.408.072-.624.1.024-.48.048-.96.072-1.368.048-.672.1-1.368.1-2.184a1.2,1.2,0,0,0-2.4-.024c.024.528,0,.744.024.936a8.846,8.846,0,0,1,.024.96c0,.6.024,1.272.024,1.992-1.968.336-3.96.744-5.544,1.08l.024-.312c.048-1.128.072-2.232.072-3a1.261,1.261,0,0,0-2.52.1c.048,1.032.12,2.016.168,3.408v.312l-.672.144c-1.056.24-2.832.7-3.912.96-1.992.48-1.344,3.024.552,2.472.72-.216,1.632-.5,3.744-1.176Z" transform="translate(629 488)" fill="#2c2d48"/>
  </g>
</svg>
