<svg xmlns="http://www.w3.org/2000/svg" width="318" height="74.664" viewBox="0 0 318 74.664">
  <g id="グループ_68" data-name="グループ 68" transform="translate(-541 -336)">
    <circle id="楕円形_54" data-name="楕円形 54" cx="20" cy="20" r="20" transform="translate(541 336)" fill="#ffe699"/>
    <path id="パス_66" data-name="パス 66" d="M46.04,21.632c0-2.368-1.344-4.8-4.544-6.56-1.472-.8-3.68-1.824-4.992-2.528a3.286,3.286,0,0,1-2.016-2.816c0-1.44,1.248-2.72,3.3-2.72a4.668,4.668,0,0,1,3.68,1.472,2.031,2.031,0,0,0,1.5.768A1.866,1.866,0,0,0,44.76,7.392c0-1.5-2.528-3.616-6.944-3.616S30.9,6.752,30.9,9.856a6.367,6.367,0,0,0,4.1,5.76c1.7.768,3.424,1.728,4.832,2.528a4.224,4.224,0,0,1,2.432,3.584c0,1.024-.768,3.424-4.288,3.424A5.5,5.5,0,0,1,33.3,23.008a1.723,1.723,0,0,0-1.408-.8,1.871,1.871,0,0,0-1.856,1.824c0,1.568,2.688,4.544,7.9,4.544C43.128,28.576,46.04,25.056,46.04,21.632Zm3.9,5.12A1.66,1.66,0,0,0,51.8,28.288c.928,0,1.824-.48,1.824-1.5V26.72c-.064-1.472-.064-2.88-.064-4.16,0-2.08.032-3.776.064-4.608,0-.48.352-.512.608-.512s.448-.032.672-.032a1.578,1.578,0,0,1,1.344.64c2.336,2.72,7.744,8.512,8.832,9.632a1.977,1.977,0,0,0,1.44.64,2.226,2.226,0,0,0,2.144-2.112A1.952,1.952,0,0,0,68.12,24.9c-.544-.608-6.4-6.176-9.12-8.96a.786.786,0,0,1-.288-.48A.77.77,0,0,1,59,14.944c2.24-2.368,6.144-6.272,7.552-8a1.571,1.571,0,0,0,.352-.992A2.145,2.145,0,0,0,64.824,4a1.579,1.579,0,0,0-1.312.672C62.2,6.4,58.488,10.5,56.184,12.992a2.206,2.206,0,0,1-1.728.928c-.768,0-.832-.352-.832-.64-.032-.8-.064-2.208-.064-3.936,0-1.12.032-2.368.064-3.648V5.632a1.717,1.717,0,0,0-1.856-1.664A1.657,1.657,0,0,0,49.944,5.7c.064,2.432.1,5.824.1,9.408,0,4-.032,8.224-.1,11.616Zm26.432-.224c-.064-3.936-.1-8.1-.1-12.1,0-3.1.032-6.112.1-8.768V5.6a1.692,1.692,0,0,0-1.888-1.568c-.576,0-2.016.352-1.952,1.7.1,2.592.16,5.5.16,8.544,0,4.128-.1,8.416-.16,12.256v.032a1.935,1.935,0,0,0,3.84,0ZM82.232,5.952v.672c0,3.168-.128,10.176-.128,14.56,0,1.184,0,2.208.032,2.88.1,2.816,1.856,3.872,4.8,4.1.416.032,2.3.064,4.16.064,1.888,0,3.776-.032,4.192-.064A1.889,1.889,0,0,0,97.3,26.336a1.673,1.673,0,0,0-1.728-1.7h-.16c-.608.032-2.656.064-4.512.064-4.352,0-5.056,0-5.184-1.536-.032-.544-.064-1.984-.064-3.808,0-4.448.1-11.2.192-13.248V5.984a1.815,1.815,0,0,0-1.824-1.952A1.773,1.773,0,0,0,82.232,5.92Zm18.88,0v.672c0,3.168-.128,10.176-.128,14.56,0,1.184,0,2.208.032,2.88.1,2.816,1.856,3.872,4.8,4.1.416.032,2.3.064,4.16.064,1.888,0,3.776-.032,4.192-.064a1.889,1.889,0,0,0,2.016-1.824,1.673,1.673,0,0,0-1.728-1.7h-.16c-.608.032-2.656.064-4.512.064-4.352,0-5.056,0-5.184-1.536-.032-.544-.064-1.984-.064-3.808,0-4.448.1-11.2.192-13.248V5.984A1.815,1.815,0,0,0,102.9,4.032a1.773,1.773,0,0,0-1.792,1.888Z" transform="translate(627 344)" fill="#2c2d48"/>
    <circle id="楕円形_55" data-name="楕円形 55" cx="20" cy="20" r="20" transform="translate(819 336)" fill="#ffe699"/>
    <path id="パス_65" data-name="パス 65" d="M34.532,10.92c.864.96,2.28-.624,1.272-1.632a7.963,7.963,0,0,0-2.544-1.44C32.084,7.464,31.148,9,32.444,9.5A8.426,8.426,0,0,1,34.532,10.92ZM32.06,13.1c.84.984,2.328-.552,1.344-1.608a7.838,7.838,0,0,0-2.52-1.512c-1.176-.432-2.136,1.056-.864,1.608A9.189,9.189,0,0,1,32.06,13.1Zm-2.3,8.4c2.544.024,2.376-2.808-.144-2.712-5.376.192-6.984-4.848-4.872-8.376a6.984,6.984,0,0,1,3.1-2.808,10.173,10.173,0,0,1,3.552-.672c1.68.1,2.208-.384,2.352-.792A1.415,1.415,0,0,0,32.108,4.3,32.112,32.112,0,0,0,25.58,5.712c-2.448.7-4.56,1.176-5.736,1.464-.768.192-2.16.456-2.664.576-1.92.408-1.272,3.168.84,2.592a22.768,22.768,0,0,0,2.16-.72C21.812,9,21.4,9,23.2,8.424c.456-.144.576-.168.192.336a8.293,8.293,0,0,0-.768,1.248C20.012,14.832,22.508,21.48,29.756,21.5ZM52.82,11.976a15.132,15.132,0,0,0,1.9-.792c1.344-.672.312-2.88-1.368-1.92a12.575,12.575,0,0,1-1.8.768,19.907,19.907,0,0,1-1.032-2.016,15.361,15.361,0,0,0,1.92-.744c1.272-.6.36-2.712-1.224-1.872a9.2,9.2,0,0,1-1.512.648,20.711,20.711,0,0,0-1.728-3.624c-.864-1.176-3.408-.264-2.064,1.248a12.389,12.389,0,0,1,1.728,2.9,13.314,13.314,0,0,1-2.976.144c-1.92-.144-1.44,2.184.12,2.184A18.85,18.85,0,0,0,48.6,8.52c.384.744.768,1.44,1.128,2.064a11.69,11.69,0,0,1-4.128.336c-2.04-.264-1.824,2.184-.168,2.3a17.31,17.31,0,0,0,5.52-.648c.168.264.36.48.528.72,1.392,1.872,1.008,2.232-.288,2.064-1.584-.192-4.536-.384-6.312.528-2.688,1.368-2.016,4.728.816,5.928a9.894,9.894,0,0,0,4.752.816c2.16-.192,2.016-2.856-.12-2.448a6.626,6.626,0,0,1-3.888-.36c-1.1-.456-1.608-1.728-.36-2.328,1.68-.816,5.088-.336,6.36.408,1.08.624,2.232.408,2.472-.84.264-1.368-.7-3.288-1.56-4.392C53.18,12.432,52.988,12.216,52.82,11.976ZM74.3,19.224a3.405,3.405,0,0,0-3.792-3.24c-2.832.1-3.96,3.072-1.416,4.728,1.824,1.2,5.568,1.1,7.944-.6,2.52-1.824,3.648-6.048.192-8.112a7.353,7.353,0,0,0-6.744.072c.864-.84,1.824-1.7,2.784-2.592s1.92-1.824,2.688-2.688c1.2-1.344-.384-3.048-2.3-2.5a37.11,37.11,0,0,1-5.28,1.176C66.74,5.664,67.1,8.04,69,7.632a19.227,19.227,0,0,0,4.032-1.224c.192-.1.432-.192.168.144A85.023,85.023,0,0,1,65.948,14.3c-1.488,1.464.912,2.88,1.776,1.608a5.277,5.277,0,0,1,2.016-1.8C72.164,12.7,74.756,12.864,76,13.7c1.368.912,1.44,3.192-.312,4.752A3.234,3.234,0,0,1,74.3,19.224Zm-2.04.36a4.318,4.318,0,0,1-2.016-.36c-.768-.408-.72-1.392.336-1.488S72.284,18.48,72.26,19.584ZM99.572,8.712c1.944.408,2.472-2.064.456-2.5a25.48,25.48,0,0,0-7.656-.072c-2.136.312-1.824,2.856.072,2.5A18.247,18.247,0,0,1,99.572,8.712ZM101.924,20.4c1.944-.6,1.368-3.192-.624-2.64-3.624,1.032-7.512,1.2-9.552-.888a1.265,1.265,0,0,0-1.992,1.56C91.412,20.76,97.172,21.888,101.924,20.4Zm16.368-8.856c-.24.168-.456.36-.7.552-3.888,3.1-4.032,6.984-.576,8.736,2.376,1.2,6.384.72,8.28.192,2.136-.6,1.416-3.36-.6-2.592-1.44.528-4.872,1.152-6.552.312-1.872-.912-1.8-2.712.576-4.728a36.074,36.074,0,0,1,6.816-4.248c1.848-.936.6-3.24-1.032-2.328a45.783,45.783,0,0,0-4.224,2.64,24.361,24.361,0,0,0-2.808-5.592c-.96-1.368-3.312-.072-2.064,1.464A19.517,19.517,0,0,1,118.292,11.544Z" transform="translate(629 388)" fill="#2c2d48"/>
  </g>
</svg>
