<svg xmlns="http://www.w3.org/2000/svg" width="1400" height="743" viewBox="0 0 1400 743">
  <g id="グループ_54" data-name="グループ 54" transform="translate(0 -4391)">
    <rect id="長方形_7" data-name="長方形 7" width="700" height="743" transform="translate(0 4391)" fill="#ffe699"/>
    <path id="パス_40" data-name="パス 40" d="M0,0H700V743H0Z" transform="translate(700 4391)" fill="#f3e7e0"/>
    <g id="グループ_44" data-name="グループ 44" transform="translate(0 3894)">
      <path id="パス_42" data-name="パス 42" d="M24.64,27.04c0-2.96-1.68-6-5.68-8.2-1.84-1-4.6-2.28-6.24-3.16a4.108,4.108,0,0,1-2.52-3.52c0-1.8,1.56-3.4,4.12-3.4a5.835,5.835,0,0,1,4.6,1.84,2.539,2.539,0,0,0,1.88.96,2.333,2.333,0,0,0,2.24-2.32c0-1.88-3.16-4.52-8.68-4.52s-8.64,3.72-8.64,7.6c0,2.76,1.6,5.6,5.12,7.2,2.12.96,4.28,2.16,6.04,3.16a5.28,5.28,0,0,1,3.04,4.48c0,1.28-.96,4.28-5.36,4.28a6.877,6.877,0,0,1-5.84-2.68,2.154,2.154,0,0,0-1.76-1,2.338,2.338,0,0,0-2.32,2.28c0,1.96,3.36,5.68,9.88,5.68C21,35.72,24.64,31.32,24.64,27.04Zm12.28,6.28a2.164,2.164,0,0,0,2.4,2.04c1.24,0,2.48-.68,2.4-2.08-.12-2.96-.2-7.84-.2-12.64,0-3.92.04-7.8.12-10.52,0-.8,0-.8,3.96-.8.96,0,2.12,0,3.48.08h.16a1.943,1.943,0,0,0,1.92-2.12,2.019,2.019,0,0,0-2.08-2.16c-2.28.04-5.68.08-9.08.08-4.16,0-8.4-.04-10.8-.08h-.08a2.056,2.056,0,0,0-2.2,2.12A2.131,2.131,0,0,0,29.2,9.4c1.88,0,3.76-.08,5.28-.08,2.36,0,2.48,0,2.48.8.08,2.12.08,5.44.08,8.96,0,5.28-.04,11.08-.12,14.2ZM70.36,30.4c2.72,4.84,6,4.96,6.64,4.96a2.373,2.373,0,0,0,.48-4.72c-1.36-.16-2.28-.92-3.28-2.56-1.4-2.24-2.52-4.68-4.48-6.84-.28-.32-.56-.52-.56-.68,0-.12.12-.16.4-.24A7.544,7.544,0,0,0,75.4,12.8c0-3.76-2.68-7.56-9.16-8-.6-.04-1.52-.08-2.44-.08-3.36,0-7.92,0-8.04,5.12-.04,1.64-.04,1.8-.04,10.44,0,4.4,0,9.16-.12,12.88v.08a2.015,2.015,0,0,0,2.16,2,2.223,2.223,0,0,0,2.36-2.2c0-1.44-.12-8-.12-11,0-.72.56-.76,1.32-.76s1.68.04,2.2.04C65.44,21.36,67.8,25.96,70.36,30.4ZM66.12,17.6c-.72.04-1.76.08-2.76.08-2.8,0-3.32-.04-3.32-.84.04-2.32,0-5.16.08-6.12.12-1.88,1.56-2,3.72-2,.76,0,1.48,0,2,.04,3.48.2,5,2.16,5,4.16A4.924,4.924,0,0,1,66.12,17.6ZM99.08,9.08a2.2,2.2,0,0,0,2.36-2.16A2.132,2.132,0,0,0,99.2,4.8c-.6-.04-2.8-.08-5.08-.08-2.24,0-4.52.04-5.24.08-3.24.16-5.32,1.84-5.4,5.04-.08,2.52-.12,7.96-.12,12.84,0,3.24,0,6.2.08,7.88.16,3.52,2.44,4.84,6.12,5.12.52.04,2.84.08,5.12.08,2.32,0,4.64-.04,5.16-.08a2.333,2.333,0,0,0,2.52-2.24,2.028,2.028,0,0,0-2.16-2.04H100c-.76.04-3.32.08-5.68.08-5.64,0-6.28-.08-6.48-1.92-.08-.68-.12-1.6-.12-7.56,0-.84.4-.88,5.36-.88,1.52,0,3.04.04,4.04.12h.2a2.12,2.12,0,0,0,2.12-2.28,2.013,2.013,0,0,0-2.24-2.12c-.72.04-2.64.04-4.48.04-4.92,0-4.96,0-4.96-.8.04-2.32,0-4.28.08-5.24.12-1.72.96-1.8,4.96-1.8C95.52,9.04,99.08,9.08,99.08,9.08Zm8,24.36a2.075,2.075,0,0,0,2.32,1.92c1.16,0,2.28-.6,2.28-1.88V33.4c-.12-4.24-.24-16.04-.24-20.2,0-1.84,0-2.24.24-2.24.2,0,.48.52.64.76,2.16,3.64,9.64,17.32,12.44,21.76a4.078,4.078,0,0,0,3.44,2,3.616,3.616,0,0,0,3.64-3.8V31.6c-.08-3.48-.12-8.72-.12-13.8,0-4,.04-7.88.12-10.68V7.04a2.33,2.33,0,0,0-4.64.08c.12,3.68.24,16.16.24,19.92,0,1.56-.16,1.68-.28,1.68s-.32-.2-.56-.56c-3.04-4.56-9.72-17.04-12.24-21.04a4.832,4.832,0,0,0-3.92-2.16c-1.76,0-3.32,1.12-3.32,3.92v.16c.04,3,.08,6.8.08,10.8,0,4.6-.04,9.44-.12,13.56Zm52.28-9.72c.72,0,1.32.36,1.32,1.12,0,1.16-1.8,6.28-8.4,6.28-6.84,0-10.28-5.48-10.28-10.8,0-5.12,3.4-11.24,10.4-11.24a8.43,8.43,0,0,1,6.6,2.84A2.562,2.562,0,0,0,161.04,13a2.511,2.511,0,0,0,2.44-2.48c0-2.16-4.32-5.84-10.68-5.84-9.76,0-15.48,7.72-15.48,15.84,0,9.24,6.92,15.24,14.96,15.24,9.52,0,13.6-7.48,13.6-12.04,0-2.48-1.28-4.24-4.72-4.24-1.32,0-3.56-.08-5.52-.08-1.32,0-3.04,0-3.04,2.12a2.135,2.135,0,0,0,2,2.32h.08c2.2-.08,4.2-.12,4.6-.12Zm35.96,9.68c-.08-3.36-.12-9.12-.12-14.72,0-4.36.04-8.64.12-11.56V7.04a2.33,2.33,0,0,0-4.64.08c.04,1.6.08,3.2.08,4.64,0,2.2-.04,4-.08,4.96,0,.44-.16.72-.64.72-1.44.04-4.44.04-7.36.04-2.88,0-5.64,0-6.64-.04-.32,0-.64-.16-.64-.76-.04-1-.08-2.8-.08-4.96,0-1.4.04-3,.08-4.6V7.04a2.146,2.146,0,0,0-2.32-2.08,2.071,2.071,0,0,0-2.28,2.16c.08,3.04.12,7.28.12,11.76,0,5-.04,10.28-.12,14.52v.04a2.075,2.075,0,0,0,2.32,1.92c1.16,0,2.28-.6,2.28-1.88V33.4c-.08-1.84-.08-3.64-.08-5.24,0-2.64.04-4.76.08-5.8,0-.6.44-.64.76-.64,1.56-.04,4.64-.08,7.6-.08,2.4,0,4.76.04,6.16.08.6.04.76.12.76.76.04,1.08.08,3.16.08,5.68,0,1.64-.04,3.44-.08,5.24v.08c0,1.28,1.16,1.88,2.32,1.92a2.1,2.1,0,0,0,2.32-1.96Zm14.2-.08a2.164,2.164,0,0,0,2.4,2.04c1.24,0,2.48-.68,2.4-2.08-.12-2.96-.2-7.84-.2-12.64,0-3.92.04-7.8.12-10.52,0-.8,0-.8,3.96-.8.96,0,2.12,0,3.48.08h.16a1.943,1.943,0,0,0,1.92-2.12,2.019,2.019,0,0,0-2.08-2.16c-2.28.04-5.68.08-9.08.08-4.16,0-8.4-.04-10.8-.08h-.08a2.056,2.056,0,0,0-2.2,2.12A2.131,2.131,0,0,0,201.8,9.4c1.88,0,3.76-.08,5.28-.08,2.36,0,2.48,0,2.48.8.08,2.12.08,5.44.08,8.96,0,5.28-.04,11.08-.12,14.2Z" transform="translate(586 539)" fill="#2c2d48"/>
      <path id="パス_43" data-name="パス 43" d="M78.992,25.6c-.7.128-1.5.224-2.368.352V22.688c.864,0,1.7,0,2.432-.032,2.048-.1,3.1-1.28,3.2-2.624.032-.416.032-.992.032-1.632,0-1.024-.032-2.144-.064-2.656a2.929,2.929,0,0,0-2.912-2.464c-.8-.032-1.728-.032-2.688-.032V11.584A1.313,1.313,0,0,0,75.6,10.3c1.632-.224,3.2-.512,4.608-.8a11.292,11.292,0,0,1,.672,1.024,1.478,1.478,0,0,0,1.248.8A1.682,1.682,0,0,0,83.76,9.7c0-1.408-3.872-5.184-5.28-5.184A1.359,1.359,0,0,0,77.04,5.7a1.259,1.259,0,0,0,.544.96,8.39,8.39,0,0,1,.8.7c-1.472.224-3.04.416-4.672.544.384-.64,1.824-3.36,1.824-4.384a1.67,1.67,0,0,0-1.76-1.5A1.328,1.328,0,0,0,72.4,3.1,26.087,26.087,0,0,1,70.672,8.1c-.832.032-1.728.064-2.592.064a1.226,1.226,0,0,0-1.152,1.376,1.287,1.287,0,0,0,1.184,1.44,59.1,59.1,0,0,0,6.112-.48,1.214,1.214,0,0,0-.576,1.088v1.664c-.9,0-1.7.032-2.4.032-3.168.064-3.2,1.632-3.2,4.672,0,.768,0,1.536.032,2.08.1,1.536,1.12,2.464,3.04,2.56.768.032,1.632.032,2.528.064V26.3c-2.3.256-4.7.416-6.56.448a1.3,1.3,0,0,0-1.28,1.44,1.461,1.461,0,0,0,1.44,1.568,100.57,100.57,0,0,0,13.6-1.984,13.766,13.766,0,0,1,.928,1.44,1.517,1.517,0,0,0,1.312.864,1.622,1.622,0,0,0,1.536-1.632c0-1.6-3.584-4.7-3.776-4.864a1.486,1.486,0,0,0-2.432.928,1.3,1.3,0,0,0,.416.928ZM62.224,5.5c1.088,0,1.088.448,1.088,2.176,0,1.376-.128,1.824-1.088,1.824-.448,0-1.184-.064-1.632-.064h-.16c-1.728,0-2.5.512-2.912,2.3-.224,1.056-.736,3.9-.736,4.48,0,1.216.768,1.952,2.752,1.952.736,0,1.792-.064,2.592-.064,1.152,0,1.28.416,1.28,1.184a17.823,17.823,0,0,1-.544,4.256,3.418,3.418,0,0,1-3.3,2.752,4.524,4.524,0,0,1-1.408-.256,2.4,2.4,0,0,0-.768-.128,1.376,1.376,0,0,0-1.408,1.472c0,1.568,1.728,1.92,3.52,1.92,5.92,0,6.88-5.76,6.88-10.272,0-1.312-.224-3.52-3.232-3.52-.736,0-1.7,0-2.656.032-.256,0-.576-.1-.576-.608a16.012,16.012,0,0,1,.32-2.24c.1-.512.448-.672,1.088-.672.288,0,1.056.032,1.6.032,3.264,0,3.3-1.76,3.3-4.512,0-.608,0-1.248-.032-1.7a2.914,2.914,0,0,0-3.264-3.072c-1.056,0-2.208-.032-3.392-.032h-.864A1.357,1.357,0,0,0,57.264,4.16,1.291,1.291,0,0,0,58.608,5.5Zm14.4,10.176c2.048,0,2.688,0,2.752.9.032.288.032.928.032,1.536,0,1.952-.1,2.048-2.784,2.048Zm-2.976,4.48c-2.624,0-2.848-.032-2.848-1.952,0-2.08.064-2.432,1.28-2.5.448,0,.96-.032,1.568-.032Zm27.3-4.032c1.152-2.4,2.432-4.992,3.776-7.232,1.44-2.336.16-4.224-2.752-3.648a42.222,42.222,0,0,1-4.608.8c-1.92.128-2.016,3.1.1,3.04a16.834,16.834,0,0,0,3.776-.768c.48-.128.384.128.192.576-.9,2.016-2.368,4.928-3.488,7.328A18.188,18.188,0,0,0,92.688,17.6c-3.68,1.632-4.864,4.96-3.232,7.008,1.376,1.7,4.192,1.5,6.112,0,1.824-1.408,2.912-3.392,4.1-5.856a19.985,19.985,0,0,1,7.456,1.6,13.675,13.675,0,0,1-5.056,5.408c-2.08,1.28-.48,3.776,1.76,2.464a15.627,15.627,0,0,0,6.08-6.5,21.93,21.93,0,0,1,3.488,2.592c1.824,1.664,4-1.28,1.984-2.848a25.329,25.329,0,0,0-4.416-2.72,7.811,7.811,0,0,0-.32-5.312c-1.056-1.984-3.936-.768-3.04.736a5.172,5.172,0,0,1,.448,3.36,23.93,23.93,0,0,0-6.944-1.408Zm-4.384,2.88A11.138,11.138,0,0,1,93.9,22.432c-.576.448-1.728.64-2.112.1-.544-.8.96-2.144,1.792-2.56A10.17,10.17,0,0,1,96.56,19.008Z" transform="translate(614 595)" fill="#2c2d48"/>
    </g>
    <path id="パス_44" data-name="パス 44" d="M73.288,26.12V22.536H68.04V17.448h4.512v-3.52H64.1c.32-1.088.576-2.176.8-3.3L61.256,9.9c-.64,3.648-1.856,7.328-3.584,9.632a21.405,21.405,0,0,1,3.072,2.208,22.32,22.32,0,0,0,2.176-4.288H64.2v5.088H58.28V26.12h5.664A14.948,14.948,0,0,1,57.8,36.808a14.471,14.471,0,0,1,2.72,2.88A17.083,17.083,0,0,0,66.568,31.3c1.568,1.952,3.392,4.352,4.448,6.016l2.56-3.2c-.9-1.056-4.352-5.056-6.016-6.688.1-.416.16-.864.224-1.312Zm4.544,6.848V16.232h4.64V32.968Zm-3.68-20.32V38.856h3.68v-2.3h4.64v1.824h3.872V12.648Zm20.736,20.48V26.856h5.088v6.272Zm5.088-9.568H94.888V18.376h5.088Zm10.176-8.736c.48-1.344.9-2.688,1.248-4.064l-3.648-.832a33.1,33.1,0,0,1-4.32,10.3V15.048h-4.96c.544-1.376,1.12-2.976,1.664-4.576L95.976,9.9a34.322,34.322,0,0,1-.928,5.152H91.432V38.824h3.456V36.488h8.544V21.544a23.767,23.767,0,0,1,2.464,1.792,27.6,27.6,0,0,0,2.816-5.056h6.848c-.352,11.3-.768,16.1-1.7,17.12a1.707,1.707,0,0,1-1.408.544c-.832,0-2.72,0-4.768-.192a8.967,8.967,0,0,1,1.248,3.712,35.87,35.87,0,0,0,5.024-.064,4.269,4.269,0,0,0,3.072-1.76c1.312-1.7,1.664-6.784,2.08-21.088.032-.448.032-1.728.032-1.728Zm3.68,14.592a77.232,77.232,0,0,0-4.7-7.1l-2.976,1.7A68.474,68.474,0,0,1,110.6,31.4Zm17.184-9.664a37.453,37.453,0,0,1-1.92,8.64c-.8-.576-1.6-1.12-2.368-1.6.512-2.24,1.024-4.608,1.536-7.04Zm1.5-3.584-.64.1H129c.416-2.08.8-4.128,1.12-6.016l-3.584-.32c-.288,1.952-.672,4.128-1.088,6.336H122.28v3.488h2.5c-.768,3.712-1.568,7.3-2.3,9.92l3.136,1.632.256-.992c.576.416,1.152.864,1.728,1.312a13.066,13.066,0,0,1-5.216,5.248,13.276,13.276,0,0,1,2.272,3.008,17.573,17.573,0,0,0,5.824-5.856,25.68,25.68,0,0,1,2.816,3.04l2.3-3.072a23.189,23.189,0,0,0-3.456-3.328,45.881,45.881,0,0,0,2.688-14.144Zm19.456,6.4h-7.04V20.744a48.962,48.962,0,0,0,6.3-7.584l-2.5-1.856-.768.192H135.464v3.52h9.952a28.344,28.344,0,0,1-3.072,3.84H141.16v3.712h-6.752v3.584h6.752V35.5c0,.448-.16.576-.7.576-.512.032-2.208,0-3.84-.064a16.106,16.106,0,0,1,1.376,3.744,12.463,12.463,0,0,0,5.344-.7c1.248-.576,1.6-1.6,1.6-3.52V26.152h7.04Zm7.456-.384c4.576-.768,7.264-1.984,8.928-3.808,3.392,1.184,7.168,2.656,9.7,3.808Zm8.224,11.232h-6.528V30.44h6.528Zm15.9-11.232h-4.576l2.5-2.368c-2.656-1.12-6.816-2.688-10.5-3.9h10.848v-3.3H170.7c.128-.864.224-1.76.288-2.752h-3.936a22.073,22.073,0,0,1-.288,2.752H156.168v3.3h9.408c-1.408,1.888-4.1,2.976-9.76,3.584a12.894,12.894,0,0,1,1.568,2.688h-2.816v3.392h21.056v10.08c0,.48-.192.608-.832.672-.448,0-1.952,0-3.52-.032V27.5h-13.76V38.344h3.616V36.36h8.928a14.622,14.622,0,0,1,1.344,3.424c2.752,0,4.8-.032,6.24-.576,1.472-.576,1.952-1.536,1.952-3.456V25.576h3.968Zm23.584-.416a34.084,34.084,0,0,1,5.44,11.68l3.872-1.92a34.2,34.2,0,0,0-5.792-11.52Zm-18.3-.48c-.416,4.256-1.344,8.384-3.232,11.136l3.552,2.048c2.112-3.136,2.944-8.032,3.424-12.416Zm5.824-8.32a42.76,42.76,0,0,1,10.688,5.952l2.5-3.36a47.3,47.3,0,0,0-10.72-5.568Zm-.1,6.048v15.2c0,4,1.12,5.248,5.184,5.248h5.216c3.84,0,4.864-1.888,5.28-7.84A11.618,11.618,0,0,1,206.7,29.96c-.224,5.024-.48,6.016-2.048,6.016h-4.384c-1.5,0-1.728-.224-1.728-1.76v-15.2Zm46.688,16.352,2.3-2.3-8.224-8.224,8.224-8.224-2.3-2.3-8.224,8.224-8.224-8.224-2.3,2.3,8.224,8.224L222.5,33.064l2.3,2.3,8.224-8.224Zm22.752-24-4.512-.256a17.14,17.14,0,0,1-.032,2.848c-.064.736-.16,1.6-.256,2.592a30.221,30.221,0,0,1-6.592-1.216l-.224,3.68a37.577,37.577,0,0,0,6.368,1.152c-.16,1.44-.352,2.944-.544,4.384a29.406,29.406,0,0,1-6.3-1.28l-.224,3.872a35.8,35.8,0,0,0,6.144,1.056c-.128,1.312-.224,2.464-.224,3.232,0,5.344,3.552,7.52,8.576,7.52,7.008,0,11.36-3.456,11.36-8.288,0-2.72-.992-4.992-3.1-7.68l-4.512.96c2.112,1.984,3.3,4.032,3.3,6.208,0,2.624-2.432,4.672-6.912,4.672-3.136,0-4.768-1.408-4.768-4.064,0-.576.064-1.376.128-2.336h1.28c2.016,0,3.872-.128,5.664-.288l.1-3.808a55.434,55.434,0,0,1-6.432.384h-.224c.16-1.44.352-2.944.544-4.352a57.671,57.671,0,0,0,6.24-.32l.128-3.808a45.135,45.135,0,0,1-5.856.448c.128-1.056.256-1.92.352-2.464A28.652,28.652,0,0,1,264.008,11.368Zm46.656,14.368c0-6.976-4.992-12.48-12.928-12.48-8.288,0-14.688,6.3-14.688,13.7,0,5.408,2.944,9.312,6.5,9.312,3.488,0,6.24-3.968,8.16-10.432a64.718,64.718,0,0,0,1.92-8.672c4.32.736,6.72,4.032,6.72,8.448,0,4.672-3.2,7.616-7.3,8.576a24.612,24.612,0,0,1-2.976.512l2.4,3.808C306.536,37.256,310.664,32.488,310.664,25.736Zm-23.52.8a10.073,10.073,0,0,1,8.128-9.28,48.029,48.029,0,0,1-1.7,7.744c-1.312,4.32-2.56,6.336-3.9,6.336C288.424,31.336,287.144,29.768,287.144,26.536Zm27.008-6.592,1.824,4.48c3.328-1.472,10.88-4.64,15.616-4.64,3.872,0,5.92,2.272,5.92,5.28,0,5.6-6.816,8.128-15.456,8.288l1.856,4.256c11.264-.576,18.176-5.216,18.176-12.448,0-5.92-4.544-9.248-10.3-9.248-4.736,0-11.232,2.272-13.664,3.04C316.936,19.3,315.336,19.72,314.152,19.944Zm23.488-8.672L335.08,12.3a44.431,44.431,0,0,1,2.528,4.48l2.56-1.12C339.56,14.472,338.44,12.456,337.64,11.272Zm3.776-1.44-2.528,1.024a33.709,33.709,0,0,1,2.56,4.416l2.56-1.088A45.693,45.693,0,0,0,341.416,9.832Zm27.072,4.1-3.744-3.3a22.239,22.239,0,0,1-2.464,2.72c-2.144,2.08-6.528,5.632-9.056,7.68-3.2,2.688-3.456,4.384-.256,7.1,2.912,2.5,7.616,6.5,9.568,8.512.96.96,1.888,1.984,2.784,2.976l3.744-3.424c-3.264-3.168-9.344-7.968-11.744-9.984-1.728-1.5-1.76-1.856-.064-3.328,2.144-1.824,6.368-5.088,8.448-6.752C366.44,15.528,367.5,14.7,368.488,13.928ZM388.552,11.3l-4.384-.192a28.341,28.341,0,0,1-.256,3.36,84.2,84.2,0,0,0-.9,10.24,36.193,36.193,0,0,0,.416,5.344l3.936-.256a16.731,16.731,0,0,1-.16-3.392c.16-4.224,3.456-9.888,7.232-9.888,2.688,0,4.352,2.752,4.352,7.68,0,7.744-5.024,10.08-12.128,11.168L389.1,39.08c8.48-1.536,14.016-5.856,14.016-14.912,0-7.04-3.456-11.392-7.9-11.392-3.616,0-6.4,2.688-7.936,5.184A52.175,52.175,0,0,1,388.552,11.3Z" transform="translate(467 4569)" fill="#2c2d48"/>
    <path id="パス_45" data-name="パス 45" d="M47.392,7.144V8.792c.432-.032,1.024-.064,1.568-.064h5.392c.512,0,1.088.032,1.6.064V7.144a13.417,13.417,0,0,1-1.6.1H48.944A12.065,12.065,0,0,1,47.392,7.144ZM45.5,11.192v1.664c.448-.032.976-.048,1.456-.048h4.624a7.4,7.4,0,0,1-.96,3.776,6.663,6.663,0,0,1-2.96,2.384l1.472,1.088a7.824,7.824,0,0,0,3.184-2.992,9.821,9.821,0,0,0,.992-4.256H57.44c.416,0,.96.016,1.344.032V11.192a10.207,10.207,0,0,1-1.344.08H46.96A14.02,14.02,0,0,1,45.5,11.192ZM56.832,5.928l-1.024.432a19.1,19.1,0,0,1,1.264,2.208l1.056-.448A23.186,23.186,0,0,0,56.832,5.928ZM58.64,5.24l-1.024.432A16.058,16.058,0,0,1,58.928,7.88l1.04-.464A20.39,20.39,0,0,0,58.64,5.24ZM73.136,6.7l-.912.288a19.487,19.487,0,0,1,.88,2.224l.928-.32A21.711,21.711,0,0,0,73.136,6.7Zm1.616-.512-.912.288a18.426,18.426,0,0,1,.9,2.224l.928-.3A18.863,18.863,0,0,0,74.752,6.184ZM71.68,12.04V11.5h1.5c.768,0,1.344.016,1.584.048v-1.7a10.632,10.632,0,0,1-1.6.1H71.68V8.088c0-.64.064-1.168.08-1.392H69.952a11.046,11.046,0,0,1,.08,1.392V9.944H65.824V8.1a9.844,9.844,0,0,1,.08-1.3H64.112a11.947,11.947,0,0,1,.08,1.28V9.944H62.624a12.127,12.127,0,0,1-1.664-.128v1.728c.256-.016.912-.048,1.664-.048h1.568v2.4a14.227,14.227,0,0,1-.08,1.552h1.776c-.016-.224-.064-.912-.064-1.552V11.5h4.208v.64c0,4.24-1.408,5.616-4.4,6.72l1.36,1.264C70.736,18.456,71.68,16.168,71.68,12.04Zm5.776.992.784,1.584a32.736,32.736,0,0,0,5.9-2.48V17.7a18.539,18.539,0,0,1-.1,1.888h1.984A12.032,12.032,0,0,1,85.92,17.7v-6.64a26.991,26.991,0,0,0,4.3-3.5L88.88,6.28a19.75,19.75,0,0,1-4.448,3.808A26.421,26.421,0,0,1,77.456,13.032ZM95.968,7.08,94.8,8.328a34.7,34.7,0,0,1,4,3.392l1.264-1.3A33.574,33.574,0,0,0,95.968,7.08Zm-1.648,10.7,1.072,1.648a17.641,17.641,0,0,0,6.128-2.384,16.359,16.359,0,0,0,5.616-5.792l-.976-1.744a15.234,15.234,0,0,1-5.552,6.032A16.625,16.625,0,0,1,94.32,17.784Zm21.152-9.76.016,1.632a40.778,40.778,0,0,0,6.7,0V8.024A29.485,29.485,0,0,1,115.472,8.024Zm.912,6.656-1.44-.128a8.1,8.1,0,0,0-.272,1.968c0,1.552,1.248,2.5,3.968,2.5a21.952,21.952,0,0,0,4.048-.32l-.032-1.712a17.181,17.181,0,0,1-3.984.432c-1.936,0-2.5-.592-2.5-1.312A5.559,5.559,0,0,1,116.384,14.68Zm-3.7-7.808-1.776-.16a11.63,11.63,0,0,1-.144,1.328,46.172,46.172,0,0,0-.688,6.384,20.332,20.332,0,0,0,.592,5.168l1.456-.1c-.016-.192-.032-.432-.032-.592a3.128,3.128,0,0,1,.08-.736c.16-.8.72-2.512,1.136-3.728l-.8-.64c-.256.592-.576,1.376-.848,2.032a15.787,15.787,0,0,1-.1-1.712,38.371,38.371,0,0,1,.784-6.032A11.475,11.475,0,0,1,112.688,6.872Zm17.136,2.976a21.418,21.418,0,0,1-.88,3.712c-.768-.928-1.568-1.856-2.336-2.656l-1.04.848A41.581,41.581,0,0,1,128.3,15.08a9.311,9.311,0,0,1-3.552,3.9,8.247,8.247,0,0,1,1.008,1.152,10.822,10.822,0,0,0,3.456-3.76,16.162,16.162,0,0,1,1.248,2.16l1.2-1.008a19.558,19.558,0,0,0-1.712-2.672,21.691,21.691,0,0,0,1.328-4.816Zm9.728-.592h-1.808V5.576h-1.472v3.68h-3.7V8.12h-3.088V5.592h-1.44V8.12h-2.912V9.5h6.944v1.2h4.192v7.632c0,.272-.112.352-.384.352-.272.016-1.136.016-2.1-.016a6.878,6.878,0,0,1,.48,1.584,7.556,7.556,0,0,0,2.752-.3c.512-.272.72-.7.72-1.616V10.7h1.808Zm-4.48,6.368a12.031,12.031,0,0,0-1.744-3.44l-1.216.576a13.321,13.321,0,0,1,1.68,3.5Zm15.392-9.392h-1.84c.032.16.08.656.128,1.168.016.192.016.464.032.816-2.288.032-5.264.112-7.072.144L141.76,9.9c1.984-.128,4.608-.224,7.04-.256,0,.464.016.944.016,1.36a3.2,3.2,0,0,0-.9-.112,2.89,2.89,0,0,0-2.976,2.88,2.672,2.672,0,0,0,2.688,2.784,2.506,2.506,0,0,0,1.12-.24c-.768,1.232-2.24,1.936-4.128,2.352l1.36,1.344c3.792-1.1,4.928-3.616,4.928-5.744a3.941,3.941,0,0,0-.56-2.128c0-.72,0-1.648-.016-2.512,2.32,0,3.84.032,4.784.08l.032-1.5h-4.8c0-.32,0-.608.016-.8A9.323,9.323,0,0,1,150.464,6.232Zm-4.016,7.5a1.442,1.442,0,0,1,1.456-1.5,1.319,1.319,0,0,1,1.248.768c.208,1.5-.416,2.16-1.248,2.16A1.4,1.4,0,0,1,146.448,13.736Zm15.808,3.488a1.063,1.063,0,0,1,1.168-.912,1.965,1.965,0,0,1,1.888,1.984,8.526,8.526,0,0,1-1.136.064C163.04,18.36,162.256,17.928,162.256,17.224ZM159.92,7.032l.048,1.648c.368-.048.784-.08,1.184-.1.832-.048,3.6-.176,4.448-.208-.8.7-2.656,2.24-3.552,2.976-.944.784-2.944,2.464-4.192,3.488l1.168,1.184c1.888-2.016,3.392-3.216,5.952-3.216,2,0,3.472,1.088,3.472,2.592a2.6,2.6,0,0,1-1.7,2.512,3.158,3.158,0,0,0-3.328-2.8,2.432,2.432,0,0,0-2.64,2.256c0,1.456,1.472,2.432,3.68,2.432,3.6,0,5.632-1.824,5.632-4.368,0-2.24-1.984-3.888-4.656-3.888a6.629,6.629,0,0,0-1.92.272c1.136-.928,3.1-2.592,3.92-3.2.336-.256.672-.48,1.008-.688l-.88-1.152a4.771,4.771,0,0,1-1.024.144c-.864.08-4.512.176-5.344.176A11.622,11.622,0,0,1,159.92,7.032Zm17.616,3.136a17.765,17.765,0,0,1-1.1,4.848c-.512-.368-1.056-.7-1.568-1.024.288-1.184.608-2.5.9-3.824Zm.624-1.408-.272.032h-1.84c.224-1.056.448-2.1.624-3.056l-1.424-.16c-.16.992-.368,2.1-.592,3.216h-1.68v1.376h1.392c-.416,1.936-.848,3.808-1.232,5.152l1.216.656.16-.608c.448.288.88.608,1.312.928a6.871,6.871,0,0,1-2.752,2.816,5.082,5.082,0,0,1,.912,1.184,8.323,8.323,0,0,0,2.976-3.072,11.538,11.538,0,0,1,1.536,1.552l.9-1.184a11.438,11.438,0,0,0-1.776-1.68A21.649,21.649,0,0,0,179.04,8.92Zm9.472,3.152h-3.68V10.728a21,21,0,0,0,3.328-3.712l-.992-.72-.288.08h-6.56V7.752h5.488a14.687,14.687,0,0,1-1.92,2.16h-.544v2H178.9V13.32h3.568v5.168c0,.224-.08.3-.336.3-.272.016-1.136.016-2.064-.016a5.6,5.6,0,0,1,.544,1.456,7.423,7.423,0,0,0,2.624-.256c.544-.256.72-.672.72-1.488V13.32h3.68Zm8.192,3.52V17.32H192.1V15.432Zm1.408,3.056V14.264h-6.56v5.248H192.1V18.488ZM202.4,10.7c-1.456-.624-3.888-1.584-5.872-2.24l.064-.144h6.016V7h-5.68c.08-.432.128-.912.176-1.424h-1.536c-.048.512-.1,1.008-.176,1.424H189.92V8.312h5.024c-.688,1.248-2.128,1.936-5.264,2.3a3.706,3.706,0,0,1,.672,1.168c2.96-.4,4.592-1.1,5.536-2.224a53.3,53.3,0,0,1,5.408,2.208Zm1.008,1.088H189.12v1.328h10.672v5.456c0,.256-.1.32-.416.336-.3.016-1.44.016-2.528-.032a5.877,5.877,0,0,1,.56,1.408,10.8,10.8,0,0,0,3.072-.24c.624-.208.832-.64.832-1.456V13.112h2.1Zm12.144-.416a17.108,17.108,0,0,1,2.8,5.856l1.488-.72A16.949,16.949,0,0,0,216.9,10.68Zm-9.184-.112a12.243,12.243,0,0,1-1.712,5.664l1.376.8c1.088-1.536,1.552-4.016,1.792-6.176Zm2.832-4.48a24.088,24.088,0,0,1,5.376,2.864l.976-1.312A25.66,25.66,0,0,0,210.16,5.64Zm-.1,3.264v7.776c0,1.744.512,2.24,2.352,2.24h2.864c1.808,0,2.224-.88,2.416-3.888a3.985,3.985,0,0,1-1.376-.64c-.128,2.624-.272,3.168-1.152,3.168h-2.592c-.816,0-.976-.128-.976-.88V10.04Zm16.208-3.616-1.584.656c.752,1.712,1.552,3.52,2.288,4.864-1.632,1.152-2.72,2.464-2.72,4.16,0,2.56,2.272,3.44,5.36,3.44a30.546,30.546,0,0,0,5.088-.384l.016-1.824a23.837,23.837,0,0,1-5.168.576c-2.384,0-3.584-.736-3.584-1.984,0-1.168.9-2.176,2.3-3.1,1.52-.992,3.648-1.984,4.7-2.528.512-.256.96-.5,1.376-.752l-.88-1.456a8.872,8.872,0,0,1-1.28.848c-.832.464-2.416,1.248-3.824,2.1A37.384,37.384,0,0,1,225.312,6.424ZM243.5,6.312l-1.792-.1A6.775,6.775,0,0,1,241.7,7.48c-.032.416-.08.928-.16,1.5a15.569,15.569,0,0,1-3.408-.608l-.08,1.472a20.316,20.316,0,0,0,3.328.56c-.112.848-.224,1.744-.336,2.592a13.532,13.532,0,0,1-3.28-.64l-.08,1.536a17.494,17.494,0,0,0,3.2.544c-.064.72-.112,1.328-.112,1.744,0,2.656,1.776,3.664,4.1,3.664,3.312,0,5.456-1.568,5.456-3.968a5.579,5.579,0,0,0-1.6-3.76l-1.776.368a4.388,4.388,0,0,1,1.7,3.2c0,1.5-1.408,2.544-3.744,2.544-1.712,0-2.56-.848-2.56-2.3,0-.336.032-.832.08-1.392h.608c1.04,0,2.016-.064,2.992-.16l.048-1.5a25.552,25.552,0,0,1-3.28.192h-.224c.1-.832.208-1.744.32-2.576h.032a30.773,30.773,0,0,0,3.216-.16l.048-1.5a21.377,21.377,0,0,1-3.1.208c.08-.608.144-1.1.192-1.456C243.328,7.192,243.392,6.808,243.5,6.312ZM266.9,13.384a5.922,5.922,0,0,0-6.272-6.032,6.935,6.935,0,0,0-7.152,6.656c0,2.672,1.456,4.432,3.04,4.432s2.912-1.808,3.872-5.072a31.861,31.861,0,0,0,.96-4.5,4.254,4.254,0,0,1,3.872,4.464,4.6,4.6,0,0,1-3.872,4.544,9.888,9.888,0,0,1-1.424.224l.944,1.5C264.752,19.048,266.9,16.744,266.9,13.384Zm-11.808.464a5.348,5.348,0,0,1,4.56-4.944,25.475,25.475,0,0,1-.88,4.128c-.736,2.464-1.488,3.5-2.208,3.5C255.872,16.536,255.088,15.688,255.088,13.848Zm13.936-3.12.736,1.776c1.44-.608,5.376-2.288,7.9-2.288,2.048,0,3.2,1.232,3.2,2.848,0,3.056-3.6,4.32-7.84,4.432l.72,1.664c5.248-.272,8.9-2.336,8.9-6.08,0-2.8-2.176-4.384-4.928-4.384-2.352,0-5.536,1.152-6.832,1.552C270.288,10.424,269.616,10.616,269.024,10.728Zm11.408-4.416-1.024.432a22.149,22.149,0,0,1,1.28,2.224l1.04-.448A23.435,23.435,0,0,0,280.432,6.312Zm1.824-.672-1.024.432a16.735,16.735,0,0,1,1.312,2.208l1.04-.464A21.467,21.467,0,0,0,282.256,5.64Zm13.456,1.68-1.488-1.328a9.369,9.369,0,0,1-1.04,1.2c-1.088,1.072-3.408,2.928-4.64,3.952-1.52,1.264-1.68,2.032-.128,3.328,1.488,1.248,3.872,3.3,4.944,4.384.416.416.832.864,1.216,1.3l1.456-1.328c-1.664-1.664-4.576-3.984-5.936-5.1-.944-.816-.944-1.024-.032-1.808,1.136-.96,3.344-2.7,4.416-3.6C294.8,8.056,295.312,7.624,295.712,7.32Zm10.1-1.04-1.744-.08a13.9,13.9,0,0,1-.128,1.52,42.216,42.216,0,0,0-.464,5.152,20.114,20.114,0,0,0,.176,2.592l1.568-.112a7.411,7.411,0,0,1-.064-1.84c.144-2.112,1.92-4.992,3.872-4.992,1.52,0,2.368,1.632,2.368,4.128,0,3.968-2.624,5.264-6.128,5.808l.96,1.456c4.08-.752,6.864-2.8,6.864-7.264,0-3.44-1.616-5.584-3.792-5.584-1.936,0-3.472,1.712-4.176,3.168A30.967,30.967,0,0,1,305.808,6.28Zm11.2,8.16,1.5,1.552c.272-.368.64-.88.976-1.36.768-.944,2-2.64,2.7-3.52.512-.624.816-.736,1.44-.048.752.848,1.952,2.384,2.976,3.552,1.056,1.232,2.48,2.816,3.664,3.936l1.3-1.488c-1.472-1.312-2.976-2.9-3.968-3.984-.992-1.056-2.24-2.672-3.248-3.68-1.1-1.1-2.032-.976-3.04.192-.976,1.152-2.256,2.9-3.072,3.712A9.846,9.846,0,0,1,317.008,14.44ZM346.9,13.384a5.922,5.922,0,0,0-6.272-6.032,6.935,6.935,0,0,0-7.152,6.656c0,2.672,1.456,4.432,3.04,4.432s2.912-1.808,3.872-5.072a31.861,31.861,0,0,0,.96-4.5,4.254,4.254,0,0,1,3.872,4.464,4.6,4.6,0,0,1-3.872,4.544,9.889,9.889,0,0,1-1.424.224l.944,1.5C344.752,19.048,346.9,16.744,346.9,13.384Zm-11.808.464a5.348,5.348,0,0,1,4.56-4.944,25.472,25.472,0,0,1-.88,4.128c-.736,2.464-1.488,3.5-2.208,3.5C335.872,16.536,335.088,15.688,335.088,13.848ZM361.3,8.824H357.76V7.608H361.3Zm0,2.384H357.76V9.96H361.3Zm0,2.384H357.76V12.328H361.3Zm1.424-7.184H356.4v8.368h6.32Zm-7.888,8.912a28.917,28.917,0,0,1,2.128,2.3l1.088-.912c-.5-.576-1.472-1.52-2.192-2.192Zm-4.528,4.1a13.905,13.905,0,0,0,1.424-3.424l-1.312-.528a10.9,10.9,0,0,1-1.456,3.28Zm3.04-4.464V11.32c.656.56,1.424,1.264,1.808,1.664l.8-1.216c-.416-.3-2-1.456-2.608-1.824V9.176h2.4V7.912h-2.4V5.624h-1.408V7.912h-2.768V9.176H351.7a9.961,9.961,0,0,1-2.912,3.856,6.118,6.118,0,0,1,.976,1.056,10.365,10.365,0,0,0,2.176-2.864v3.744ZM355.2,18.6c-.912,0-1.072-.064-1.072-.5V15.736h-1.472V18.12c0,1.408.5,1.808,2.416,1.808h3.12c1.568,0,1.984-.5,2.192-2.608a4.165,4.165,0,0,1-1.344-.544c-.1,1.6-.208,1.824-.96,1.824Zm5.1-2.768a37.186,37.186,0,0,1,1.872,3.264l1.376-.7c-.416-.816-1.3-2.176-1.952-3.168Zm7.76-8.112-1.952-.032a8.188,8.188,0,0,1,.128,1.5c0,.96.016,2.88.176,4.288.432,4.208,1.92,5.744,3.536,5.744,1.168,0,2.16-.944,3.168-3.68l-1.264-1.488c-.368,1.456-1.072,3.2-1.872,3.2-1.072,0-1.728-1.7-1.968-4.208a35.826,35.826,0,0,1-.112-3.6A13.094,13.094,0,0,1,368.064,7.72Zm8.192.4-1.584.528c1.616,1.92,2.528,5.472,2.8,8.224l1.648-.64A17.428,17.428,0,0,0,376.256,8.12Zm4.7.16.16,1.744c1.792-.384,5.52-.768,7.136-.928a6.418,6.418,0,0,0-2.72,5.2c0,3.52,3.28,5.2,6.416,5.36l.576-1.712c-2.64-.112-5.36-1.088-5.36-4A5.305,5.305,0,0,1,390.7,9.128a15.419,15.419,0,0,1,3.12-.224V7.288c-1.1.032-2.7.128-4.416.272-2.944.256-5.792.528-6.96.64C382.128,8.232,381.568,8.264,380.96,8.28Zm10.56,2.4-.96.416a15.127,15.127,0,0,1,1.28,2.24l.992-.448A22.336,22.336,0,0,0,391.52,10.68Zm1.776-.688-.96.432a15.015,15.015,0,0,1,1.344,2.208l.976-.464A23.108,23.108,0,0,0,393.3,9.992ZM52,36.008c-.112,2.112-.016,9.536-6.416,12.944a5.093,5.093,0,0,1,1.232,1.168,13.281,13.281,0,0,0,6.16-8.64c.832,3.088,2.608,6.752,6.48,8.624a4.82,4.82,0,0,1,1.136-1.248c-5.984-2.752-6.816-9.936-6.96-12.064.032-.288.032-.56.048-.784ZM73.536,39.4l-.288.064h-5.12c.416-.928.768-1.872,1.072-2.768l-1.664-.384a19.944,19.944,0,0,1-4.992,8.672,9.627,9.627,0,0,1,1.424.864,18.572,18.572,0,0,0,3.44-4.864h5.04a22.044,22.044,0,0,1-2.528,4.448,28.868,28.868,0,0,0-2.688-1.392l-.944,1.248a22.369,22.369,0,0,1,6.064,4.08l1.056-1.424A13.134,13.134,0,0,0,71.3,46.28a25.858,25.858,0,0,0,3.376-6.256Zm11.056-3.136-1.664-.128a7.968,7.968,0,0,1-.368,1.9c-.32.016-.64.016-.944.016a20.681,20.681,0,0,1-2.752-.176v1.5c.9.064,2,.1,2.672.1H82a16.076,16.076,0,0,1-3.616,4.672l1.376,1.024a17.4,17.4,0,0,1,1.456-1.712,4.078,4.078,0,0,1,2.656-1.152,1.288,1.288,0,0,1,1.312.8c-1.856.944-3.776,2.192-3.776,4.16,0,1.984,1.856,2.544,4.24,2.544a40.743,40.743,0,0,0,4.448-.288l.048-1.616a27.245,27.245,0,0,1-4.448.416c-1.616,0-2.656-.224-2.656-1.312,0-.944.864-1.68,2.24-2.432-.016.784-.032,1.7-.064,2.256h1.52c-.016-.768-.032-2.048-.048-2.96,1.12-.512,2.16-.928,2.976-1.248.48-.192,1.168-.448,1.632-.592l-.656-1.472c-.512.256-.976.464-1.52.7-.752.352-1.568.688-2.56,1.152a2.106,2.106,0,0,0-2.144-1.36,4.7,4.7,0,0,0-2.048.48A12.839,12.839,0,0,0,83.6,39.432a49.437,49.437,0,0,0,5.264-.416V37.528a36.887,36.887,0,0,1-4.7.464C84.368,37.3,84.5,36.712,84.592,36.264Zm22.656,2.048-1.232-.784a5.835,5.835,0,0,1-1.232.1H96.816c-.7,0-1.36-.016-1.808-.048.032.384.064.8.064,1.184v3.408c0,.352-.032.72-.064,1.152h1.84a11.231,11.231,0,0,1-.048-1.152V39.192h8.32a11.967,11.967,0,0,1-1.488,5.12,10.107,10.107,0,0,1-5.92,3.968L99.1,49.7a11.514,11.514,0,0,0,6.064-4.544,15.622,15.622,0,0,0,1.824-5.968A4.921,4.921,0,0,1,107.248,38.312Zm10.64-1.76-1.856-.608a7.093,7.093,0,0,1-.592,1.44,13.578,13.578,0,0,1-5.024,5.3l1.408,1.056a16.709,16.709,0,0,0,4.064-3.92h4.992a12.015,12.015,0,0,1-2.432,4.72,12.82,12.82,0,0,1-6.416,4l1.488,1.328a14.418,14.418,0,0,0,6.4-4.432,15.835,15.835,0,0,0,2.816-5.44,5.476,5.476,0,0,1,.448-.976l-1.312-.8a3.758,3.758,0,0,1-1.2.16h-3.84c.08-.128.16-.272.224-.4C117.232,37.656,117.568,37.032,117.888,36.552Zm21.36,1.76-1.232-.784a5.835,5.835,0,0,1-1.232.1h-7.968c-.7,0-1.36-.016-1.808-.048.032.384.064.8.064,1.184v3.408c0,.352-.032.72-.064,1.152h1.84a11.229,11.229,0,0,1-.048-1.152V39.192h8.32a11.967,11.967,0,0,1-1.488,5.12,10.107,10.107,0,0,1-5.92,3.968L131.1,49.7a11.514,11.514,0,0,0,6.064-4.544,15.622,15.622,0,0,0,1.824-5.968A4.921,4.921,0,0,1,139.248,38.312Zm10.64-1.76-1.856-.608a7.093,7.093,0,0,1-.592,1.44,13.578,13.578,0,0,1-5.024,5.3l1.408,1.056a16.709,16.709,0,0,0,4.064-3.92h4.992a12.015,12.015,0,0,1-2.432,4.72,12.82,12.82,0,0,1-6.416,4l1.488,1.328a14.418,14.418,0,0,0,6.4-4.432,15.836,15.836,0,0,0,2.816-5.44,5.476,5.476,0,0,1,.448-.976l-1.312-.8a3.758,3.758,0,0,1-1.2.16h-3.84c.08-.128.16-.272.224-.4C149.232,37.656,149.568,37.032,149.888,36.552Zm15.408,1.1c.112.32.256.736.416,1.232a33.012,33.012,0,0,1-6.256-.208l.032,1.616a42.074,42.074,0,0,0,6.784.048,22.019,22.019,0,0,0,1.744,3.328c-.544-.064-1.68-.16-2.528-.224l-.112,1.328a38.368,38.368,0,0,1,4.032.48l.8-1.152a7.58,7.58,0,0,1-.768-.944,17.829,17.829,0,0,1-1.648-2.976,27.574,27.574,0,0,0,3.12-.624l-.192-1.6a19.769,19.769,0,0,1-3.456.768,17.4,17.4,0,0,1-.688-2.64l-1.728.208C165.024,36.776,165.184,37.3,165.3,37.656Zm-3.04,6.272-1.584-.352a6.28,6.28,0,0,0-.8,2.8c0,2.224,1.984,3.392,5.12,3.408a21.853,21.853,0,0,0,4.208-.352l.08-1.6a20.232,20.232,0,0,1-4.192.384c-2.3-.016-3.6-.64-3.6-2.08A4.049,4.049,0,0,1,162.256,43.928Zm22.8-7.36h-1.712a10.569,10.569,0,0,1,.112,1.312v2.08c-1.6.144-3.344.3-4.816.448.016-.768.016-1.44.016-1.888a12.639,12.639,0,0,1,.08-1.456H176.96a9.505,9.505,0,0,1,.112,1.536v1.952c-.672.064-1.2.112-1.552.144-.672.064-1.328.1-1.808.1l.176,1.632c.416-.064,1.248-.176,1.744-.24.352-.048.848-.1,1.44-.16,0,1.536,0,3.184.016,3.872.064,2.64.48,3.5,4.368,3.5a45.037,45.037,0,0,0,4.624-.272l.048-1.712a29.867,29.867,0,0,1-4.768.4c-2.608,0-2.672-.512-2.72-2.16-.032-.656-.016-2.24,0-3.808,1.488-.16,3.232-.32,4.784-.448a22.8,22.8,0,0,1-.16,2.32c-.032.352-.192.416-.56.416a9.321,9.321,0,0,1-1.536-.208l-.032,1.392a18.846,18.846,0,0,0,2.24.24c.768,0,1.136-.208,1.3-.976a24.371,24.371,0,0,0,.24-3.3c.592-.032,1.12-.064,1.536-.064.416-.016,1.12-.032,1.392-.016V39.64c-.416.032-.96.08-1.376.1-.448.032-.976.064-1.52.112.016-.64.016-1.328.032-2.016A9.508,9.508,0,0,1,185.056,36.568Zm10,10.656a1.063,1.063,0,0,1,1.168-.912,1.965,1.965,0,0,1,1.888,1.984,8.526,8.526,0,0,1-1.136.064C195.84,48.36,195.056,47.928,195.056,47.224ZM192.72,37.032l.048,1.648c.368-.048.784-.08,1.184-.1.832-.048,3.6-.176,4.448-.208-.8.7-2.656,2.24-3.552,2.976-.944.784-2.944,2.464-4.192,3.488l1.168,1.184c1.888-2.016,3.392-3.216,5.952-3.216,2,0,3.472,1.088,3.472,2.592a2.6,2.6,0,0,1-1.7,2.512,3.158,3.158,0,0,0-3.328-2.8,2.432,2.432,0,0,0-2.64,2.256c0,1.456,1.472,2.432,3.68,2.432,3.6,0,5.632-1.824,5.632-4.368,0-2.24-1.984-3.888-4.656-3.888a6.629,6.629,0,0,0-1.92.272c1.136-.928,3.1-2.592,3.92-3.2.336-.256.672-.48,1.008-.688l-.88-1.152a4.771,4.771,0,0,1-1.024.144c-.864.08-4.512.176-5.344.176A11.621,11.621,0,0,1,192.72,37.032Zm15.472.112v1.648c.432-.032,1.024-.064,1.568-.064h5.392c.512,0,1.088.032,1.6.064V37.144a13.418,13.418,0,0,1-1.6.1h-5.408A12.065,12.065,0,0,1,208.192,37.144ZM206.3,41.192v1.664c.448-.032.976-.048,1.456-.048h4.624a7.4,7.4,0,0,1-.96,3.776,6.663,6.663,0,0,1-2.96,2.384l1.472,1.088a7.824,7.824,0,0,0,3.184-2.992,9.821,9.821,0,0,0,.992-4.256h4.128c.416,0,.96.016,1.344.032V41.192a10.208,10.208,0,0,1-1.344.08H207.76A14.021,14.021,0,0,1,206.3,41.192Zm11.328-5.264-1.024.432a19.1,19.1,0,0,1,1.264,2.208l1.056-.448A23.186,23.186,0,0,0,217.632,35.928Zm1.808-.688-1.024.432a16.058,16.058,0,0,1,1.312,2.208l1.04-.464A20.388,20.388,0,0,0,219.44,35.24Zm14.5,1.456-.912.288a19.487,19.487,0,0,1,.88,2.224l.928-.32A21.711,21.711,0,0,0,233.936,36.7Zm1.616-.512-.912.288a18.427,18.427,0,0,1,.9,2.224l.928-.3A18.863,18.863,0,0,0,235.552,36.184ZM232.48,42.04V41.5h1.5c.768,0,1.344.016,1.584.048v-1.7a10.632,10.632,0,0,1-1.6.1H232.48V38.088c0-.64.064-1.168.08-1.392h-1.808a11.048,11.048,0,0,1,.08,1.392v1.856h-4.208V38.1a9.844,9.844,0,0,1,.08-1.3h-1.792a11.945,11.945,0,0,1,.08,1.28v1.856h-1.568a12.128,12.128,0,0,1-1.664-.128v1.728c.256-.016.912-.048,1.664-.048h1.568v2.4a14.223,14.223,0,0,1-.08,1.552h1.776c-.016-.224-.064-.912-.064-1.552V41.5h4.208v.64c0,4.24-1.408,5.616-4.4,6.72l1.36,1.264C231.536,48.456,232.48,46.168,232.48,42.04Zm5.776.992.784,1.584a32.736,32.736,0,0,0,5.9-2.48V47.7a18.539,18.539,0,0,1-.1,1.888h1.984a12.032,12.032,0,0,1-.112-1.888v-6.64a26.991,26.991,0,0,0,4.3-3.5l-1.344-1.28a19.75,19.75,0,0,1-4.448,3.808A26.421,26.421,0,0,1,238.256,43.032Zm18.512-5.952L255.6,38.328a34.7,34.7,0,0,1,4,3.392l1.264-1.3A33.575,33.575,0,0,0,256.768,37.08Zm-1.648,10.7,1.072,1.648a17.641,17.641,0,0,0,6.128-2.384,16.36,16.36,0,0,0,5.616-5.792l-.976-1.744a15.234,15.234,0,0,1-5.552,6.032A16.625,16.625,0,0,1,255.12,47.784Zm21.472-11.52-1.664-.128a7.968,7.968,0,0,1-.368,1.9c-.32.016-.64.016-.944.016a20.681,20.681,0,0,1-2.752-.176v1.5c.9.064,2,.1,2.672.1H274a16.076,16.076,0,0,1-3.616,4.672l1.376,1.024a17.4,17.4,0,0,1,1.456-1.712,4.078,4.078,0,0,1,2.656-1.152,1.288,1.288,0,0,1,1.312.8c-1.856.944-3.776,2.192-3.776,4.16,0,1.984,1.856,2.544,4.24,2.544a40.743,40.743,0,0,0,4.448-.288l.048-1.616a27.245,27.245,0,0,1-4.448.416c-1.616,0-2.656-.224-2.656-1.312,0-.944.864-1.68,2.24-2.432-.016.784-.032,1.7-.064,2.256h1.52c-.016-.768-.032-2.048-.048-2.96,1.12-.512,2.16-.928,2.976-1.248.48-.192,1.168-.448,1.632-.592l-.656-1.472c-.512.256-.976.464-1.52.7-.752.352-1.568.688-2.56,1.152a2.106,2.106,0,0,0-2.144-1.36,4.7,4.7,0,0,0-2.048.48,12.839,12.839,0,0,0,1.232-2.112,49.437,49.437,0,0,0,5.264-.416V37.528a36.887,36.887,0,0,1-4.7.464C276.368,37.3,276.5,36.712,276.592,36.264Zm12.832-.624a17.8,17.8,0,0,1-3.808,6.176,8.963,8.963,0,0,1,.832,1.536,14.463,14.463,0,0,0,1.312-1.568v8.448h1.5v-10.8a25.443,25.443,0,0,0,1.584-3.344Zm10.992,3.984V38.2h-6.432c.3-.672.576-1.376.832-2.064l-1.424-.384a17,17,0,0,1-3.456,6.08,8.957,8.957,0,0,1,1.152,1.008,16.56,16.56,0,0,0,2.176-3.216h.9V50.248h1.52V46.536h4.576V45.144H295.68V43.016h4.352v-1.36H295.68V39.624Zm6.192-3.344-1.744-.08a13.9,13.9,0,0,1-.128,1.52,42.216,42.216,0,0,0-.464,5.152,20.114,20.114,0,0,0,.176,2.592l1.568-.112a7.411,7.411,0,0,1-.064-1.84c.144-2.112,1.92-4.992,3.872-4.992,1.52,0,2.368,1.632,2.368,4.128,0,3.968-2.624,5.264-6.128,5.808l.96,1.456c4.08-.752,6.864-2.8,6.864-7.264,0-3.44-1.616-5.584-3.792-5.584-1.936,0-3.472,1.712-4.176,3.168A30.967,30.967,0,0,1,306.608,36.28Zm19.552,8.864L324.672,45a9.4,9.4,0,0,0-.272,2c0,1.584,1.408,2.432,4.016,2.432a24.705,24.705,0,0,0,3.168-.224l.048-1.616a18.081,18.081,0,0,1-3.2.32c-2.048,0-2.48-.656-2.48-1.376A5.874,5.874,0,0,1,326.16,45.144Zm-1.824-8.816-1.92-.144a6.547,6.547,0,0,1-.064,1.44c-.032.3-.112.72-.192,1.2-.56.048-1.1.064-1.6.064a15.078,15.078,0,0,1-1.952-.128l.032,1.568c.576.048,1.168.064,1.9.064.4,0,.832-.016,1.3-.032-.128.528-.256,1.056-.384,1.552a37,37,0,0,1-2.72,7.168l1.744.592a48.334,48.334,0,0,0,2.528-7.36c.176-.672.352-1.408.512-2.1a28.67,28.67,0,0,0,3.216-.544V38.088a28.076,28.076,0,0,1-2.9.56c.08-.352.144-.672.192-.944C324.1,37.384,324.24,36.728,324.336,36.328Zm1.264,4.864V42.68a26.927,26.927,0,0,1,3.024-.176,20.219,20.219,0,0,1,2.72.208l.048-1.536a27.119,27.119,0,0,0-2.8-.128C327.568,41.048,326.464,41.112,325.6,41.192Zm11.264-3.472-1.952-.032a8.188,8.188,0,0,1,.128,1.5c0,.96.016,2.88.176,4.288.432,4.208,1.92,5.744,3.536,5.744,1.168,0,2.16-.944,3.168-3.68l-1.264-1.488c-.368,1.456-1.072,3.2-1.872,3.2-1.072,0-1.728-1.7-1.968-4.208a35.826,35.826,0,0,1-.112-3.6A13.094,13.094,0,0,1,336.864,37.72Zm8.192.4-1.584.528c1.616,1.92,2.528,5.472,2.8,8.224l1.648-.64A17.428,17.428,0,0,0,345.056,38.12Zm4.7.16.16,1.744c1.792-.384,5.52-.768,7.136-.928a6.418,6.418,0,0,0-2.72,5.2c0,3.52,3.28,5.2,6.416,5.36l.576-1.712c-2.64-.112-5.36-1.088-5.36-4a5.305,5.305,0,0,1,3.536-4.816,15.419,15.419,0,0,1,3.12-.224V37.288c-1.1.032-2.7.128-4.416.272-2.944.256-5.792.528-6.96.64C350.928,38.232,350.368,38.264,349.76,38.28Zm10.56,2.4-.96.416a15.127,15.127,0,0,1,1.28,2.24l.992-.448A22.336,22.336,0,0,0,360.32,40.68Zm1.776-.688-.96.432a15.015,15.015,0,0,1,1.344,2.208l.976-.464A23.108,23.108,0,0,0,362.1,39.992Zm12.688-3.76h-1.84c.032.16.08.656.128,1.168.016.192.016.464.032.816-2.288.032-5.264.112-7.072.144l.048,1.536c1.984-.128,4.608-.224,7.04-.256,0,.464.016.944.016,1.36a3.2,3.2,0,0,0-.9-.112,2.89,2.89,0,0,0-2.976,2.88,2.672,2.672,0,0,0,2.688,2.784,2.506,2.506,0,0,0,1.12-.24c-.768,1.232-2.24,1.936-4.128,2.352l1.36,1.344c3.792-1.1,4.928-3.616,4.928-5.744a3.941,3.941,0,0,0-.56-2.128c0-.72,0-1.648-.016-2.512,2.32,0,3.84.032,4.784.08l.032-1.5h-4.8c0-.32,0-.608.016-.8A9.323,9.323,0,0,1,374.784,36.232Zm-4.016,7.5a1.442,1.442,0,0,1,1.456-1.5,1.319,1.319,0,0,1,1.248.768c.208,1.5-.416,2.16-1.248,2.16A1.4,1.4,0,0,1,370.768,43.736Zm11.3,1.328a2.5,2.5,0,1,0,0,5.008,2.5,2.5,0,0,0,0-5.008Zm0,4.048a1.536,1.536,0,1,1,1.536-1.536A1.536,1.536,0,0,1,382.064,49.112Z" transform="translate(480 4639)" fill="#2c2d48"/>
    <path id="パス_47" data-name="パス 47" d="M27.944,9.912H24.83V11.64h8.658V9.912h-3.42V8.832h3.96V7.1h-3.96V5.754H27.944V7.1H24.236V8.832h3.708ZM25.928,14.2h6.246V15.96h1.98V12.522H24.038V15.96h1.89ZM23.336,6.312H18.494v1.62h4.842Zm.576,2.412H17.594v1.692h6.318Zm-.54,2.5H18.386v1.638h4.986Zm-4.986,4.068h4.986v-1.6H18.386Zm3.258,4.626H20.078V17.85h1.566Zm1.764-3.744H18.332v6.138h1.746v-.72h3.33v-.54A6.178,6.178,0,0,1,24.47,22.62c3.33-1.386,3.816-3.816,3.96-7.578h-2c-.108,3.006-.36,4.752-3.024,5.8Zm8.478,4.392c-.27,0-.306-.054-.306-.576V15.06H29.6v4.95c0,1.818.36,2.412,1.926,2.412h1.206c1.3,0,1.764-.684,1.944-3.348a5.623,5.623,0,0,1-1.764-.792c-.036,2-.108,2.286-.4,2.286Zm16.056-2.43v.648h-7.7v-.648Zm-7.7,2.592v-.7h7.7v.7Zm-2.07,1.89h2.07v-.54h7.7V22.6H50.1V16.77H38.168Zm6.822-12.4h2.9V10.9h-2.9Zm0-2.142h2.9v.666h-2.9Zm5.022,4.068V10.218h2.052V8.742H50.012V6.834H44.99V5.7H42.848V6.834H37.772V8.076h5.076v.666H35.936v1.476h6.912V10.9H37.574v1.242h5.274v.63h-5.67v1.3h5.67v.648h-6.93v1.494H52.064V14.718H44.99V14.07h5.76v-1.3H44.99v-.63Z" transform="translate(445 4929)" fill="#2c2d48"/>
    <g id="グループ_48" data-name="グループ 48" transform="translate(-35 -10)">
      <circle id="楕円形_13" data-name="楕円形 13" cx="85" cy="85" r="85" transform="translate(430 4745)" fill="#fff"/>
      <g id="layer1" transform="translate(458.658 4777.573)">
        <path id="path1197" d="M368.41,686.659c-1.712-.362-39.606-15.82-45.379-18.511-3.693-1.721-5.1-5.868-4.373-12.855a27.392,27.392,0,0,1,1.4-6.822,2.024,2.024,0,0,0-.212-2.663c-1.393-1.395-1.418-15.6-.03-16.991.757-.757.671-1.822-.341-4.241-1.589-3.8-1.04-13.425.936-16.425,1.524-2.313,60.258-26.244,64.412-26.244,2.923,0,42.964,16.163,45.1,18.206,1.027.982,1.246,6.561,1.232,31.429-.01,17.207-.369,30.587-.833,31.051-.838.838-53.944,22.664-57.925,23.806a9.957,9.957,0,0,1-3.988.261Zm33.678-17c12.186-4.98,22.655-9.257,23.264-9.5.746-.3,1.108-2.589,1.108-7,0-3.6-.18-6.552-.4-6.552s-12.611,4.985-27.534,11.078-27.705,11.078-28.4,11.078c-1,0-1.269,1.528-1.269,7.082v7.082l5.539-2.1C377.438,679.662,389.9,674.64,402.087,669.659Zm-36.078,4.7-.259-6.811L345.4,659.264c-11.19-4.553-20.908-8.064-21.594-7.8-.95.365-1.161,1.845-.884,6.194.2,3.143.568,5.919.817,6.168.722.722,40.112,17.136,41.38,17.243.865.073,1.082-1.567.886-6.715ZM397.5,651.4c15.2-6.137,27.953-11.46,28.341-11.829s.588-3.5.443-6.951l-.263-6.28L398.985,637.27c-14.867,6.012-27.729,11.158-28.582,11.434-1.3.419-1.551,1.6-1.551,7.177,0,3.671.227,6.675.5,6.675S382.3,657.534,397.5,651.4Zm-31.656-3.672c-.238-.238-9.69-4.2-21-8.805-15.871-6.459-20.739-8.107-21.306-7.213-.9,1.413-.884,8.507.017,10.806.452,1.152,7.1,4.331,21.429,10.244l20.773,8.574.261-6.586c.143-3.622.066-6.781-.172-7.019Zm34.032-17.073c13.4-5.472,24.871-10.147,25.48-10.389.747-.3,1.108-2.574,1.108-6.991,0-3.6-.2-6.552-.436-6.552s-12.662,4.985-27.6,11.078-27.707,11.078-28.367,11.078c-.908,0-1.2,1.714-1.2,7.051v7.051l3.323-1.188C374,641.137,386.467,636.125,399.872,630.653Zm-33.862,3.8-.259-6.831-20.346-8.26c-11.19-4.543-20.862-8.062-21.492-7.82-1.189.456-1.573,7.23-.613,10.809.4,1.508,4.69,3.624,21.036,10.385,11.291,4.67,20.844,8.5,21.23,8.519s.585-3.045.443-6.8Z" transform="translate(-318.472 -581.906)" fill="#2c2d48"/>
      </g>
    </g>
    <path id="パス_49" data-name="パス 49" d="M9.206,16.284a13.119,13.119,0,0,1-.918,4.176,9.554,9.554,0,0,1,1.494.72,15.237,15.237,0,0,0,1.062-4.626Zm2.484-2.862c.324-.414.63-.864.954-1.332a11.214,11.214,0,0,1,.54,1.242Zm2.07,1.638a10.048,10.048,0,0,1,.234,1.026l1.494-.648a15.959,15.959,0,0,0-1.44-3.924l-1.4.576c.792-1.134,1.566-2.34,2.232-3.438l-1.692-.774c-.414.882-.954,1.926-1.548,2.934a9.268,9.268,0,0,0-.576-.738c.63-1.008,1.368-2.43,2.016-3.672l-1.818-.63A22.266,22.266,0,0,1,9.962,8.9c-.144-.144-.288-.288-.432-.414L8.5,9.876a15.26,15.26,0,0,1,2.088,2.61c-.234.36-.486.72-.72,1.044-.522.018-.99.054-1.422.072l.216,1.854,2.376-.18v7.29h1.8V15.132Zm8.784,4.284H23.3v1.368c0,.144-.036.18-.126.18-.126,0-.36,0-.63-.018Zm-2.088-1.512V16.32h.774v1.512Zm-2.016,0V16.32h.72v1.512ZM23.3,16.32v1.512h-.756V16.32Zm-.666-5.256v1.188H17.486V11.064Zm2.412,3.654h-7.6c.018-.27.018-.522.018-.774h7.218V9.372H15.614V13.1a21.4,21.4,0,0,1-.54,5.382,12.833,12.833,0,0,0-.738-2.268l-1.4.414a14.139,14.139,0,0,1,.828,3.312l.954-.306a7.63,7.63,0,0,1-.864,1.71,6.958,6.958,0,0,1,1.566,1.134,11.222,11.222,0,0,0,1.548-3.888v3.978H18.44V19.344h.72v3.078h1.3V19.344h.774v3.078h1.314V20.946a7,7,0,0,1,.5,1.62,2.431,2.431,0,0,0,1.494-.342c.432-.306.5-.774.5-1.476Zm-10.1-7.956V8.58H25.1V6.762Zm14.9.612.09,2.322c.468-.072,1.1-.126,1.458-.144.828-.054,2.376-.108,3.1-.144-.414.846-.936,2.07-1.44,3.258-3.618.162-6.156,2.286-6.156,5.076a2.7,2.7,0,0,0,2.772,2.916,3.137,3.137,0,0,0,2.808-1.584,35.38,35.38,0,0,0,2.034-4.32,12.48,12.48,0,0,1,4.266,1.458,7.754,7.754,0,0,1-4.572,4.518L36.116,22.3a9,9,0,0,0,4.572-4.878,18.768,18.768,0,0,1,1.548,1.26l1.044-2.5c-.522-.36-1.17-.774-1.926-1.206a29.232,29.232,0,0,0,.342-3.33l-2.358-.27a11.856,11.856,0,0,1,0,1.962c-.018.2-.036.4-.054.612a16.2,16.2,0,0,0-3.906-1.152,38.352,38.352,0,0,1,1.8-3.87,4.339,4.339,0,0,1,.612-.756L36.35,7.05a3.867,3.867,0,0,1-1.224.252c-.846.072-2.754.162-3.78.162C30.95,7.464,30.338,7.428,29.852,7.374ZM29.006,17.4c0-1.134,1.134-2.358,3.15-2.664A20.158,20.158,0,0,1,30.7,17.67c-.324.45-.576.63-.936.63C29.348,18.3,29.006,17.994,29.006,17.4Zm22.356-3.708-1.656.468v-2.9H51.2V9.228H49.706V5.772H47.744V9.228H46.9c.108-.72.2-1.422.27-2.142L45.386,6.78a22.5,22.5,0,0,1-1.026,5.8,15.661,15.661,0,0,1,1.512.99,16.359,16.359,0,0,0,.666-2.3h1.206V14.7c-1.224.342-2.322.63-3.222.828l.522,2.034c.828-.216,1.728-.5,2.7-.792v5.814h1.962V16.176c.666-.2,1.3-.414,1.944-.594Zm3.2-5.148c.252-.792.486-1.6.666-2.43l-1.944-.36a14.9,14.9,0,0,1-2.952,6.786,12.214,12.214,0,0,1,1.62,1.206,13.4,13.4,0,0,0,1.854-3.222h.918c-.792,2.61-2.2,5.274-3.978,6.678a7.565,7.565,0,0,1,1.638,1.206c1.818-1.728,3.33-4.95,4.122-7.884h.846c-.9,4.212-2.7,8.3-5.58,10.368a7.986,7.986,0,0,1,1.746,1.242c2.9-2.394,4.752-7.074,5.634-11.61h.09c-.288,6.462-.612,8.91-1.062,9.486a.752.752,0,0,1-.666.342,14.6,14.6,0,0,1-1.6-.072,5.984,5.984,0,0,1,.594,2.088,10.292,10.292,0,0,0,2.034-.054,1.972,1.972,0,0,0,1.4-.936c.684-.9,1.008-3.834,1.35-11.862.018-.252.036-.972.036-.972Z" transform="translate(885 4929)" fill="#2c2d48"/>
    <path id="パス_46" data-name="パス 46" d="M-80.592-9.92h-4.016v-3.408h-1.184V-9.92H-88.24v1.152h2.448v.1A11.438,11.438,0,0,1-87.728-1.52,19.806,19.806,0,0,0-89.28-5.152l-1.008.448a19.832,19.832,0,0,1,1.024,2.288c-1.168.192-2.336.4-3.408.576a73,73,0,0,0,4.4-7.488l-1.216-.416c-.448,1.024-1.024,2.176-1.664,3.328A16.269,16.269,0,0,0-92.72-8.128,51.209,51.209,0,0,0-90.3-12.816l-1.232-.432A31.868,31.868,0,0,1-93.52-8.9c-.3-.272-.592-.528-.88-.768l-.672.992a20.916,20.916,0,0,1,3.248,3.44c-.784,1.328-1.6,2.608-2.336,3.616l-1.008.16.208,1.184c1.648-.272,3.888-.672,6.064-1.04A4.709,4.709,0,0,1-88.7-.48l.128-.064a9.134,9.134,0,0,1-1.088.96,5.833,5.833,0,0,1,.928.816c3.616-2.8,4.128-6.512,4.128-9.9v-.1h2.816c-.16,5.856-.384,8.016-.8,8.512a.6.6,0,0,1-.608.24c-.32,0-1.088,0-1.952-.08a2.7,2.7,0,0,1,.336,1.152,15.941,15.941,0,0,0,2.128.016A1.364,1.364,0,0,0-81.552.448c.544-.7.736-2.992.96-9.76Zm4.48-1.248-1.552-.032a7.217,7.217,0,0,1,.112,1.424c0,.928.032,2.88.176,4.272C-76.944-1.36-75.488.144-73.968.144-72.9.144-71.92-.784-70.96-3.5L-71.968-4.64c-.416,1.6-1.168,3.264-1.984,3.264-1.136,0-1.92-1.776-2.176-4.448-.112-1.328-.128-2.784-.112-3.792A12.182,12.182,0,0,1-76.112-11.168Zm8.336.448-1.248.432c1.536,1.872,2.5,5.152,2.784,8.048l1.28-.528A17.2,17.2,0,0,0-67.776-10.72ZM-50.128-7.6h-5.248V-9.136h5.248Zm0,2.416h-5.248V-6.752h5.248Zm0,2.448h-5.248V-4.3h5.248Zm-6.352-7.328v8.256h7.5v-8.256H-52.72c.176-.48.352-1.024.512-1.552h3.728V-12.64h-8.832v1.024h3.76c-.1.5-.224,1.072-.352,1.552Zm-3.968,7.216c-.448,0-.528-.1-.528-.688V-7.1a28.49,28.49,0,0,0,3.44-2.416l-.864-.816a24.58,24.58,0,0,1-2.576,2.064v-4.64h-1.152v9.36c0,1.456.336,1.84,1.536,1.84H-58.8c1.136,0,1.424-.736,1.552-3.12a3.243,3.243,0,0,1-1.072-.48c-.048,2.016-.112,2.464-.576,2.464Zm5.616,1.312A12.169,12.169,0,0,1-58.624.352a8.945,8.945,0,0,1,.752.848A14.96,14.96,0,0,0-53.808-.88Zm2.64.7a20.519,20.519,0,0,1,3.168,2.064l.928-.72a19.467,19.467,0,0,0-3.216-1.984Zm11.52-11.648-1.488-.16a16.717,16.717,0,0,1-.416,3.488c-.96.08-1.9.16-2.432.176a14.09,14.09,0,0,1-1.424,0l.128,1.392c.416-.064,1.072-.144,1.44-.192.416-.048,1.184-.144,2.032-.224A25.613,25.613,0,0,1-46.208-.016L-44.9.5a32.912,32.912,0,0,0,3.36-8.624c.7-.064,1.344-.112,1.728-.112,1.008,0,1.7.272,1.7,1.744a13.552,13.552,0,0,1-.768,4.9,1.322,1.322,0,0,1-1.392.816A7.785,7.785,0,0,1-42.24-1.1l.208,1.328a8.7,8.7,0,0,0,1.888.24A2.253,2.253,0,0,0-37.808-.88a15.2,15.2,0,0,0,.928-5.776c0-2.16-1.168-2.7-2.592-2.7-.384,0-1.056.048-1.808.112.176-.88.32-1.824.416-2.288C-40.8-11.84-40.736-12.192-40.672-12.48Zm5.5,1.7-1.168.528a18.8,18.8,0,0,1,2.848,5.792l1.248-.592A28.457,28.457,0,0,0-35.168-10.784Zm8.848-1.76-.32,1.216c1.216.336,4.688,1.04,6.208,1.248l.3-1.232A43.7,43.7,0,0,1-26.32-12.544Zm-.352,2.912-1.344-.176a57.131,57.131,0,0,1-.816,6.5l1.184.288a2.527,2.527,0,0,1,.48-.8,6.271,6.271,0,0,1,4.96-2.144c1.632,0,2.816.912,2.816,2.192,0,2.192-2.464,3.648-7.52,3.024L-26.528.56c5.952.5,8.48-1.44,8.48-4.3,0-1.872-1.632-3.344-4.08-3.344a7.68,7.68,0,0,0-5.216,1.952C-27.168-6.16-26.9-8.544-26.672-9.632ZM-5.6-9.456H-8.7v1.008h7.6V-9.456H-4.416v-1.488H-.64v-1.008H-4.416v-1.44H-5.6v1.44H-9.216v1.008H-5.6ZM-8.208-6.32H-1.68v1.84h1.1V-7.3h-8.7V-4.48h1.072ZM-10.1-12.832H-14.24v.96H-10.1Zm.48,2.1h-5.392v.976h5.392ZM-11.04-3.344V-.672h-2.3V-3.344Zm1.008-.976h-4.32V1.04h1.008V.288h3.312Zm-4.3-1.184h4.3v-.96h-4.3Zm0-2.128h4.3v-.944h-4.3Zm7.408,2.368C-7.056-2.272-7.424-.608-9.984.3a4.1,4.1,0,0,1,.688.928c2.816-1.1,3.344-3.1,3.488-6.5ZM-2.7-.032c-.336,0-.384-.048-.384-.448V-5.264h-1.1V-.48c0,1.168.256,1.52,1.344,1.52H-1.52c.944,0,1.232-.56,1.312-2.7a3.237,3.237,0,0,1-.976-.464c-.048,1.84-.112,2.1-.464,2.1ZM12.32-2.864v.976H4.448v-.976ZM4.448-.1V-1.12H12.32V-.1ZM3.3,1.264H4.448V.736H12.32v.5H13.5V-3.68H3.3ZM8.848-9.7h3.408v.944H8.848Zm0-1.792h3.408v.9H8.848Zm0,6.176v-.944H14.3v-.816H8.848v-.88h4.576V-9.7h1.952v-.9H13.424v-1.7H8.848v-1.12H7.68v1.12H2.96v.8H7.68v.9H1.28v.9h6.4v.944h-4.9v.8h4.9v.88H2.336v.816H7.68v.944H1.248v.88H15.392v-.88ZM23.1-12.432l-1.472-.144a17.863,17.863,0,0,1-.416,3.488c-.976.08-1.9.16-2.432.176-.512.016-.928.016-1.44,0l.144,1.376c.4-.064,1.072-.144,1.44-.192.416-.048,1.184-.128,2.032-.208A25.379,25.379,0,0,1,17.584.032l1.3.528a32.655,32.655,0,0,0,3.376-8.624c.688-.064,1.328-.112,1.712-.112,1.024,0,1.7.272,1.7,1.728a13.518,13.518,0,0,1-.752,4.9A1.334,1.334,0,0,1,23.5-.72a7.79,7.79,0,0,1-1.952-.336L21.76.288a9.693,9.693,0,0,0,1.888.224A2.252,2.252,0,0,0,25.984-.816a15.52,15.52,0,0,0,.928-5.776c0-2.176-1.168-2.72-2.608-2.72-.384,0-1.04.048-1.792.112.176-.864.32-1.808.416-2.272C22.976-11.792,23.04-12.128,23.1-12.432Zm5.5,1.856-1.168.528A18.77,18.77,0,0,1,30.3-4.3L31.536-4.9A27.3,27.3,0,0,0,28.608-10.576ZM28.8-12.9l-.864.352a19.586,19.586,0,0,1,1.3,2.224l.88-.384A22.675,22.675,0,0,0,28.8-12.9Zm1.76-.656-.848.368a17.941,17.941,0,0,1,1.328,2.208l.864-.384A23.092,23.092,0,0,0,30.56-13.552ZM42.288-9.824h-1.84v-1.888h1.84Zm-1.84,6.4V-5.968h1.84V-3.84ZM42.288-6.9h-1.84V-8.88h1.84Zm-2.8,3.68c-.448.1-.864.176-1.232.256l.224.976c1.088-.24,2.448-.576,3.808-.912v2.24h.976V-9.232H46.4a18.039,18.039,0,0,1-.912,4.224,18.73,18.73,0,0,1-1.008-3.76l-.832.176a20.1,20.1,0,0,0,1.344,4.768,6.946,6.946,0,0,1-1.456,2,3.885,3.885,0,0,1,.7.832A6.848,6.848,0,0,0,45.568-2.72,6.973,6.973,0,0,0,47.12-.848a3.415,3.415,0,0,1,.7-.8A6.089,6.089,0,0,1,46.08-3.76a21.356,21.356,0,0,0,1.392-6.288l-.608-.192-.192.032H43.264v-1.5h2.9v-1.04H38.592v1.04h.9ZM37.152-4.432h1.84V-5.488h-1.84V-7.52H39.12V-8.576H36.928v-1.872h1.888v-1.04H36.928v-1.9H35.872v1.9H33.584v1.04h2.288v1.872H33.184V-7.52H36.1v5.744a5.885,5.885,0,0,1-1.248-2.368c.048-.7.048-1.408.032-2.08l-.992-.048C33.936-4.144,33.84-1.44,32.768.5a2.857,2.857,0,0,1,.784.688A9.79,9.79,0,0,0,34.64-2.1C35.84.256,37.792.8,41.28.8H47.2a4.213,4.213,0,0,1,.5-1.168c-.96.032-5.68.032-6.416.032a9.121,9.121,0,0,1-4.128-.672Zm15.472-6.352v6.96h-2v-6.96Zm1.1,8.112v-9.264H49.536v10.5h1.088V-2.672Zm9.76-3.12V-6.928h-4.16V-9.616h3.5v-1.136h-3.5V-13.3H58.16v2.544H54.912v1.136H58.16v2.688H54.3v1.136H57.7A11.709,11.709,0,0,1,53.264-.624,4.555,4.555,0,0,1,54.1.3,12.757,12.757,0,0,0,58.16-4.48v5.7h1.168V-4.5A14.1,14.1,0,0,0,62.8.272,5.036,5.036,0,0,1,63.664-.7a12.769,12.769,0,0,1-3.872-5.088Zm2.1-4.736.144,1.392c1.728-.368,5.808-.752,7.52-.944a6.5,6.5,0,0,0-2.992,5.408C70.256-1.1,73.632.48,76.592.592l.464-1.328c-2.608-.1-5.52-1.088-5.52-4.208A5.631,5.631,0,0,1,75.2-10.016a13.4,13.4,0,0,1,3.136-.256v-1.28c-1.072.048-2.576.144-4.32.288-2.944.24-5.968.544-7.008.656C66.7-10.576,66.192-10.544,65.584-10.528ZM76.032-8.3l-.816.352A14.853,14.853,0,0,1,76.528-5.7l.816-.384A18.991,18.991,0,0,0,76.032-8.3Zm1.744-.672-.784.368a14.83,14.83,0,0,1,1.344,2.24l.832-.4A21.131,21.131,0,0,0,77.776-8.976ZM84.048.9l1.088-.928a30.032,30.032,0,0,0-3.584-3.552l-1.04.912A26.657,26.657,0,0,1,84.048.9ZM-104.4,11.848v12.72c0,.32-.128.432-.464.432-.3.016-1.456.032-2.624-.016a5.675,5.675,0,0,1,.5,1.232,11.1,11.1,0,0,0,3.056-.208c.56-.208.8-.56.8-1.44V11.848Zm3.824,4.032a27.044,27.044,0,0,1,3.024,7.152L-96.3,22.5a25.44,25.44,0,0,0-3.152-7.056Zm-8-.32a14.993,14.993,0,0,1-2.688,6.576,6.427,6.427,0,0,1,1.12.624,17.946,17.946,0,0,0,2.88-6.96Zm18.624-3.392H-94.32v.96h4.368Zm.56,2.128h-5.776v.976h5.776Zm-.544,2.208h-4.48v.944h4.48Zm-4.48,3.12h4.48V18.68h-4.48Zm6.88-4.016h5.248v3.2h-5.248Zm-3.36,8.9h-2.512V21.832H-90.9Zm8.032.544c-.352,0-.4-.064-.4-.5v-4.7h2.16v-5.3h-1.648c.4-.672.88-1.7,1.312-2.608l-1.216-.352a16.2,16.2,0,0,1-1.1,2.672l.9.288H-86.9l.832-.3a9.651,9.651,0,0,0-1.248-2.56l-1.024.336a12.478,12.478,0,0,1,1.152,2.528h-1.5v5.3h1.7c-.192,2.416-.656,4.4-2.848,5.52V20.856h-4.608V26.2h1.04v-.72h3.568v-.064a3.616,3.616,0,0,1,.752.9c2.448-1.344,3.056-3.648,3.28-6.464h1.44v4.72c0,1.184.24,1.52,1.328,1.52h1.328c.992,0,1.28-.592,1.376-3.056a2.844,2.844,0,0,1-1.024-.464c-.032,2.16-.112,2.48-.48,2.48ZM-72.544,14.2v1.28a37.609,37.609,0,0,0,6.576,0v-1.3A27.374,27.374,0,0,1-72.544,14.2Zm.624,6.512-1.152-.112a8.6,8.6,0,0,0-.272,1.888c0,1.5,1.2,2.4,3.888,2.4a21.683,21.683,0,0,0,4-.336l-.032-1.344a17.651,17.651,0,0,1-3.968.416c-2.176,0-2.7-.7-2.7-1.44A5.588,5.588,0,0,1-71.92,20.712Zm-3.68-7.744-1.424-.128a7,7,0,0,1-.112,1.136,45,45,0,0,0-.72,6.416,20.146,20.146,0,0,0,.592,5.136l1.152-.08c-.016-.16-.032-.384-.048-.56a3.088,3.088,0,0,1,.08-.72,32.655,32.655,0,0,1,1.136-3.584l-.672-.512c-.272.656-.656,1.616-.928,2.336a17.548,17.548,0,0,1-.144-2.24,37.153,37.153,0,0,1,.8-6.128C-75.824,13.752-75.68,13.24-75.6,12.968Zm17.232-.72-.192.048h-3.92v13.92h1.12V13.384h2.352c-.384,1.088-.912,2.56-1.424,3.712a4.436,4.436,0,0,1,1.6,3.168,1.286,1.286,0,0,1-.368,1.088,1.44,1.44,0,0,1-.56.144,5.97,5.97,0,0,1-1.04-.032,2.6,2.6,0,0,1,.3,1.088,7.236,7.236,0,0,0,1.184-.016,2.121,2.121,0,0,0,.9-.3,2.031,2.031,0,0,0,.656-1.84,4.664,4.664,0,0,0-1.584-3.44c.608-1.248,1.264-2.88,1.76-4.224Zm2.8,4.08h4.832v1.984h-4.832Zm4.832-2.96V15.32h-4.832V13.368Zm.928,6.384a18.242,18.242,0,0,1-2.128,1.92,11.65,11.65,0,0,1-.88-2.3h3.264V12.312H-56.72V24.5c-.672.128-1.28.24-1.792.336l.384,1.152c1.552-.352,3.68-.816,5.68-1.28l-.08-1.024c-1.024.208-2.064.416-3.04.608V19.368h1.728c.768,3.12,2.224,5.6,4.576,6.8a3.827,3.827,0,0,1,.784-.976A6.877,6.877,0,0,1-51.456,22.5a22.376,22.376,0,0,0,2.576-2.1Zm7.328-7.3-.32,1.216c1.216.336,4.688,1.04,6.208,1.248l.3-1.232A43.7,43.7,0,0,1-42.48,12.456Zm-.352,2.912-1.344-.176a57.131,57.131,0,0,1-.816,6.5l1.184.288a2.527,2.527,0,0,1,.48-.8,6.271,6.271,0,0,1,4.96-2.144c1.632,0,2.816.912,2.816,2.192,0,2.192-2.464,3.648-7.52,3.024l.384,1.312c5.952.5,8.48-1.44,8.48-4.3,0-1.872-1.632-3.344-4.08-3.344A7.68,7.68,0,0,0-43.5,19.864C-43.328,18.84-43.056,16.456-42.832,15.368Zm20.24-2.864h-1.456c.032.128.08.592.112,1.008.016.224.016.608.032,1.056-2.384.032-5.392.128-7.184.16l.048,1.248c2-.144,4.7-.256,7.152-.288,0,.56.016,1.136.016,1.616a3.2,3.2,0,0,0-1.072-.176,2.8,2.8,0,0,0-2.832,2.784,2.551,2.551,0,0,0,2.64,2.672,2.335,2.335,0,0,0,1.408-.432c-.656,1.456-2.144,2.352-4.256,2.832l1.072,1.056c3.712-1.1,4.768-3.5,4.768-5.68a3.888,3.888,0,0,0-.512-2.048c-.016-.752-.032-1.728-.032-2.64h.224c2.352,0,3.792.048,4.688.1l.016-1.2c-.752,0-2.72-.016-4.688-.016h-.24c0-.432.016-.8.016-1.04C-22.656,13.32-22.608,12.68-22.592,12.5ZM-26.576,19.9a1.63,1.63,0,0,1,1.616-1.7,1.468,1.468,0,0,1,1.44,1.024c.128,1.5-.5,2.256-1.424,2.256A1.55,1.55,0,0,1-26.576,19.9Zm6.192-7.712-.88.368A18.225,18.225,0,0,1-20.1,14.52l.912-.4A19.642,19.642,0,0,0-20.384,12.184Zm1.952-.416-.9.384a12.732,12.732,0,0,1,1.184,1.936l.912-.4C-17.568,13.064-18.064,12.312-18.432,11.768Zm7.168,5.12,2.448-.368-.032-.976-2.416.336V14.3h2.288V13.32h-2.288V11.608h-1.168V13.32h-2.592V14.3h2.592V16.04c-1.072.144-2.048.272-2.832.368l.144,1.024c.784-.1,1.7-.24,2.688-.384v1.92c0,.176-.048.24-.24.24-.208.016-.848.016-1.536,0a4.589,4.589,0,0,1,.352.992,6.508,6.508,0,0,0,2.048-.176c.432-.176.544-.432.544-1.024ZM-4.24,21.64V24.5h-7.712V21.64Zm-8.88,4.592h1.168V25.56H-4.24v.624h1.2v-5.6H-13.12ZM-7.04,15.08V13.544a30.113,30.113,0,0,0,5.328-.928l-.848-.88a28.294,28.294,0,0,1-4.64.912l-.976-.272v2.56a5.029,5.029,0,0,1-1.968,4.336,3.052,3.052,0,0,1,.8.832A5.708,5.708,0,0,0-7.12,16.152h2.512V20.1H-3.44V16.152h2.352V15.08Zm9.344.24H13.456V17.8h1.152V14.264h-2.48c.544-.64,1.136-1.408,1.632-2.128l-1.232-.416a17.292,17.292,0,0,1-1.712,2.544H7.984l.688-.272a9.866,9.866,0,0,0-1.3-2.448l-1.04.384A9.457,9.457,0,0,1,7.52,14.264H4.256l.544-.272a10.718,10.718,0,0,0-1.536-2.176l-.992.448a13.264,13.264,0,0,1,1.344,2H1.168V17.8H2.3ZM14.9,20.584H8.448v-.4a14.291,14.291,0,0,0,3.888-2.7l-.768-.576-.24.064H3.52v1.056h6.608a13.4,13.4,0,0,1-2.256,1.408H7.264v1.152H.864v1.1h6.4v3.088c0,.24-.08.32-.416.336-.3.016-1.392.016-2.608-.016a5.1,5.1,0,0,1,.5,1.136A11.9,11.9,0,0,0,7.68,26.04c.576-.176.768-.528.768-1.232v-3.12H14.9ZM24.72,14.84l.912-.72a27.43,27.43,0,0,0-2.352-2.032l-.912.656A28.978,28.978,0,0,1,24.72,14.84Zm-5.088-1.376-1.312.528c.256.32.576.816.784,1.136.272.448.576,1.056.912,1.76-.7.32-1.36.608-1.9.816a11.469,11.469,0,0,1-1.312.432l.608,1.312c.736-.336,1.856-.912,3.088-1.5.208.416.4.864.608,1.328a48.346,48.346,0,0,1,2.176,6.56l1.376-.368a70.981,70.981,0,0,0-2.432-6.72c-.192-.432-.4-.88-.608-1.328A14.423,14.423,0,0,1,26.848,15.8c1.568,0,2.32.864,2.32,1.808,0,1.152-.736,2.112-2.48,2.112a5.792,5.792,0,0,1-2.272-.512l-.048,1.248a7.288,7.288,0,0,0,2.4.448c2.5,0,3.68-1.392,3.68-3.232,0-1.744-1.36-3.008-3.568-3.008a16.442,16.442,0,0,0-5.76,1.712c-.32-.672-.64-1.312-.928-1.84A11.627,11.627,0,0,1,19.632,13.464Zm19.584,7.2c-.4-.352-1.808-1.584-2.56-2.176A14.377,14.377,0,0,0,38.736,15l-.672-.448-.208.048H36.464V11.624H35.3V14.6H32.784v1.088h4.448a13.879,13.879,0,0,1-5.008,5.248,5.382,5.382,0,0,1,.624,1.072,15.108,15.108,0,0,0,2.448-2v6.208h1.168V19.592c.72.672,1.6,1.568,2.016,2.032ZM43.568,24.6V17.96h3.408V16.808H43.568V11.736H42.384v5.072H38.96V17.96h3.424V24.6H38.336v1.168H47.3V24.6Zm5.744-3.9H53.52a30.2,30.2,0,0,1-1.728,3.728c-.864.032-1.664.048-2.352.064l.16,1.168c2.736-.1,6.88-.272,10.8-.464a10.011,10.011,0,0,1,.736,1.072l1.072-.656a21.309,21.309,0,0,0-3.76-4.176l-1.008.544a24.589,24.589,0,0,1,2.112,2.16c-2.24.1-4.5.176-6.48.24.64-1.12,1.328-2.5,1.888-3.68h7.5v-1.1H49.312Zm2.72-4.144V17.64H59.6V16.552ZM55.1,11.64a16.809,16.809,0,0,1-6.624,5.648,3.738,3.738,0,0,1,.688.944,18.3,18.3,0,0,0,6.608-5.456,19.614,19.614,0,0,0,6.752,5.392,6.373,6.373,0,0,1,.768-1.056A17.238,17.238,0,0,1,56.32,11.64Zm11.2,3.68H77.456V17.8h1.152V14.264h-2.48c.544-.64,1.136-1.408,1.632-2.128l-1.232-.416a17.292,17.292,0,0,1-1.712,2.544H71.984l.688-.272a9.866,9.866,0,0,0-1.3-2.448l-1.04.384a9.457,9.457,0,0,1,1.184,2.336H68.256l.544-.272a10.719,10.719,0,0,0-1.536-2.176l-.992.448a13.264,13.264,0,0,1,1.344,2H65.168V17.8H66.3ZM78.9,20.584H72.448v-.4a14.291,14.291,0,0,0,3.888-2.7l-.768-.576-.24.064H67.52v1.056h6.608a13.4,13.4,0,0,1-2.256,1.408h-.608v1.152h-6.4v1.1h6.4v3.088c0,.24-.08.32-.416.336-.3.016-1.392.016-2.608-.016a5.1,5.1,0,0,1,.5,1.136,11.9,11.9,0,0,0,2.944-.192c.576-.176.768-.528.768-1.232v-3.12H78.9Zm8.16-8.288-1.408-.128a13.272,13.272,0,0,1-.5,2.768c-.624.048-1.232.08-1.808.08a15.092,15.092,0,0,1-1.952-.112l.08,1.2c.608.032,1.28.048,1.872.048.464,0,.944-.016,1.424-.048a23.677,23.677,0,0,1-3.424,5.984l1.232.64a28.3,28.3,0,0,0,3.488-6.752,21.7,21.7,0,0,0,2.912-.592l-.032-1.2a15.463,15.463,0,0,1-2.512.592C86.688,13.848,86.912,12.872,87.056,12.3Zm-.88,11.1c0-.736.8-1.28,1.968-1.28a5.547,5.547,0,0,1,1.648.24c.016.272.016.512.016.72,0,.88-.448,1.584-1.776,1.584C86.784,24.664,86.176,24.152,86.176,23.4Zm4.656-6.16H89.584c.032,1.136.112,2.72.176,4.032a7.14,7.14,0,0,0-1.568-.16c-1.808,0-3.2.928-3.2,2.4,0,1.584,1.44,2.3,3.2,2.3,1.984,0,2.8-1.04,2.8-2.32,0-.192,0-.416-.016-.672a11.959,11.959,0,0,1,2.592,1.84l.688-1.088a10.977,10.977,0,0,0-3.328-1.984c-.032-.992-.1-2.032-.112-2.624C90.8,18.392,90.8,17.9,90.832,17.24Zm3.2.432.72-1.056a24.168,24.168,0,0,0-3.728-2.128l-.656.976A18.736,18.736,0,0,1,94.032,17.672Zm6.3-4.912-1.264.528c.752,1.728,1.6,3.6,2.336,4.928C99.68,19.4,98.64,20.7,98.64,22.36c0,2.4,2.16,3.3,5.168,3.3a29.6,29.6,0,0,0,5.056-.4l.016-1.424a23.807,23.807,0,0,1-5.12.544c-2.528,0-3.792-.832-3.792-2.16,0-1.216.9-2.272,2.384-3.232a46.623,46.623,0,0,1,4.432-2.448c.464-.24.864-.448,1.216-.656l-.64-1.168a9.993,9.993,0,0,1-1.136.752c-.88.5-2.336,1.2-3.744,2.048A36.475,36.475,0,0,1,100.336,12.76Zm7.936-.16-.864.368a16.532,16.532,0,0,1,1.312,2.224l.864-.384A22.949,22.949,0,0,0,108.272,12.6Zm1.76-.64-.848.352a16.252,16.252,0,0,1,1.344,2.208l.848-.384A18.6,18.6,0,0,0,110.032,11.96ZM-108.16,49.232V46.864h8.528v2.368Zm8.528-5.808v2.32h-8.528v-2.32Zm0-3.5V42.3h-8.528V39.92Zm-4.512-1.136c.272-.608.56-1.328.8-2.016l-1.36-.176a20.165,20.165,0,0,1-.624,2.192h-4.016V51.248h1.184v-.9h8.528v.816H-98.4V38.784Zm13.36-1.84a13.59,13.59,0,0,1-4.784,6.016,6.915,6.915,0,0,1,1.008.912A16.485,16.485,0,0,0-89.536,37.3Zm-2.192,5.68v1.152h3.264c-.368,2.7-1.248,5.232-5.008,6.48a4.718,4.718,0,0,1,.768,1.04c4.064-1.472,5.088-4.368,5.5-7.52h4.128c-.192,4.032-.416,5.632-.832,6.032-.144.176-.336.208-.672.208-.368,0-1.36-.016-2.4-.112a2.893,2.893,0,0,1,.4,1.184,22.92,22.92,0,0,0,2.512.032,1.6,1.6,0,0,0,1.232-.56c.544-.608.784-2.448,1.008-7.36.016-.16.032-.576.032-.576Zm6.592-5.264a21.16,21.16,0,0,0,4.96,6.368,6.118,6.118,0,0,1,.976-1.056,16.93,16.93,0,0,1-4.816-5.76Zm20.912,7.04A5.8,5.8,0,0,0-71.6,38.512a6.82,6.82,0,0,0-6.992,6.512c0,2.64,1.424,4.272,2.848,4.272,1.488,0,2.752-1.68,3.728-4.976a31.474,31.474,0,0,0,.96-4.608,4.456,4.456,0,0,1,4.272,4.64A4.832,4.832,0,0,1-70.848,49.1a12.087,12.087,0,0,1-1.376.208l.752,1.184C-67.68,50-65.472,47.76-65.472,44.4Zm-11.872.512a5.581,5.581,0,0,1,4.96-5.184,26.141,26.141,0,0,1-.9,4.32c-.816,2.7-1.664,3.776-2.416,3.776C-76.416,47.824-77.344,46.928-77.344,44.912Zm18.72,2.864a18.056,18.056,0,0,1-4.48,2.608,11.862,11.862,0,0,1,.912.848,23.627,23.627,0,0,0,4.7-2.736Zm4.08.816a34.452,34.452,0,0,1,4.608,2.656l1.1-.832A43.846,43.846,0,0,0-53.7,47.792Zm-2.032-6.544h1.152v2.128h-1.152Zm-.608,2.9h2.4V41.28h-2.4Zm2.56-5.536h-2.72v.816h2.72ZM-60.816,44.4h1.6v-.992h-1.632L-60.9,41.44h1.7v-.992h-1.728l-.064-1.792c.752-.272,1.552-.608,2.272-.944v8.7h-2.032Zm6.688-6.032v8.048h-3.7V38.368Zm3.968,8.048c.144-2.4.256-6.176.288-8.992h-2.992v.992h1.952c-.016.656-.016,1.328-.032,2.032h-1.808v.992h1.776c-.016.656-.032,1.328-.064,1.968h-1.744V44.4h1.712c-.032.736-.08,1.408-.112,2.016h-2.048V37.424h-5.44l-.672-.72a16.652,16.652,0,0,1-1.76.976l-.944-.224.272,8.96h-1.44v1.1h14.448v-1.1Zm6.464-7.2v6.96h-2v-6.96Zm1.1,8.112V38.064h-4.192v10.5H-45.7V47.328Zm9.76-3.12V43.072h-4.16V40.384h3.5V39.248h-3.5V36.7H-38.16v2.544h-3.248v1.136h3.248v2.688h-3.856v1.136h3.392a11.709,11.709,0,0,1-4.432,5.168,4.555,4.555,0,0,1,.832.928A12.757,12.757,0,0,0-38.16,45.52v5.7h1.168V45.5a14.1,14.1,0,0,0,3.472,4.768,5.036,5.036,0,0,1,.864-.976,12.769,12.769,0,0,1-3.872-5.088Zm15.36.192A5.8,5.8,0,0,0-23.6,38.512a6.82,6.82,0,0,0-6.992,6.512c0,2.64,1.424,4.272,2.848,4.272,1.488,0,2.752-1.68,3.728-4.976a31.474,31.474,0,0,0,.96-4.608,4.456,4.456,0,0,1,4.272,4.64A4.832,4.832,0,0,1-22.848,49.1a12.087,12.087,0,0,1-1.376.208l.752,1.184C-19.68,50-17.472,47.76-17.472,44.4Zm-11.872.512a5.581,5.581,0,0,1,4.96-5.184,26.142,26.142,0,0,1-.9,4.32c-.816,2.7-1.664,3.776-2.416,3.776C-28.416,47.824-29.344,46.928-29.344,44.912Zm20.9-7.584L-9.792,37.3a6.982,6.982,0,0,1-.032.768c-.032.352-.08.768-.128,1.232-.368.016-.72.016-1.088.016a22.1,22.1,0,0,1-2.64-.208l.032,1.2c.656.048,1.9.112,2.592.112.32,0,.64,0,.976-.016-.064.752-.144,1.552-.176,2.352-2.208,1.024-4,3.12-4,5.184a1.809,1.809,0,0,0,1.888,2.016,5.508,5.508,0,0,0,2.72-.88c.08.32.16.624.256.9l1.152-.352q-.192-.6-.384-1.3a13.323,13.323,0,0,0,3.568-5.2,2.892,2.892,0,0,1,2.3,2.736c0,2.08-1.792,3.568-4.688,3.872l.688,1.072c3.712-.592,5.232-2.576,5.232-4.88A3.912,3.912,0,0,0-4.7,42.16c0-.032.016-.048.016-.064.08-.256.224-.688.32-.912l-1.264-.32a4.332,4.332,0,0,1-.176.928c-.016.064-.032.112-.048.16-.192-.016-.384-.016-.592-.016a10.231,10.231,0,0,0-2.688.4c.048-.672.1-1.344.176-1.968A50.935,50.935,0,0,0-3.2,39.76l-.016-1.184a31.891,31.891,0,0,1-5.616.688c.064-.464.128-.88.192-1.216A5.288,5.288,0,0,1-8.448,37.328Zm-.736,6.784c0-.224,0-.432.016-.656a7.822,7.822,0,0,1,2.7-.512h.272a10.607,10.607,0,0,1-2.72,4.1A17.162,17.162,0,0,1-9.184,44.112Zm-3.856,3.616c0-1.312,1.184-2.9,2.736-3.776v.288a19.417,19.417,0,0,0,.384,3.632,4.008,4.008,0,0,1-2.208.848C-12.736,48.72-13.04,48.384-13.04,47.728Zm18.9.592A1.169,1.169,0,0,1,7.136,47.3,2.182,2.182,0,0,1,9.28,49.472a8.215,8.215,0,0,1-1.3.1C6.736,49.568,5.856,49.088,5.856,48.32ZM3.808,38.208l.048,1.328c.336-.048.7-.08,1.056-.1.848-.048,4.048-.192,4.9-.224-.816.72-2.816,2.4-3.712,3.136-.928.784-2.976,2.5-4.3,3.584l.912.944c2.032-2.064,3.456-3.2,6.128-3.2,2.08,0,3.584,1.184,3.584,2.752a2.81,2.81,0,0,1-2,2.736,3.1,3.1,0,0,0-3.264-2.832,2.247,2.247,0,0,0-2.464,2.08c0,1.328,1.328,2.272,3.5,2.272,3.392,0,5.5-1.664,5.5-4.24,0-2.16-1.9-3.76-4.56-3.76a6.77,6.77,0,0,0-2.224.336c1.248-1.04,3.424-2.9,4.224-3.5.288-.24.608-.448.9-.656l-.736-.928a3.773,3.773,0,0,1-.864.128c-.848.08-4.656.208-5.488.208A9.54,9.54,0,0,1,3.808,38.208Zm17.408-1.264a13.59,13.59,0,0,1-4.784,6.016,6.915,6.915,0,0,1,1.008.912A16.485,16.485,0,0,0,22.464,37.3Zm-2.192,5.68v1.152h3.264c-.368,2.7-1.248,5.232-5.008,6.48a4.718,4.718,0,0,1,.768,1.04c4.064-1.472,5.088-4.368,5.5-7.52H27.68c-.192,4.032-.416,5.632-.832,6.032-.144.176-.336.208-.672.208-.368,0-1.36-.016-2.4-.112a2.892,2.892,0,0,1,.4,1.184,22.92,22.92,0,0,0,2.512.032,1.6,1.6,0,0,0,1.232-.56c.544-.608.784-2.448,1.008-7.36.016-.16.032-.576.032-.576Zm6.592-5.264a21.16,21.16,0,0,0,4.96,6.368,6.118,6.118,0,0,1,.976-1.056,16.93,16.93,0,0,1-4.816-5.76Zm8.608,3.712h1.9v1.744h-1.9Zm0-2.672h1.9v1.744h-1.9Zm4.816,1.744H37.152V38.4H39.04Zm0,2.672H37.152V41.072H39.04ZM37.216,46.7H40.08V45.616H37.216V43.808H40.08v-6.4H33.216v6.4h2.848v1.808h-2.88V46.7h2.88v2.32c-1.28.176-2.448.336-3.376.432l.144,1.168c2-.3,4.912-.72,7.664-1.136l-.032-1.056c-1.088.16-2.192.3-3.248.448Zm9.424-4.192-.192.048h-.976l.336-.352A11.563,11.563,0,0,0,44.4,41.024a15.437,15.437,0,0,0,2.784-3.1l-.768-.544-.256.064H40.608v1.072h4.72a13.451,13.451,0,0,1-1.76,1.936,11.938,11.938,0,0,0-1.6-.944l-.752.72A16.333,16.333,0,0,1,44.56,42.56H40.4v1.12h2.576v6.064c0,.224-.064.3-.32.3-.256.016-1.088.016-2.032-.016a4.313,4.313,0,0,1,.4,1.184,7.952,7.952,0,0,0,2.48-.208c.5-.208.64-.56.64-1.232v-6.1h1.888a20.589,20.589,0,0,1-.912,2.544l.976.272A28.244,28.244,0,0,0,47.44,42.72ZM62.528,44.4A5.8,5.8,0,0,0,56.4,38.512a6.82,6.82,0,0,0-6.992,6.512c0,2.64,1.424,4.272,2.848,4.272,1.488,0,2.752-1.68,3.728-4.976a31.474,31.474,0,0,0,.96-4.608,4.456,4.456,0,0,1,4.272,4.64A4.832,4.832,0,0,1,57.152,49.1a12.086,12.086,0,0,1-1.376.208l.752,1.184C60.32,50,62.528,47.76,62.528,44.4Zm-11.872.512a5.581,5.581,0,0,1,4.96-5.184,26.142,26.142,0,0,1-.9,4.32c-.816,2.7-1.664,3.776-2.416,3.776C51.584,47.824,50.656,46.928,50.656,44.912Zm28.288-3.76V39.968H72.608V36.624H71.376v3.344H65.088v1.184H70.64a15.269,15.269,0,0,1-6.1,6.592,4.8,4.8,0,0,1,.848.96,16.664,16.664,0,0,0,5.984-6.544v4.9h-3.12V48.24h3.12v2.976h1.232V48.24h3.04V47.056h-3.04v-4.9a15.778,15.778,0,0,0,6,6.528,4.222,4.222,0,0,1,.88-1.04,14.341,14.341,0,0,1-6.144-6.5Zm8.416-3.808-1.312-.112a8.2,8.2,0,0,1-.4,2c-.352.016-.72.016-1.056.016a23.418,23.418,0,0,1-2.7-.176v1.2c.88.064,1.936.1,2.624.1h.7a16.878,16.878,0,0,1-3.7,4.9l1.088.8A21.135,21.135,0,0,1,84.064,44.4a4.212,4.212,0,0,1,2.752-1.168,1.335,1.335,0,0,1,1.456.992C86.4,45.2,84.5,46.384,84.5,48.272c0,1.952,1.84,2.448,4.128,2.448a37.587,37.587,0,0,0,4.384-.288l.032-1.28a28.491,28.491,0,0,1-4.368.384c-1.648,0-2.9-.192-2.9-1.44,0-1.056,1.04-1.9,2.528-2.688,0,.848-.016,1.888-.048,2.5h1.232c-.016-.784-.032-2.144-.048-3.072,1.216-.576,2.352-1.04,3.248-1.376a13.931,13.931,0,0,1,1.424-.512l-.528-1.2c-.448.24-.832.416-1.312.624-.832.384-1.808.768-2.9,1.3a2.066,2.066,0,0,0-2.144-1.44,4.581,4.581,0,0,0-2.224.592,12.7,12.7,0,0,0,1.44-2.48,46.28,46.28,0,0,0,5.312-.448l.016-1.184a39.351,39.351,0,0,1-4.88.5A16.333,16.333,0,0,0,87.36,37.344Zm18.72,3.2h-3.1v1.008h7.6V40.544h-3.312V39.056h3.776V38.048h-3.776v-1.44H106.08v1.44h-3.616v1.008h3.616Zm-2.608,3.136H110v1.84h1.1V42.7h-8.7V45.52h1.072Zm-1.888-6.512H97.44v.96h4.144Zm.48,2.1H96.672v.976h5.392Zm-1.424,7.392v2.672h-2.3V46.656Zm1.008-.976h-4.32v5.36h1.008v-.752h3.312Zm-4.3-1.184h4.3v-.96h-4.3Zm0-2.128h4.3v-.944h-4.3Zm7.408,2.368c-.128,2.992-.5,4.656-3.056,5.568a4.1,4.1,0,0,1,.688.928c2.816-1.1,3.344-3.1,3.488-6.5Zm4.224,5.232c-.336,0-.384-.048-.384-.448V44.736h-1.1V49.52c0,1.168.256,1.52,1.344,1.52h1.328c.944,0,1.232-.56,1.312-2.7a3.237,3.237,0,0,1-.976-.464c-.048,1.84-.112,2.1-.464,2.1ZM-46.848,63.128l-1.408-.576c-.192.464-.4.864-.592,1.232a113.559,113.559,0,0,0-5.536,11.344l1.376.48a25.568,25.568,0,0,1,1.376-3.648c.624-1.248,1.824-2.56,3.12-2.56a1.079,1.079,0,0,1,1.168,1.12c.048.88.016,2.112.064,3.04a2.075,2.075,0,0,0,2.32,2.032c2.32,0,3.664-1.792,4.512-4.368L-41.5,70.36c-.416,1.7-1.472,3.9-3.248,3.9a1.151,1.151,0,0,1-1.3-1.136c-.048-.784-.032-2.016-.064-2.96a1.805,1.805,0,0,0-1.872-1.936,3.522,3.522,0,0,0-2.384.992c.832-1.552,2.3-4.208,3.008-5.312C-47.168,63.608-46.992,63.32-46.848,63.128Zm7.712,1.344.144,1.392c1.728-.368,5.808-.752,7.52-.944a6.5,6.5,0,0,0-2.992,5.408c0,3.568,3.376,5.152,6.336,5.264l.464-1.328c-2.608-.1-5.52-1.088-5.52-4.208a5.631,5.631,0,0,1,3.664-5.072,13.4,13.4,0,0,1,3.136-.256v-1.28c-1.072.048-2.576.144-4.32.288-2.944.24-5.968.544-7.008.656C-38.016,64.424-38.528,64.456-39.136,64.472ZM-28.688,66.7l-.816.352A14.854,14.854,0,0,1-28.192,69.3l.816-.384A18.991,18.991,0,0,0-28.688,66.7Zm1.744-.672-.784.368a14.83,14.83,0,0,1,1.344,2.24l.832-.4A21.132,21.132,0,0,0-26.944,66.024Zm10.576-2.192a3.735,3.735,0,0,0,.112.4,32.058,32.058,0,0,1-5.28-.192l.08,1.168a38.339,38.339,0,0,0,5.5.112q.192.576.432,1.248c.1.272.208.544.32.832a35.866,35.866,0,0,1-6.64-.08l.064,1.2a46.555,46.555,0,0,0,7.04-.032,16.926,16.926,0,0,0,1.248,2.3c-.512-.064-1.552-.176-2.4-.272L-16,71.5a29.645,29.645,0,0,1,3.5.512l.656-.976a4.807,4.807,0,0,1-.592-.688,15.894,15.894,0,0,1-1.12-1.984,24.949,24.949,0,0,0,2.9-.576l-.192-1.2a17.678,17.678,0,0,1-3.2.688c-.128-.32-.256-.656-.368-.96-.112-.336-.24-.7-.352-1.1a23.3,23.3,0,0,0,3.152-.64l-.176-1.152a17.8,17.8,0,0,1-3.28.72,12.169,12.169,0,0,1-.384-1.9l-1.36.176C-16.656,62.856-16.5,63.352-16.368,63.832ZM-19.52,70.76l-1.248-.256a4.647,4.647,0,0,0-.624,2.288c.016,2.048,1.776,2.976,4.912,2.976a24.334,24.334,0,0,0,3.744-.272l.048-1.28a18.118,18.118,0,0,1-3.808.336c-2.512,0-3.7-.656-3.7-1.984A3.1,3.1,0,0,1-19.52,70.76ZM-4.3,73.32c0-.736.832-1.328,2.352-1.328a7.1,7.1,0,0,1,1.552.16c0,.416.016.8.016,1.072,0,1.1-.784,1.392-1.7,1.392C-3.664,74.616-4.3,74.056-4.3,73.32ZM.768,62.3H-.592a8.781,8.781,0,0,1,.064.96v1.136h-.736a29.07,29.07,0,0,1-4.1-.352l.016,1.184c1.008.112,2.976.272,4.1.272h.7v2.24h-.864a29.6,29.6,0,0,1-4.032-.3l.016,1.2c1.152.128,2.912.224,4,.224h.912c.016.688.048,1.456.064,2.176a9.164,9.164,0,0,0-1.344-.1c-2.3,0-3.7.992-3.7,2.448,0,1.536,1.248,2.352,3.552,2.352C.144,75.736.88,74.6.88,73.5c0-.256-.016-.592-.032-.992A11.8,11.8,0,0,1,4.72,74.92l.736-1.136a12.733,12.733,0,0,0-4.672-2.5C.752,70.52.7,69.656.672,68.824c1.52-.048,2.928-.176,4.432-.368l.016-1.2a39.813,39.813,0,0,1-4.464.432v-2.24c1.536-.08,3.056-.224,4.32-.368l.016-1.168a39.783,39.783,0,0,1-4.336.432c0-.416.016-.768.016-.976A8.009,8.009,0,0,1,.768,62.3Zm12.272.24-1.616-.016a8.444,8.444,0,0,1,.128,1.632c0,1.68-.16,5.728-.16,8.1,0,2.608,1.584,3.568,3.888,3.568a8.042,8.042,0,0,0,6.688-3.536l-.912-1.088A6.666,6.666,0,0,1,15.328,74.5c-1.52,0-2.624-.624-2.624-2.384,0-2.384.112-6.16.192-7.968A13.776,13.776,0,0,1,13.04,62.536Zm19.488,8.64-1.2-.112a10,10,0,0,0-.24,1.888c0,1.584,1.376,2.352,3.9,2.352a21.271,21.271,0,0,0,3.088-.224l.048-1.3a15.4,15.4,0,0,1-3.12.32c-2.288,0-2.7-.736-2.7-1.488A5.657,5.657,0,0,1,32.528,71.176Zm-1.84-8.768-1.536-.128a6.4,6.4,0,0,1-.048,1.328c-.048.32-.128.832-.24,1.392-.624.048-1.2.08-1.728.08a14.494,14.494,0,0,1-1.92-.112l.048,1.248c.576.032,1.152.064,1.856.064.448,0,.944-.016,1.472-.048-.128.576-.272,1.184-.416,1.712A34.889,34.889,0,0,1,25.488,75.1l1.408.48a49.035,49.035,0,0,0,2.5-7.328c.192-.7.368-1.44.512-2.144a30.725,30.725,0,0,0,3.328-.544V64.3a23.687,23.687,0,0,1-3.072.576c.1-.432.176-.848.24-1.184C30.464,63.368,30.592,62.76,30.688,62.408Zm1.5,4.88v1.184a26.293,26.293,0,0,1,2.976-.16,20.23,20.23,0,0,1,2.688.192l.032-1.216a25.61,25.61,0,0,0-2.768-.144C34.1,67.144,33.04,67.208,32.192,67.288ZM42.7,71.1a2.44,2.44,0,1,0,2.448,2.432A2.441,2.441,0,0,0,42.7,71.1Zm0,4.064a1.624,1.624,0,1,1,1.632-1.632A1.625,1.625,0,0,1,42.7,75.16Z" transform="translate(488 4992)" fill="#2c2d48"/>
    <path id="パス_48" data-name="パス 48" d="M-94.032-9.824h-1.84v-1.888h1.84Zm-1.84,6.4V-5.968h1.84V-3.84Zm1.84-3.472h-1.84V-8.88h1.84Zm-2.8,3.68c-.448.1-.864.176-1.232.256l.224.976c1.088-.24,2.448-.576,3.808-.912v2.24h.976V-9.232h3.136a18.039,18.039,0,0,1-.912,4.224,18.73,18.73,0,0,1-1.008-3.76l-.832.176a20.1,20.1,0,0,0,1.344,4.768,6.946,6.946,0,0,1-1.456,2,3.885,3.885,0,0,1,.7.832A6.848,6.848,0,0,0-90.752-2.72,6.973,6.973,0,0,0-89.2-.848a3.415,3.415,0,0,1,.7-.8A6.089,6.089,0,0,1-90.24-3.76a21.356,21.356,0,0,0,1.392-6.288l-.608-.192-.192.032h-3.408v-1.5h2.9v-1.04h-7.568v1.04h.9Zm-2.336-1.216h1.84V-5.488h-1.84V-7.52H-97.2V-8.576h-2.192v-1.872H-97.5v-1.04h-1.888v-1.9h-1.056v1.9h-2.288v1.04h2.288v1.872h-2.688V-7.52h2.912v5.744a5.885,5.885,0,0,1-1.248-2.368c.048-.7.048-1.408.032-2.08l-.992-.048c.048,2.128-.048,4.832-1.12,6.768a2.857,2.857,0,0,1,.784.688A9.79,9.79,0,0,0-101.68-2.1C-100.48.256-98.528.8-95.04.8h5.92a4.214,4.214,0,0,1,.5-1.168c-.96.032-5.68.032-6.416.032a9.121,9.121,0,0,1-4.128-.672ZM-83.7-10.784v6.96h-2v-6.96Zm1.1,8.112v-9.264h-4.192v10.5H-85.7V-2.672Zm9.76-3.12V-6.928h-4.16V-9.616h3.5v-1.136h-3.5V-13.3H-78.16v2.544h-3.248v1.136h3.248v2.688h-3.856v1.136h3.392A11.709,11.709,0,0,1-83.056-.624,4.555,4.555,0,0,1-82.224.3,12.757,12.757,0,0,0-78.16-4.48v5.7h1.168V-4.5A14.1,14.1,0,0,0-73.52.272,5.036,5.036,0,0,1-72.656-.7a12.769,12.769,0,0,1-3.872-5.088Zm2.1-4.736.144,1.392c1.728-.368,5.808-.752,7.52-.944a6.5,6.5,0,0,0-2.992,5.408c0,3.568,3.376,5.152,6.336,5.264l.464-1.328c-2.608-.1-5.52-1.088-5.52-4.208a5.631,5.631,0,0,1,3.664-5.072,13.4,13.4,0,0,1,3.136-.256v-1.28c-1.072.048-2.576.144-4.32.288-2.944.24-5.968.544-7.008.656C-69.616-10.576-70.128-10.544-70.736-10.528ZM-60.288-8.3l-.816.352A14.853,14.853,0,0,1-59.792-5.7l.816-.384A18.99,18.99,0,0,0-60.288-8.3Zm1.744-.672-.784.368a14.83,14.83,0,0,1,1.344,2.24l.832-.4A21.132,21.132,0,0,0-58.544-8.976Zm4.016,4.656A12.5,12.5,0,0,1-55.5-.512,4.8,4.8,0,0,1-54.64-.1a14.549,14.549,0,0,0,1.088-4.048ZM-50.72-5.6a7.068,7.068,0,0,1,.272,1.024l.912-.384A13.371,13.371,0,0,0-50.9-8.3l-.832.32c.224.432.448.912.64,1.392l-2.144.112a48.767,48.767,0,0,0,3.072-4.656l-.976-.432a32.7,32.7,0,0,1-1.616,2.88A13.063,13.063,0,0,0-53.584-9.7c.56-.88,1.248-2.192,1.792-3.3l-1.024-.384a23.118,23.118,0,0,1-1.408,3.024c-.16-.16-.336-.336-.5-.48l-.64.736a13.884,13.884,0,0,1,2,2.336c-.32.5-.64.944-.944,1.344-.416.016-.816.032-1.168.048L-55.36-5.3c.72-.048,1.536-.1,2.416-.16V1.216h1.04V-5.52Zm7.408,2.8V-4.64h1.264V-2.8Zm-2.048,0V-4.64h1.232V-2.8Zm-2,0V-4.64h1.2V-2.8Zm4.848-6.544v1.712h-5.52V-9.344Zm1.472,3.776h-7.024c.016-.384.032-.736.032-1.088h6.672v-3.68H-49.1v3.5a15.669,15.669,0,0,1-.72,5.264,11.233,11.233,0,0,0-.784-2.8l-.832.256a10.707,10.707,0,0,1,.736,2.9l.848-.24A7.574,7.574,0,0,1-50.8.32a3.918,3.918,0,0,1,.864.672,10.351,10.351,0,0,0,1.68-4.56V1.216h.9v-3.1h1.2V1.056h.8V-1.888h1.232V1.056h.816V-1.888h1.264V.08c0,.144-.032.176-.128.176-.128,0-.464,0-.848-.016a3.673,3.673,0,0,1,.32.976,3.189,3.189,0,0,0,1.312-.176C-41.1.848-41.04.56-41.04.1Zm-8.672-6.848v1.04h8.736v-1.04Zm13.28.688.064,1.3c.384-.032.832-.08,1.184-.1.736-.048,2.688-.128,3.328-.16-.5.992-1.1,2.384-1.664,3.648-3.152.08-5.328,1.888-5.328,4.24a2.039,2.039,0,0,0,2.08,2.192,2.252,2.252,0,0,0,2.016-1.1A34.6,34.6,0,0,0-32.736-5.9,11.5,11.5,0,0,1-28.16-4.432,6.865,6.865,0,0,1-32.352.08L-31.3.96a7.55,7.55,0,0,0,4.208-4.752,16.7,16.7,0,0,1,1.664,1.264l.592-1.376a20.91,20.91,0,0,0-1.936-1.232,21.459,21.459,0,0,0,.336-3.088l-1.3-.144c.032.448.016.992,0,1.472-.032.384-.064.784-.128,1.184a14.4,14.4,0,0,0-4.4-1.28c.672-1.488,1.376-3.12,1.824-3.84a6.706,6.706,0,0,1,.416-.528l-.8-.656a3.307,3.307,0,0,1-.8.176c-.672.048-2.768.16-3.616.16C-35.552-11.68-36.016-11.7-36.432-11.728ZM-37.68-2.96c0-1.376,1.328-2.784,3.664-2.96A21.361,21.361,0,0,1-35.76-2.432a1.153,1.153,0,0,1-.96.56A.98.98,0,0,1-37.68-2.96ZM-17.3-5.232l-.16-1.056-1.856.576V-8.976h1.632v-1.152h-1.632v-3.248h-1.1v3.248h-1.232c.112-.7.224-1.44.3-2.16l-1.04-.176a18.723,18.723,0,0,1-1.1,5.328,5.655,5.655,0,0,1,.912.528,12.664,12.664,0,0,0,.7-2.368h1.456v3.568c-1.12.352-2.144.624-2.96.848l.32,1.136c.784-.24,1.7-.528,2.64-.816V1.232h1.1V-4.592Zm2.224-5.488a22.884,22.884,0,0,0,.7-2.448l-1.088-.224a13.667,13.667,0,0,1-2.8,6.144,8,8,0,0,1,.912.688A13.194,13.194,0,0,0-15.52-9.6h1.376C-14.88-7.04-16.3-4.368-18-3.04a3.882,3.882,0,0,1,.944.688c1.744-1.52,3.216-4.512,3.936-7.248h1.312c-.832,4.016-2.56,7.952-5.184,9.84A3.6,3.6,0,0,1-16,.96c2.656-2.112,4.416-6.368,5.216-10.56h.768c-.32,6.336-.672,8.7-1.184,9.264a.678.678,0,0,1-.592.272c-.32,0-.96-.016-1.68-.08a2.582,2.582,0,0,1,.336,1.168,9.8,9.8,0,0,0,1.824,0,1.376,1.376,0,0,0,1.1-.608c.64-.8.992-3.28,1.344-10.528.016-.144.016-.608.016-.608ZM6.528-5.6A5.8,5.8,0,0,0,.4-11.488,6.82,6.82,0,0,0-6.592-4.976C-6.592-2.336-5.168-.7-3.744-.7-2.256-.7-.992-2.384-.016-5.68a31.474,31.474,0,0,0,.96-4.608,4.456,4.456,0,0,1,4.272,4.64A4.832,4.832,0,0,1,1.152-.9,12.086,12.086,0,0,1-.224-.688L.528.5C4.32,0,6.528-2.24,6.528-5.6Zm-11.872.512a5.581,5.581,0,0,1,4.96-5.184,26.142,26.142,0,0,1-.9,4.32C-2.1-3.248-2.944-2.176-3.7-2.176-4.416-2.176-5.344-3.072-5.344-5.088Zm17.936-8.24A17.812,17.812,0,0,1,8.64-6.976a5.976,5.976,0,0,1,.688,1.184,15.866,15.866,0,0,0,1.584-1.9V1.2H12.1V-9.536a24.759,24.759,0,0,0,1.632-3.424ZM23.328-9.584V-10.72H16.672c.32-.7.624-1.424.88-2.16l-1.136-.3A16.95,16.95,0,0,1,12.9-7.056a7.78,7.78,0,0,1,.928.8A17.535,17.535,0,0,0,16.1-9.584h1.1v10.8h1.2V-2.656h4.784v-1.12H18.4V-6.192h4.56V-7.3H18.4V-9.584ZM34.72-12.592a16.379,16.379,0,0,1,2.832,1.92l.736-.816a15.262,15.262,0,0,0-2.864-1.824Zm2.272,4.32a15.845,15.845,0,0,1-2.048,4.32,28.859,28.859,0,0,1-.88-5.552h5.088v-1.168H33.984c-.048-.864-.064-1.76-.064-2.688H32.688c.016.912.032,1.808.1,2.688H26.112v4.464c0,2.064-.144,4.8-1.456,6.752a4.733,4.733,0,0,1,.992.8c1.44-2.08,1.68-5.3,1.68-7.536V-6.32H30.24c-.064,2.752-.144,3.76-.368,4-.1.144-.256.176-.48.176-.272,0-.96-.016-1.7-.08a2.473,2.473,0,0,1,.336,1.12,18.462,18.462,0,0,0,1.9,0,1.238,1.238,0,0,0,.96-.464c.336-.416.432-1.76.512-5.344v-.512h-4.08V-9.5h5.52a31.461,31.461,0,0,0,1.168,6.736,12.768,12.768,0,0,1-3.68,2.96,6.7,6.7,0,0,1,.864.944A14.3,14.3,0,0,0,34.5-1.52C35.232.128,36.192,1.1,37.424,1.1,38.64,1.1,39.072.32,39.3-2.4a2.812,2.812,0,0,1-1.024-.64c-.112,2.128-.3,2.96-.752,2.96-.816,0-1.552-.912-2.144-2.48a18.041,18.041,0,0,0,2.816-5.408ZM48-7.776a1.687,1.687,0,0,0-1.7,1.7,1.687,1.687,0,0,0,1.7,1.7,1.687,1.687,0,0,0,1.7-1.7A1.687,1.687,0,0,0,48-7.776ZM61.12-9.76H58.48v-2.016h2.64Zm0,2.976H58.48V-8.816h2.64Zm0,3.024H58.48V-5.84h2.64Zm1.088-9.008h-4.8V-2.8h4.8ZM58.256-2.448A7.076,7.076,0,0,1,56.576.576a5.248,5.248,0,0,1,.944.672,9.944,9.944,0,0,0,1.856-3.44Zm2.064.4a12.514,12.514,0,0,1,1.136,2.1l.976-.512a11.4,11.4,0,0,0-1.184-2Zm9.072-5.44a12.33,12.33,0,0,1-1.776,4.544,13.666,13.666,0,0,1-1.824-4.544Zm.56-1.088-.192.032H64.64v-2.944h6.288v-1.1H63.552V-6.8c0,2.3-.128,5.3-1.568,7.424a3.693,3.693,0,0,1,.928.64C64.432-.976,64.64-4.352,64.64-6.8v-.688h.128a15.983,15.983,0,0,0,2.16,5.472A8.3,8.3,0,0,1,63.888.256a3.967,3.967,0,0,1,.688.944,9.41,9.41,0,0,0,3.056-2.288,9.089,9.089,0,0,0,3.024,2.336,4.048,4.048,0,0,1,.784-.96,8.146,8.146,0,0,1-3.1-2.272,14.556,14.556,0,0,0,2.32-6.4Zm9.392-.544H74.576v1.056H85.52V-9.12H80.56V-10.7h6.384v-1.1H80.56v-1.568H79.344v1.568H73.088v1.1h6.256Zm7.168,5.392V-6.784H73.5v3.056h1.152V-5.7H85.312v1.968ZM77.28-4.88c-.224,2.768-.864,4.32-4.528,5.1a2.931,2.931,0,0,1,.672,1.008c3.968-.976,4.8-2.864,5.072-6.112ZM83.12-.16c-.624,0-.736-.08-.736-.512V-4.9H81.2v4.24c0,1.232.368,1.584,1.808,1.584h2.336c1.248,0,1.568-.544,1.712-2.688a4.132,4.132,0,0,1-1.088-.464C85.92-.432,85.824-.16,85.232-.16Zm12.24-12.5-1.312-.112a8.2,8.2,0,0,1-.4,2c-.352.016-.72.016-1.056.016a23.418,23.418,0,0,1-2.7-.176v1.2c.88.064,1.936.1,2.624.1h.7a16.878,16.878,0,0,1-3.7,4.9l1.088.8A21.136,21.136,0,0,1,92.064-5.6a4.212,4.212,0,0,1,2.752-1.168,1.335,1.335,0,0,1,1.456.992C94.4-4.8,92.5-3.616,92.5-1.728,92.5.224,94.336.72,96.624.72a37.586,37.586,0,0,0,4.384-.288l.032-1.28a28.491,28.491,0,0,1-4.368.384c-1.648,0-2.9-.192-2.9-1.44,0-1.056,1.04-1.9,2.528-2.688,0,.848-.016,1.888-.048,2.5h1.232c-.016-.784-.032-2.144-.048-3.072,1.216-.576,2.352-1.04,3.248-1.376a13.932,13.932,0,0,1,1.424-.512l-.528-1.2c-.448.24-.832.416-1.312.624-.832.384-1.808.768-2.9,1.3a2.066,2.066,0,0,0-2.144-1.44,4.581,4.581,0,0,0-2.224.592,12.7,12.7,0,0,0,1.44-2.48,46.28,46.28,0,0,0,5.312-.448l.016-1.184a39.35,39.35,0,0,1-4.88.5A16.333,16.333,0,0,0,95.36-12.656ZM-48.032,12.584H-55.84V13.7h7.808Zm-10.48-.976a15.889,15.889,0,0,1-3.664,3.472,10.33,10.33,0,0,1,.7.944,19.655,19.655,0,0,0,4.1-3.968Zm.656,3.408a17.442,17.442,0,0,1-4.48,4.816,11.4,11.4,0,0,1,.832.992A18.823,18.823,0,0,0-59.7,19.16v7.1h1.184V17.848a20.122,20.122,0,0,0,1.76-2.416Zm10.288,1.936h-8.96v1.136h5.344V24.68c0,.272-.1.336-.4.352s-1.36.016-2.5-.016a4.241,4.241,0,0,1,.384,1.152,12.085,12.085,0,0,0,3.008-.176c.528-.192.7-.56.7-1.3V18.088h2.416Zm7.984-4.656-1.408-.128a13.273,13.273,0,0,1-.5,2.768c-.624.048-1.232.08-1.808.08a15.092,15.092,0,0,1-1.952-.112l.08,1.2c.608.032,1.28.048,1.872.048.464,0,.944-.016,1.424-.048A23.677,23.677,0,0,1-45.3,22.088l1.232.64a28.3,28.3,0,0,0,3.488-6.752,21.7,21.7,0,0,0,2.912-.592l-.032-1.2a15.463,15.463,0,0,1-2.512.592C-39.952,13.848-39.728,12.872-39.584,12.3Zm-.88,11.1c0-.736.8-1.28,1.968-1.28a5.547,5.547,0,0,1,1.648.24c.016.272.016.512.016.72,0,.88-.448,1.584-1.776,1.584C-39.856,24.664-40.464,24.152-40.464,23.4Zm4.656-6.16h-1.248c.032,1.136.112,2.72.176,4.032a7.14,7.14,0,0,0-1.568-.16c-1.808,0-3.2.928-3.2,2.4,0,1.584,1.44,2.3,3.2,2.3,1.984,0,2.8-1.04,2.8-2.32,0-.192,0-.416-.016-.672a11.959,11.959,0,0,1,2.592,1.84l.688-1.088a10.977,10.977,0,0,0-3.328-1.984c-.032-.992-.1-2.032-.112-2.624C-35.84,18.392-35.84,17.9-35.808,17.24Zm3.2.432.72-1.056a24.167,24.167,0,0,0-3.728-2.128l-.656.976A18.736,18.736,0,0,1-32.608,17.672Zm4.368.944.544,1.312c1.024-.4,4.528-1.872,6.512-1.872a2.448,2.448,0,0,1,2.7,2.368c0,2.608-3.04,3.6-6.5,3.712l.512,1.232c4.32-.272,7.28-1.84,7.28-4.912,0-2.192-1.632-3.552-3.9-3.552a21.787,21.787,0,0,0-5.648,1.312A15.057,15.057,0,0,1-28.24,18.616Zm14-4.24.144,1.392c1.728-.368,5.808-.752,7.52-.944a6.5,6.5,0,0,0-2.992,5.408c0,3.568,3.376,5.152,6.336,5.264l.464-1.328c-2.608-.1-5.52-1.088-5.52-4.224a5.628,5.628,0,0,1,3.664-5.056,13.4,13.4,0,0,1,3.136-.256v-1.28c-1.072.048-2.576.128-4.32.288-2.944.24-5.968.544-7.008.656C-13.12,14.328-13.632,14.36-14.24,14.376Zm18.208-.544L2.416,13.8a7.217,7.217,0,0,1,.112,1.424c0,.928.032,2.88.176,4.272.432,4.144,1.888,5.648,3.408,5.648,1.072,0,2.048-.928,3.008-3.648L8.112,20.36c-.416,1.6-1.168,3.264-1.984,3.264-1.136,0-1.92-1.776-2.176-4.448-.112-1.328-.128-2.784-.112-3.792A12.182,12.182,0,0,1,3.968,13.832Zm8.336.448-1.248.432c1.536,1.872,2.5,5.152,2.784,8.048l1.28-.528A17.2,17.2,0,0,0,12.3,14.28ZM20.5,23.32c0-.736.832-1.328,2.352-1.328a7.1,7.1,0,0,1,1.552.16c0,.416.016.8.016,1.072,0,1.1-.784,1.392-1.7,1.392C21.136,24.616,20.5,24.056,20.5,23.32ZM25.568,12.3h-1.36a8.781,8.781,0,0,1,.064.96v1.136h-.736a29.071,29.071,0,0,1-4.1-.352l.016,1.184c1.008.112,2.976.272,4.1.272h.7v2.24h-.864a29.6,29.6,0,0,1-4.032-.3l.016,1.2c1.152.128,2.912.224,4,.224h.912c.016.688.048,1.456.064,2.176a9.164,9.164,0,0,0-1.344-.1c-2.3,0-3.7.992-3.7,2.448,0,1.536,1.248,2.352,3.552,2.352,2.08,0,2.816-1.136,2.816-2.24,0-.256-.016-.592-.032-.992A11.8,11.8,0,0,1,29.52,24.92l.736-1.136a12.733,12.733,0,0,0-4.672-2.5c-.032-.768-.08-1.632-.112-2.464,1.52-.048,2.928-.176,4.432-.368l.016-1.2a39.814,39.814,0,0,1-4.464.432v-2.24c1.536-.08,3.056-.224,4.32-.368l.016-1.168a39.783,39.783,0,0,1-4.336.432c0-.416.016-.768.016-.976A8.009,8.009,0,0,1,25.568,12.3Zm16.864.032H40.976c.016.128.08.592.1,1.008.016.224.032.608.032,1.056-2.384.032-5.392.128-7.168.16l.032,1.232c2-.144,4.72-.256,7.152-.272.016.56.016,1.136.016,1.616a3.2,3.2,0,0,0-1.072-.176,2.793,2.793,0,0,0-2.816,2.784,2.547,2.547,0,0,0,2.624,2.672,2.254,2.254,0,0,0,1.392-.432c-.64,1.456-2.112,2.352-4.24,2.832L38.1,25.864c3.728-1.12,4.784-3.52,4.784-5.68a3.888,3.888,0,0,0-.512-2.048c-.016-.736-.032-1.728-.032-2.64h.224c2.336,0,3.792.032,4.688.08l.016-1.184c-.768,0-2.736-.016-4.688-.016h-.24c0-.432.016-.8.016-1.04C42.368,13.128,42.4,12.5,42.432,12.328ZM38.448,19.72a1.63,1.63,0,0,1,1.616-1.7,1.434,1.434,0,0,1,1.424,1.008c.144,1.52-.464,2.272-1.408,2.272A1.541,1.541,0,0,1,38.448,19.72ZM49.9,21.1a2.44,2.44,0,1,0,2.448,2.432A2.441,2.441,0,0,0,49.9,21.1Zm0,4.064a1.624,1.624,0,1,1,1.632-1.632A1.625,1.625,0,0,1,49.9,25.16ZM-88.3,39.184l-.784-.752a7.9,7.9,0,0,1-1.12.1h-9.184a13.577,13.577,0,0,1-1.824-.144V39.84a17.879,17.879,0,0,1,1.824-.1h9.12a10.869,10.869,0,0,1-3.5,3.584l1.056.848a15.426,15.426,0,0,0,3.984-4.416C-88.624,39.584-88.416,39.344-88.3,39.184ZM-94.688,41.3h-1.44a9.618,9.618,0,0,1,.064,1.152c0,2.672-.352,4.944-2.832,6.464a5.511,5.511,0,0,1-1.44.72l1.184.96C-95.072,48.56-94.688,45.632-94.688,41.3Zm8.064,2.928.64,1.248a31.6,31.6,0,0,0,6.1-2.608v5.92a14.841,14.841,0,0,1-.1,1.712h1.568a12.074,12.074,0,0,1-.1-1.712V42.032a26.175,26.175,0,0,0,4.32-3.568l-1.072-.992a19.064,19.064,0,0,1-4.368,3.76A26.449,26.449,0,0,1-86.624,44.224Zm17.872-5.92v1.328c.416-.032.944-.048,1.472-.048h5.52c.464,0,1.024.016,1.488.048V38.3a11.616,11.616,0,0,1-1.488.1H-67.3A13.9,13.9,0,0,1-68.752,38.3ZM-70.64,42.32v1.328c.432-.032.9-.032,1.376-.032h4.8a7.668,7.668,0,0,1-.928,3.968,6.623,6.623,0,0,1-3.024,2.448l1.184.88A7.887,7.887,0,0,0-64.08,48a9.806,9.806,0,0,0,.944-4.384h4.352c.384,0,.9.016,1.248.032V42.32a8.577,8.577,0,0,1-1.248.08h-10.48A12.26,12.26,0,0,1-70.64,42.32Zm11.2-5.312-.848.352a18.285,18.285,0,0,1,1.3,2.224l.864-.384A18.464,18.464,0,0,0-59.44,37.008Zm1.76-.64-.848.352A15.24,15.24,0,0,1-57.2,38.928l.864-.384A21.043,21.043,0,0,0-57.68,36.368ZM-41.1,39.184l-.784-.752a7.9,7.9,0,0,1-1.12.1h-9.184a13.577,13.577,0,0,1-1.824-.144V39.84a17.878,17.878,0,0,1,1.824-.1h9.12a10.869,10.869,0,0,1-3.5,3.584l1.056.848a15.426,15.426,0,0,0,3.984-4.416C-41.424,39.584-41.216,39.344-41.1,39.184ZM-47.488,41.3h-1.44a9.619,9.619,0,0,1,.064,1.152c0,2.672-.352,4.944-2.832,6.464a5.511,5.511,0,0,1-1.44.72l1.184.96C-47.872,48.56-47.488,45.632-47.488,41.3Zm14.848-3.952-1.312-.112a8.2,8.2,0,0,1-.4,2c-.352.016-.72.016-1.056.016a23.418,23.418,0,0,1-2.7-.176v1.2c.88.064,1.936.1,2.624.1h.7a16.878,16.878,0,0,1-3.7,4.9l1.088.8A21.136,21.136,0,0,1-35.936,44.4a4.212,4.212,0,0,1,2.752-1.168,1.335,1.335,0,0,1,1.456.992c-1.872.976-3.776,2.16-3.776,4.048,0,1.952,1.84,2.448,4.128,2.448a37.586,37.586,0,0,0,4.384-.288l.032-1.28a28.491,28.491,0,0,1-4.368.384c-1.648,0-2.9-.192-2.9-1.44,0-1.056,1.04-1.9,2.528-2.688,0,.848-.016,1.888-.048,2.5h1.232c-.016-.784-.032-2.144-.048-3.072,1.216-.576,2.352-1.04,3.248-1.376a13.931,13.931,0,0,1,1.424-.512l-.528-1.2c-.448.24-.832.416-1.312.624-.832.384-1.808.768-2.9,1.3a2.066,2.066,0,0,0-2.144-1.44,4.581,4.581,0,0,0-2.224.592,12.7,12.7,0,0,0,1.44-2.48,46.28,46.28,0,0,0,5.312-.448l.016-1.184a39.351,39.351,0,0,1-4.88.5A16.334,16.334,0,0,0-32.64,37.344Zm10.112,8.336a12.5,12.5,0,0,1-.976,3.808,4.09,4.09,0,0,1,.88.432,14.648,14.648,0,0,0,1.1-4.064Zm4-1.28a5.425,5.425,0,0,1,.336,1.024l.944-.432a13.35,13.35,0,0,0-1.552-3.28l-.864.352a15.239,15.239,0,0,1,.72,1.344l-2.3.112a52.91,52.91,0,0,0,3.2-4.624l-.992-.464a33.062,33.062,0,0,1-1.712,2.9,11.33,11.33,0,0,0-.864-1.024,30.2,30.2,0,0,0,1.84-3.3l-1.04-.384a23.113,23.113,0,0,1-1.424,3.008c-.16-.16-.32-.3-.48-.448l-.64.752a14.446,14.446,0,0,1,1.984,2.32c-.336.48-.672.928-.992,1.328l-1.1.048.112,1.072,2.512-.16v6.672h1.056V44.48Zm1.024,4.032a11.75,11.75,0,0,0-.848-2.8l-.864.256a10.861,10.861,0,0,1,.784,2.816ZM-16.1,43.76h2.32v1.408H-16.1Zm0-2.256h2.32V42.9H-16.1Zm5.728,1.392h-2.4V41.5h2.4Zm0,2.272h-2.4V43.76h2.4Zm1.088.912V40.592H-12.7V39.264h3.776v-1.04H-12.7v-1.6H-13.84v1.6h-3.808v1.04h3.808v1.328h-3.312V46.08h2.8a11.089,11.089,0,0,1-4.128,3.68,4.31,4.31,0,0,1,.8.912,12.2,12.2,0,0,0,3.84-3.6V51.2H-12.7V46.976a13.839,13.839,0,0,0,3.52,3.568,5.541,5.541,0,0,1,.816-.912A12.271,12.271,0,0,1-12.16,46.08Zm3.84-2.464.544,1.312c1.024-.4,4.528-1.872,6.512-1.872a2.448,2.448,0,0,1,2.7,2.368c0,2.608-3.04,3.6-6.5,3.712l.512,1.232c4.32-.272,7.28-1.84,7.28-4.912,0-2.192-1.632-3.552-3.9-3.552a21.787,21.787,0,0,0-5.648,1.312A15.058,15.058,0,0,1-5.44,43.616Zm14-4.24L8.7,40.768c1.728-.368,5.808-.752,7.52-.944a6.5,6.5,0,0,0-2.992,5.408c0,3.568,3.376,5.152,6.336,5.264l.464-1.328c-2.608-.1-5.52-1.088-5.52-4.224a5.628,5.628,0,0,1,3.664-5.056,13.4,13.4,0,0,1,3.136-.256v-1.28c-1.072.048-2.576.128-4.32.288-2.944.24-5.968.544-7.008.656C9.68,39.328,9.168,39.36,8.56,39.376ZM23.968,43.12v1.3H38.5v-1.3Zm22.24-5.6-1.488-.16a16.717,16.717,0,0,1-.416,3.488c-.96.08-1.9.16-2.432.176a14.091,14.091,0,0,1-1.424,0l.128,1.392c.416-.064,1.072-.144,1.44-.192.416-.048,1.184-.144,2.032-.224a25.613,25.613,0,0,1-3.376,7.984l1.312.512a32.912,32.912,0,0,0,3.36-8.624c.7-.064,1.344-.112,1.728-.112,1.008,0,1.7.272,1.7,1.744A13.552,13.552,0,0,1,48,48.4a1.322,1.322,0,0,1-1.392.816,7.785,7.785,0,0,1-1.968-.32l.208,1.328a8.7,8.7,0,0,0,1.888.24,2.253,2.253,0,0,0,2.336-1.344A15.2,15.2,0,0,0,50,43.344c0-2.16-1.168-2.7-2.592-2.7-.384,0-1.056.048-1.808.112.176-.88.32-1.824.416-2.288C46.08,38.16,46.144,37.808,46.208,37.52Zm5.5,1.7-1.168.528a18.8,18.8,0,0,1,2.848,5.792l1.248-.592A28.457,28.457,0,0,0,51.712,39.216Zm8.848-1.76-.32,1.216c1.216.336,4.688,1.04,6.208,1.248l.3-1.232A43.7,43.7,0,0,1,60.56,37.456Zm-.352,2.912-1.344-.176a57.131,57.131,0,0,1-.816,6.5l1.184.288a2.527,2.527,0,0,1,.48-.8,6.271,6.271,0,0,1,4.96-2.144c1.632,0,2.816.912,2.816,2.192,0,2.192-2.464,3.648-7.52,3.024l.384,1.312c5.952.5,8.48-1.44,8.48-4.3,0-1.872-1.632-3.344-4.08-3.344a7.68,7.68,0,0,0-5.216,1.952C59.712,43.84,59.984,41.456,60.208,40.368Zm18.08-2.944-1.44-.1a5.489,5.489,0,0,1-.016,1.136c-.032.464-.1,1.04-.176,1.68a15.865,15.865,0,0,1-3.5-.592l-.064,1.168a22.067,22.067,0,0,0,3.44.56c-.128.944-.256,1.952-.352,2.9a14.279,14.279,0,0,1-3.408-.656L72.7,44.752a15.813,15.813,0,0,0,3.344.576c-.08.752-.128,1.392-.128,1.84,0,2.624,1.744,3.568,3.92,3.568,3.168,0,5.28-1.44,5.28-3.824a5.251,5.251,0,0,0-1.632-3.7L82.08,43.5a4.438,4.438,0,0,1,1.744,3.264c0,1.648-1.552,2.72-3.984,2.72-1.824,0-2.688-.96-2.688-2.512,0-.384.032-.944.1-1.584h.576a28.981,28.981,0,0,0,3.136-.16l.032-1.216a23.531,23.531,0,0,1-3.328.208h-.3c.112-.944.24-1.952.352-2.9h.112c1.3,0,2.224-.048,3.248-.144l.032-1.2a21.576,21.576,0,0,1-3.248.208c.1-.672.176-1.232.224-1.648A8.931,8.931,0,0,1,78.288,37.424Zm23.44,6.976A5.8,5.8,0,0,0,95.6,38.512a6.82,6.82,0,0,0-6.992,6.512c0,2.64,1.424,4.272,2.848,4.272,1.488,0,2.752-1.68,3.728-4.976a31.474,31.474,0,0,0,.96-4.608,4.456,4.456,0,0,1,4.272,4.64A4.832,4.832,0,0,1,96.352,49.1a12.087,12.087,0,0,1-1.376.208l.752,1.184C99.52,50,101.728,47.76,101.728,44.4Zm-11.872.512a5.581,5.581,0,0,1,4.96-5.184,26.141,26.141,0,0,1-.9,4.32c-.816,2.7-1.664,3.776-2.416,3.776C90.784,47.824,89.856,46.928,89.856,44.912ZM-79.84,62.344l-1.312-.112a8.2,8.2,0,0,1-.4,2c-.352.016-.72.016-1.056.016a23.418,23.418,0,0,1-2.7-.176v1.2c.88.064,1.936.1,2.624.1h.7a16.878,16.878,0,0,1-3.7,4.9l1.088.8A21.134,21.134,0,0,1-83.136,69.4a4.212,4.212,0,0,1,2.752-1.168,1.335,1.335,0,0,1,1.456.992c-1.872.976-3.776,2.16-3.776,4.048,0,1.952,1.84,2.448,4.128,2.448a37.586,37.586,0,0,0,4.384-.288l.032-1.28a28.491,28.491,0,0,1-4.368.384c-1.648,0-2.9-.192-2.9-1.44,0-1.056,1.04-1.9,2.528-2.688,0,.848-.016,1.888-.048,2.5h1.232c-.016-.784-.032-2.144-.048-3.072,1.216-.576,2.352-1.04,3.248-1.376a13.931,13.931,0,0,1,1.424-.512l-.528-1.2c-.448.24-.832.416-1.312.624-.832.384-1.808.768-2.9,1.3a2.066,2.066,0,0,0-2.144-1.44,4.581,4.581,0,0,0-2.224.592,12.7,12.7,0,0,0,1.44-2.48,46.28,46.28,0,0,0,5.312-.448l.016-1.184a39.35,39.35,0,0,1-4.88.5A16.333,16.333,0,0,0-79.84,62.344Zm13.232-.672a17.812,17.812,0,0,1-3.952,6.352,5.976,5.976,0,0,1,.688,1.184,15.866,15.866,0,0,0,1.584-1.9v8.9H-67.1V65.464a24.758,24.758,0,0,0,1.632-3.424Zm10.736,3.744V64.28h-6.656c.32-.7.624-1.424.88-2.16l-1.136-.3a16.95,16.95,0,0,1-3.52,6.128,7.78,7.78,0,0,1,.928.8A17.535,17.535,0,0,0-63.1,65.416H-62v10.8h1.2V72.344h4.784v-1.12H-60.8V68.808h4.56V67.7H-60.8V65.416Zm6.528,7.9a1.169,1.169,0,0,1,1.28-1.024,2.182,2.182,0,0,1,2.144,2.176,8.215,8.215,0,0,1-1.3.1C-48.464,74.568-49.344,74.088-49.344,73.32Zm-2.048-10.112.048,1.328c.336-.048.7-.08,1.056-.1.848-.048,4.048-.192,4.9-.224-.816.72-2.816,2.4-3.712,3.136-.928.784-2.976,2.5-4.3,3.584l.912.944c2.032-2.064,3.456-3.2,6.128-3.2,2.08,0,3.584,1.184,3.584,2.752a2.81,2.81,0,0,1-2,2.736,3.1,3.1,0,0,0-3.264-2.832,2.247,2.247,0,0,0-2.464,2.08c0,1.328,1.328,2.272,3.5,2.272,3.392,0,5.5-1.664,5.5-4.24,0-2.16-1.9-3.76-4.56-3.76a6.77,6.77,0,0,0-2.224.336c1.248-1.04,3.424-2.9,4.224-3.5.288-.24.608-.448.9-.656l-.736-.928a3.773,3.773,0,0,1-.864.128c-.848.08-4.656.208-5.488.208A9.54,9.54,0,0,1-51.392,63.208Zm26.72,6.192A5.8,5.8,0,0,0-30.8,63.512a6.82,6.82,0,0,0-6.992,6.512c0,2.64,1.424,4.272,2.848,4.272,1.488,0,2.752-1.68,3.728-4.976a31.474,31.474,0,0,0,.96-4.608,4.456,4.456,0,0,1,4.272,4.64A4.832,4.832,0,0,1-30.048,74.1a12.085,12.085,0,0,1-1.376.208l.752,1.184C-26.88,75-24.672,72.76-24.672,69.4Zm-11.872.512a5.581,5.581,0,0,1,4.96-5.184,26.142,26.142,0,0,1-.9,4.32c-.816,2.7-1.664,3.776-2.416,3.776C-35.616,72.824-36.544,71.928-36.544,69.912Zm20.128-7.344-1.472-.144a17.863,17.863,0,0,1-.416,3.488c-.976.08-1.9.16-2.432.176-.512.016-.928.016-1.44,0l.144,1.376c.4-.064,1.072-.144,1.44-.192.416-.048,1.184-.128,2.032-.208a25.379,25.379,0,0,1-3.376,7.968l1.3.528a32.655,32.655,0,0,0,3.376-8.624c.688-.064,1.328-.112,1.712-.112,1.024,0,1.7.272,1.7,1.728a13.518,13.518,0,0,1-.752,4.9,1.334,1.334,0,0,1-1.408.832,7.79,7.79,0,0,1-1.952-.336l.208,1.344a9.693,9.693,0,0,0,1.888.224,2.252,2.252,0,0,0,2.336-1.328,15.52,15.52,0,0,0,.928-5.776c0-2.176-1.168-2.72-2.608-2.72-.384,0-1.04.048-1.792.112.176-.864.32-1.808.416-2.272C-16.544,63.208-16.48,62.872-16.416,62.568Zm5.5,1.856-1.168.528A18.771,18.771,0,0,1-9.216,70.7l1.232-.592A27.3,27.3,0,0,0-10.912,64.424Zm.192-2.32-.864.352a19.585,19.585,0,0,1,1.3,2.224l.88-.384A22.676,22.676,0,0,0-10.72,62.1Zm1.76-.656-.848.368A17.941,17.941,0,0,1-8.48,64.024l.864-.384A23.092,23.092,0,0,0-8.96,61.448ZM7.824,67.4V66.184H1.216a37.151,37.151,0,0,0,.256-4.544H.192a34.079,34.079,0,0,1-.24,4.544h-6.1V67.4h5.9a10.387,10.387,0,0,1-6.224,7.824,3.432,3.432,0,0,1,.9.976A11.2,11.2,0,0,0,.816,68.28c1.264,3.632,3.3,6.464,6.368,7.92a6.119,6.119,0,0,1,.9-1.12c-3.088-1.264-5.168-4.16-6.288-7.68Zm6.48-1.408a18.308,18.308,0,0,1-1.232,5.3c-.608-.432-1.248-.832-1.856-1.184.32-1.264.656-2.688.976-4.112Zm.5-1.136-.208.048h-2.16c.24-1.1.464-2.176.656-3.152l-1.136-.128c-.176.992-.4,2.128-.656,3.28H9.552v1.088h1.52c-.448,2-.928,3.968-1.312,5.344l.992.512.176-.672c.56.352,1.12.736,1.648,1.136a7.036,7.036,0,0,1-2.9,2.976,4.647,4.647,0,0,1,.736.96,8.506,8.506,0,0,0,3.072-3.216,11.989,11.989,0,0,1,1.632,1.6l.72-.944a11.277,11.277,0,0,0-1.824-1.7A21.3,21.3,0,0,0,15.5,65.016Zm9.36,3.168H20.352V66.6a18.415,18.415,0,0,0,3.472-3.664l-.784-.576-.24.08H15.952v1.088h5.984A15.271,15.271,0,0,1,19.648,65.9h-.48v2.128H15.424v1.1h3.744v5.584c0,.24-.08.32-.352.336s-1.168.016-2.176-.016a4.642,4.642,0,0,1,.448,1.152,9.117,9.117,0,0,0,2.592-.208c.512-.192.672-.544.672-1.264V69.128H24.16Zm8.672-4.192a3.736,3.736,0,0,0,.112.4,32.058,32.058,0,0,1-5.28-.192l.08,1.168a38.339,38.339,0,0,0,5.5.112q.192.576.432,1.248c.1.272.208.544.32.832a35.866,35.866,0,0,1-6.64-.08l.064,1.2a46.555,46.555,0,0,0,7.04-.032,16.926,16.926,0,0,0,1.248,2.3c-.512-.064-1.552-.176-2.4-.272L33.2,71.5a29.645,29.645,0,0,1,3.5.512l.656-.976a4.806,4.806,0,0,1-.592-.688,15.894,15.894,0,0,1-1.12-1.984,24.949,24.949,0,0,0,2.9-.576l-.192-1.2a17.678,17.678,0,0,1-3.2.688c-.128-.32-.256-.656-.368-.96-.112-.336-.24-.7-.352-1.1a23.3,23.3,0,0,0,3.152-.64l-.176-1.152a17.8,17.8,0,0,1-3.28.72,12.169,12.169,0,0,1-.384-1.9l-1.36.176C32.544,62.856,32.7,63.352,32.832,63.832ZM29.68,70.76,28.432,70.5a4.647,4.647,0,0,0-.624,2.288c.016,2.048,1.776,2.976,4.912,2.976a24.334,24.334,0,0,0,3.744-.272l.048-1.28a18.118,18.118,0,0,1-3.808.336c-2.512,0-3.7-.656-3.7-1.984A3.1,3.1,0,0,1,29.68,70.76Zm12.384-6.288.144,1.392c1.728-.368,5.808-.752,7.52-.944a6.5,6.5,0,0,0-2.992,5.408c0,3.568,3.376,5.152,6.336,5.264l.464-1.328c-2.608-.1-5.52-1.088-5.52-4.208a5.631,5.631,0,0,1,3.664-5.072,13.4,13.4,0,0,1,3.136-.256v-1.28c-1.072.048-2.576.144-4.32.288-2.944.24-5.968.544-7.008.656C43.184,64.424,42.672,64.456,42.064,64.472ZM52.512,66.7l-.816.352A14.854,14.854,0,0,1,53.008,69.3l.816-.384A18.991,18.991,0,0,0,52.512,66.7Zm1.744-.672-.784.368a14.83,14.83,0,0,1,1.344,2.24l.832-.4A21.132,21.132,0,0,0,54.256,66.024Zm12.576-3.7H65.376c.016.128.08.592.1,1.008.016.224.032.608.032,1.056-2.384.032-5.392.128-7.168.16l.032,1.232c2-.144,4.72-.256,7.152-.272.016.56.016,1.136.016,1.616a3.2,3.2,0,0,0-1.072-.176,2.793,2.793,0,0,0-2.816,2.784,2.547,2.547,0,0,0,2.624,2.672,2.254,2.254,0,0,0,1.392-.432c-.64,1.456-2.112,2.352-4.24,2.832L62.5,75.864c3.728-1.12,4.784-3.52,4.784-5.68a3.888,3.888,0,0,0-.512-2.048c-.016-.736-.032-1.728-.032-2.64h.224c2.336,0,3.792.032,4.688.08l.016-1.184c-.768,0-2.736-.016-4.688-.016h-.24c0-.432.016-.8.016-1.04C66.768,63.128,66.8,62.5,66.832,62.328ZM62.848,69.72a1.63,1.63,0,0,1,1.616-1.7,1.434,1.434,0,0,1,1.424,1.008c.144,1.52-.464,2.272-1.408,2.272A1.541,1.541,0,0,1,62.848,69.72ZM74.3,71.1a2.44,2.44,0,1,0,2.448,2.432A2.441,2.441,0,0,0,74.3,71.1Zm0,4.064a1.624,1.624,0,1,1,1.632-1.632A1.625,1.625,0,0,1,74.3,75.16Z" transform="translate(918 4992)" fill="#2c2d48"/>
    <g id="グループ_47" data-name="グループ 47" transform="translate(-25 -10)">
      <circle id="楕円形_13-2" data-name="楕円形 13" cx="85" cy="85" r="85" transform="translate(858 4745)" fill="#fff"/>
      <g id="layer1-2" data-name="layer1" transform="translate(885 4779.255)">
        <path id="path302" d="M81.551,275.4c-14.38-15.43-16.3-17.834-17.581-22.016a18.991,18.991,0,0,1,.6-10.728,18.686,18.686,0,0,1,7.444-8.356,17.553,17.553,0,0,1,10.86-2.657,13.152,13.152,0,0,1,6.817,1.728c1.781.861,3.378,1.625,3.549,1.7s.31-3.639.31-8.249c0-6,.181-9.221.636-11.336,3.6-16.722,21.018-28.424,38.667-25.972a34,34,0,0,1,19.4,9.481A32.842,32.842,0,0,1,161,212.52l1.333,3.769.117,37.193.117,37.193H95.788ZM154.28,251.58c0-26.876-.09-31.577-.654-34.2-2.06-9.578-9.459-16.9-19.579-19.374a34.415,34.415,0,0,0-14.825.632,31.244,31.244,0,0,0-10.162,6.375,28.243,28.243,0,0,0-5.889,9.656c-1.076,3.108-1.117,3.561-1.338,14.927-.252,12.915-.221,12.764-3.009,14.8-2.954,2.159-5.653,1.874-8.74-.921-2.694-2.44-4.993-3.579-7.782-3.855a9.775,9.775,0,0,0-10.04,6.773,7.264,7.264,0,0,0,.005,5.659c.536,1.732,2.308,3.809,13.69,16.04,7.191,7.728,13.281,14.181,13.535,14.342s12.684.294,27.624.3l27.164.006Z" transform="translate(-63.456 -189.185)" fill="#2c2d48"/>
      </g>
    </g>
  </g>
</svg>
