<svg xmlns="http://www.w3.org/2000/svg" xmlns:xlink="http://www.w3.org/1999/xlink" width="500" height="717" viewBox="0 0 500 717">
  <defs>
    <clipPath id="clip-path">
      <rect id="長方形_3" data-name="長方形 3" width="253" height="196" fill="#fff"/>
    </clipPath>
    <clipPath id="clip-path-2">
      <rect id="長方形_5" data-name="長方形 5" width="108" height="92" fill="#fff" stroke="#707070" stroke-width="1"/>
    </clipPath>
    <clipPath id="clip-path-3">
      <rect id="長方形_6" data-name="長方形 6" width="106" height="96" fill="#fff" stroke="#707070" stroke-width="1"/>
    </clipPath>
  </defs>
  <g id="グループ_55" data-name="グループ 55" transform="translate(-466 -3585)">
    <g id="グループ_52" data-name="グループ 52" transform="translate(1542 -172)">
      <g id="グループ_39" data-name="グループ 39" transform="translate(-1526 350)">
        <rect id="長方形_1" data-name="長方形 1" width="250" height="717" transform="translate(450 3407)" fill="#ffe699"/>
        <rect id="長方形_2" data-name="長方形 2" width="250" height="717" transform="translate(700 3407)" fill="#f3e7e0"/>
        <g id="グループ_11" data-name="グループ 11" transform="translate(576 3447.657)">
          <text id="STRENGTH" transform="translate(16.623 40)" fill="#2c2d48" font-size="40" font-family="TsukuARdGothicStd-B, FOT-TsukuARdGothic Std"><tspan x="0" y="0">STRENGTH</tspan></text>
          <text id="強み" transform="translate(95.123 97.342)" fill="#2c2d48" font-size="32" font-family="TsukuARdGothicStd-B, FOT-TsukuARdGothic Std"><tspan x="0" y="0">強み</tspan></text>
        </g>
        <text id="デザインに対する好奇心とものづくりへの想いで_人々をワクワクさせるデザインを作りたいです_" data-name="デザインに対する好奇心とものづくりへの想いで人々をワクワクさせるデザインを作りたいです。" transform="translate(526 3683)" fill="#2c2d48" font-size="16" font-family="NotoSansJP-Bold, Noto Sans JP" font-weight="700"><tspan x="0" y="0">デザインに</tspan><tspan y="0">対</tspan><tspan y="0">する</tspan><tspan y="0">好奇心</tspan><tspan y="0">とものづくりへの</tspan><tspan y="0">想</tspan><tspan y="0">いで</tspan><tspan x="0" y="30">人々</tspan><tspan y="30">をワクワクさせるデザインを</tspan><tspan y="30">作</tspan><tspan y="30">りたいです。</tspan></text>
        <text id="幼い頃から読書が趣味で_小説に限らず哲学や社会学など_自分の興味のある分野の本を読_んできました_" data-name="幼い頃から読書が趣味で、小説に限らず哲学や社会学など自分の興味のある分野の本を読んできました。" transform="translate(575 3974)" fill="#2c2d48" font-size="15" font-family="NotoSansJP-Regular, Noto Sans JP"><tspan x="-89.7" y="0">幼</tspan><tspan y="0">い</tspan><tspan y="0">頃</tspan><tspan y="0">から</tspan><tspan y="0">読書</tspan><tspan y="0">が</tspan><tspan y="0">趣味</tspan><tspan y="0">で、</tspan><tspan x="-104.85" y="25">小説</tspan><tspan y="25">に</tspan><tspan y="25">限</tspan><tspan y="25">らず</tspan><tspan y="25">哲学</tspan><tspan y="25">や</tspan><tspan y="25">社会学</tspan><tspan y="25">など</tspan><tspan x="-105" y="50">自分</tspan><tspan y="50">の</tspan><tspan y="50">興味</tspan><tspan y="50">のある</tspan><tspan y="50">分野</tspan><tspan y="50">の</tspan><tspan y="50">本</tspan><tspan y="50">を</tspan><tspan y="50">読</tspan><tspan x="-52.125" y="75">んできました。</tspan><tspan x="0" y="100"></tspan></text>
        <text id="趣味で編み物の作成_販売を_行なっています_アイデアを練って一からもの_を作るのが大好きです_" data-name="趣味で編み物の作成・販売を行なっています。アイデアを練って一からものを作るのが大好きです。" transform="translate(824.309 3971)" fill="#2c2d48" font-size="15" font-family="NotoSansJP-Regular, Noto Sans JP"><tspan x="-97.5" y="0">趣味</tspan><tspan y="0">で</tspan><tspan y="0">編</tspan><tspan y="0">み</tspan><tspan y="0">物</tspan><tspan y="0">の</tspan><tspan y="0">作成・販売</tspan><tspan y="0">を</tspan><tspan x="-58.875" y="25">行</tspan><tspan y="25">なっています。</tspan><tspan x="-96.75" y="50">アイデアを</tspan><tspan y="50">練</tspan><tspan y="50">って</tspan><tspan y="50">一</tspan><tspan y="50">からもの</tspan><tspan x="-81.75" y="75">を</tspan><tspan y="75">作</tspan><tspan y="75">るのが</tspan><tspan y="75">大好</tspan><tspan y="75">きです。</tspan></text>
        <text id="知的好奇心_ものづくり" data-name="知的好奇心×ものづくり" transform="translate(700 3630)" fill="#2c2d48" font-size="30" font-family="NotoSansJP-Bold, Noto Sans JP" font-weight="700"><tspan x="-165" y="0">知的好奇心×</tspan><tspan y="0">ものづくり</tspan></text>
        <text id="読書" transform="translate(575 3936)" fill="#2c2d48" font-size="20" font-family="NotoSansJP-Bold, Noto Sans JP" font-weight="700"><tspan x="-20" y="0">読書</tspan></text>
        <text id="編み物" transform="translate(824.309 3936)" fill="#2c2d48" font-size="20" font-family="NotoSansJP-Bold, Noto Sans JP" font-weight="700"><tspan x="-30" y="0">編</tspan><tspan y="0">み</tspan><tspan y="0">物</tspan></text>
        <g id="グループ_37" data-name="グループ 37" transform="translate(750 3750)">
          <circle id="楕円形_13" data-name="楕円形 13" cx="75" cy="75" r="75" fill="#fff"/>
          <g id="マスクグループ_3" data-name="マスクグループ 3" transform="translate(13 27)" clip-path="url(#clip-path-2)">
            <g id="layer1" transform="translate(11.221 0.325)">
              <path id="path302" d="M79.152,267.061c-12.473-13.938-14.138-16.109-15.25-19.887a17.83,17.83,0,0,1,.52-9.691,16.675,16.675,0,0,1,6.457-7.548,14.754,14.754,0,0,1,9.42-2.4,11.054,11.054,0,0,1,5.913,1.561c1.545.778,2.93,1.468,3.078,1.534a50.679,50.679,0,0,0,.269-7.451c0-5.418.157-8.329.551-10.24,3.12-15.105,18.232-25.675,33.54-23.461a29.047,29.047,0,0,1,16.832,8.564,29.821,29.821,0,0,1,7.587,12.221l1.156,3.4.1,33.6.1,33.6H91.5Zm63.086-21.515c0-24.277-.078-28.524-.567-30.892a22.676,22.676,0,0,0-16.983-17.5,28.7,28.7,0,0,0-12.859.571,26.973,26.973,0,0,0-8.814,5.759,25.722,25.722,0,0,0-5.108,8.723c-.934,2.807-.969,3.216-1.161,13.484-.218,11.666-.192,11.53-2.61,13.37-2.563,1.95-4.9,1.693-7.581-.832-2.337-2.2-4.331-3.233-6.75-3.482a8.492,8.492,0,0,0-8.709,6.118,6.812,6.812,0,0,0,0,5.112c.465,1.565,2,3.44,11.875,14.489,6.237,6.98,11.52,12.81,11.74,12.955s11,.266,23.961.269l23.562.005Z" transform="translate(-63.456 -189.185)" fill="#2c2d48"/>
            </g>
          </g>
        </g>
        <g id="グループ_36" data-name="グループ 36" transform="translate(500 3750)">
          <circle id="楕円形_13-2" data-name="楕円形 13" cx="75" cy="75" r="75" fill="#fff"/>
          <g id="マスクグループ_4" data-name="マスクグループ 4" transform="translate(22 25)" clip-path="url(#clip-path-3)">
            <g id="layer1-2" data-name="layer1" transform="translate(1.491 -0.152)">
              <path id="path1197" d="M364.265,677.965c-1.57-.332-36.319-14.507-41.612-16.975-3.386-1.578-4.68-5.381-4.01-11.789a25.119,25.119,0,0,1,1.284-6.256,1.856,1.856,0,0,0-.195-2.442c-1.278-1.279-1.3-14.307-.028-15.581.694-.694.616-1.671-.312-3.889-1.457-3.482-.953-12.311.859-15.062,1.4-2.121,55.257-24.066,59.066-24.066,2.68,0,39.4,14.822,41.357,16.695.942.9,1.142,6.016,1.129,28.821-.009,15.779-.338,28.048-.764,28.474-.768.768-49.467,20.783-53.117,21.83a9.131,9.131,0,0,1-3.657.239Zm30.883-15.588c11.175-4.567,20.775-8.489,21.333-8.715.684-.277,1.016-2.374,1.016-6.42,0-3.3-.165-6.008-.367-6.008s-11.564,4.571-25.249,10.159-25.406,10.159-26.046,10.159c-.913,0-1.164,1.4-1.164,6.495v6.495l5.079-1.93C372.545,671.549,383.973,666.944,395.148,662.376Zm-33.083,4.306-.237-6.246-18.657-7.592c-10.262-4.176-19.173-7.394-19.8-7.153-.871.334-1.065,1.692-.811,5.68a24.418,24.418,0,0,0,.749,5.656c.662.662,36.783,15.714,37.946,15.812.793.067.992-1.437.813-6.158Zm28.872-21.052c13.938-5.627,25.633-10.509,25.989-10.847s.539-3.207.406-6.374l-.241-5.759L392.3,632.675c-13.633,5.513-25.427,10.232-26.21,10.485-1.188.385-1.422,1.469-1.422,6.581,0,3.366.208,6.121.462,6.121s11.866-4.6,25.8-10.232Zm-29.028-3.367c-.218-.218-8.886-3.852-19.261-8.074-14.554-5.923-19.018-7.435-19.538-6.615-.822,1.3-.811,7.8.015,9.909.415,1.057,6.512,3.971,19.651,9.394l19.049,7.862.239-6.04c.131-3.322.061-6.218-.158-6.437Zm31.208-15.656c12.292-5.018,22.806-9.305,23.365-9.526.685-.271,1.016-2.36,1.016-6.411,0-3.3-.18-6.008-.4-6.008s-11.611,4.571-25.313,10.159-25.408,10.159-26.013,10.159c-.832,0-1.1,1.572-1.1,6.466v6.466l3.048-1.09C369.4,636.221,380.824,631.625,393.116,626.607Zm-31.052,3.486-.237-6.264-18.658-7.574c-10.262-4.166-19.13-7.393-19.708-7.171-1.09.418-1.443,6.63-.562,9.912.371,1.383,4.3,3.323,19.291,9.523,10.353,4.282,19.114,7.8,19.468,7.812s.537-2.793.406-6.238Z" transform="translate(-318.472 -581.906)" fill="#2c2d48"/>
            </g>
          </g>
        </g>
      </g>
    </g>
  </g>
</svg>
