<svg xmlns="http://www.w3.org/2000/svg" width="318" height="40" viewBox="0 0 318 40">
  <g id="グループ_71" data-name="グループ 71" transform="translate(-541 -702)">
    <circle id="楕円形_66" data-name="楕円形 66" cx="20" cy="20" r="20" transform="translate(541 702)" fill="#ffe699"/>
    <path id="パス_70" data-name="パス 70" d="M37.064,25.024c2.688-11.136,4.384-18.752,4.384-19.36A1.868,1.868,0,0,0,39.432,4,1.745,1.745,0,0,0,37.64,5.376c-3.616,18.368-3.808,18.368-4.256,18.368-.16,0-.32-.192-.416-.736C32.3,19.3,30.7,10.08,29.992,6.432a3.061,3.061,0,0,0-3.1-2.368,2.892,2.892,0,0,0-2.944,2.5c-.832,4.256-2.56,13.952-3.168,16.608-.1.48-.32.832-.576.832-.448,0-.512-.192-3.712-18.592A1.818,1.818,0,0,0,14.568,4a1.788,1.788,0,0,0-1.952,1.7c0,.576.448,3.008,3.872,19.2.48,2.272,1.984,3.392,3.552,3.392,1.536,0,3.1-1.12,3.68-3.424C24.744,20.928,26.28,11.84,26.7,8.928c.064-.352.16-.576.256-.576s.192.16.256.576C27.56,11.616,29.224,21.5,30.056,24.9c.576,2.336,2.016,3.392,3.456,3.392A3.869,3.869,0,0,0,37.064,25.024Zm19.328,3.584c7.04,0,12.352-4.96,12.352-12.416A12.042,12.042,0,0,0,56.392,3.776a12.016,12.016,0,0,0-12.32,12.416C44.072,23.648,49.352,28.608,56.392,28.608Zm0-3.36c-4.736,0-8.576-3.552-8.576-9.056,0-5.536,3.84-9.12,8.576-9.12s8.576,3.584,8.576,9.12C64.968,21.7,61.128,25.248,56.392,25.248Zm28.672-.928c2.176,3.872,4.8,3.968,5.312,3.968a1.9,1.9,0,0,0,.384-3.776c-1.088-.128-1.824-.736-2.624-2.048a34.861,34.861,0,0,0-3.584-5.472c-.224-.256-.448-.416-.448-.544,0-.1.1-.128.32-.192A6.035,6.035,0,0,0,89.1,10.24c0-3.008-2.144-6.048-7.328-6.4-.48-.032-1.216-.064-1.952-.064-2.688,0-6.336,0-6.432,4.1-.032,1.312-.032,1.44-.032,8.352,0,3.52,0,7.328-.1,10.3v.064a1.612,1.612,0,0,0,1.728,1.6,1.778,1.778,0,0,0,1.888-1.76c0-1.152-.1-6.4-.1-8.8,0-.576.448-.608,1.056-.608s1.344.032,1.76.032C81.128,17.088,83.016,20.768,85.064,24.32ZM81.672,14.08c-.576.032-1.408.064-2.208.064-2.24,0-2.656-.032-2.656-.672.032-1.856,0-4.128.064-4.9.1-1.5,1.248-1.6,2.976-1.6.608,0,1.184,0,1.6.032,2.784.16,4,1.728,4,3.328A3.939,3.939,0,0,1,81.672,14.08Zm13.7,12.672a1.66,1.66,0,0,0,1.856,1.536c.928,0,1.824-.48,1.824-1.5V26.72c-.064-1.472-.064-2.88-.064-4.16,0-2.08.032-3.776.064-4.608,0-.48.352-.512.608-.512s.448-.032.672-.032a1.578,1.578,0,0,1,1.344.64c2.336,2.72,7.744,8.512,8.832,9.632a1.977,1.977,0,0,0,1.44.64,2.226,2.226,0,0,0,2.144-2.112,1.952,1.952,0,0,0-.544-1.312c-.544-.608-6.4-6.176-9.12-8.96a.786.786,0,0,1-.288-.48.77.77,0,0,1,.288-.512c2.24-2.368,6.144-6.272,7.552-8a1.571,1.571,0,0,0,.352-.992A2.145,2.145,0,0,0,110.248,4a1.579,1.579,0,0,0-1.312.672c-1.312,1.728-5.024,5.824-7.328,8.32a2.206,2.206,0,0,1-1.728.928c-.768,0-.832-.352-.832-.64-.032-.8-.064-2.208-.064-3.936,0-1.12.032-2.368.064-3.648V5.632a1.717,1.717,0,0,0-1.856-1.664A1.657,1.657,0,0,0,95.368,5.7c.064,2.432.1,5.824.1,9.408,0,4-.032,8.224-.1,11.616Zm34.5,1.44A1.9,1.9,0,0,0,131.88,26.3a1.708,1.708,0,0,0-1.92-1.664c-2.624,0-6.24.256-8.9.288,2.656-2.88,5.792-5.6,8.224-8.672,1.888-2.4,2.656-4.512,2.656-6.336,0-3.808-3.52-6.112-7.232-6.112-5.024,0-7.456,3.808-7.456,4.928a1.815,1.815,0,0,0,1.888,1.7,1.935,1.935,0,0,0,1.664-.96,4.663,4.663,0,0,1,3.936-2.464,3.193,3.193,0,0,1,3.328,3.264,6.6,6.6,0,0,1-1.792,4.1c-2.816,3.456-6.528,7.264-8.736,9.76a3.26,3.26,0,0,0-.928,2.176,1.756,1.756,0,0,0,1.792,1.888Z" transform="translate(627 710)" fill="#2c2d48"/>
    <circle id="楕円形_67" data-name="楕円形 67" cx="20" cy="20" r="20" transform="translate(819 702)" fill="#ffe699"/>
  </g>
</svg>
