<svg xmlns="http://www.w3.org/2000/svg" width="318" height="74.752" viewBox="0 0 318 74.752">
  <g id="グループ_69" data-name="グループ 69" transform="translate(-541 -236)">
    <circle id="楕円形_52" data-name="楕円形 52" cx="20" cy="20" r="20" transform="translate(541 236)" fill="#ffe699"/>
    <path id="パス_64" data-name="パス 64" d="M37.528,25.024c2.688-11.136,4.384-18.752,4.384-19.36A1.868,1.868,0,0,0,39.9,4,1.745,1.745,0,0,0,38.1,5.376C34.488,23.744,34.3,23.744,33.848,23.744c-.16,0-.32-.192-.416-.736C32.76,19.3,31.16,10.08,30.456,6.432a3.061,3.061,0,0,0-3.1-2.368,2.892,2.892,0,0,0-2.944,2.5c-.832,4.256-2.56,13.952-3.168,16.608-.1.48-.32.832-.576.832-.448,0-.512-.192-3.712-18.592A1.818,1.818,0,0,0,15.032,4,1.788,1.788,0,0,0,13.08,5.7c0,.576.448,3.008,3.872,19.2.48,2.272,1.984,3.392,3.552,3.392,1.536,0,3.1-1.12,3.68-3.424,1.024-3.936,2.56-13.024,2.976-15.936.064-.352.16-.576.256-.576s.192.16.256.576C28.024,11.616,29.688,21.5,30.52,24.9c.576,2.336,2.016,3.392,3.456,3.392A3.869,3.869,0,0,0,37.528,25.024Zm19.328,3.584c7.04,0,12.352-4.96,12.352-12.416A12.042,12.042,0,0,0,56.856,3.776a12.016,12.016,0,0,0-12.32,12.416C44.536,23.648,49.816,28.608,56.856,28.608Zm0-3.36c-4.736,0-8.576-3.552-8.576-9.056,0-5.536,3.84-9.12,8.576-9.12s8.576,3.584,8.576,9.12C65.432,21.7,61.592,25.248,56.856,25.248Zm28.672-.928c2.176,3.872,4.8,3.968,5.312,3.968a1.9,1.9,0,0,0,.384-3.776c-1.088-.128-1.824-.736-2.624-2.048a34.861,34.861,0,0,0-3.584-5.472c-.224-.256-.448-.416-.448-.544,0-.1.1-.128.32-.192A6.035,6.035,0,0,0,89.56,10.24c0-3.008-2.144-6.048-7.328-6.4-.48-.032-1.216-.064-1.952-.064-2.688,0-6.336,0-6.432,4.1-.032,1.312-.032,1.44-.032,8.352,0,3.52,0,7.328-.1,10.3v.064a1.612,1.612,0,0,0,1.728,1.6,1.778,1.778,0,0,0,1.888-1.76c0-1.152-.1-6.4-.1-8.8,0-.576.448-.608,1.056-.608s1.344.032,1.76.032C81.592,17.088,83.48,20.768,85.528,24.32ZM82.136,14.08c-.576.032-1.408.064-2.208.064-2.24,0-2.656-.032-2.656-.672.032-1.856,0-4.128.064-4.9.1-1.5,1.248-1.6,2.976-1.6.608,0,1.184,0,1.6.032,2.784.16,4,1.728,4,3.328A3.939,3.939,0,0,1,82.136,14.08Zm13.7,12.672a1.66,1.66,0,0,0,1.856,1.536c.928,0,1.824-.48,1.824-1.5V26.72c-.064-1.472-.064-2.88-.064-4.16,0-2.08.032-3.776.064-4.608,0-.48.352-.512.608-.512s.448-.032.672-.032a1.578,1.578,0,0,1,1.344.64c2.336,2.72,7.744,8.512,8.832,9.632a1.977,1.977,0,0,0,1.44.64,2.226,2.226,0,0,0,2.144-2.112,1.952,1.952,0,0,0-.544-1.312c-.544-.608-6.4-6.176-9.12-8.96a.786.786,0,0,1-.288-.48.77.77,0,0,1,.288-.512c2.24-2.368,6.144-6.272,7.552-8a1.571,1.571,0,0,0,.352-.992A2.145,2.145,0,0,0,110.712,4a1.579,1.579,0,0,0-1.312.672c-1.312,1.728-5.024,5.824-7.328,8.32a2.206,2.206,0,0,1-1.728.928c-.768,0-.832-.352-.832-.64-.032-.8-.064-2.208-.064-3.936,0-1.12.032-2.368.064-3.648V5.632a1.717,1.717,0,0,0-1.856-1.664A1.657,1.657,0,0,0,95.832,5.7c.064,2.432.1,5.824.1,9.408,0,4-.032,8.224-.1,11.616Zm36.768-5.12c0-2.368-1.344-4.8-4.544-6.56-1.472-.8-3.68-1.824-4.992-2.528a3.286,3.286,0,0,1-2.016-2.816c0-1.44,1.248-2.72,3.3-2.72a4.668,4.668,0,0,1,3.68,1.472,2.031,2.031,0,0,0,1.5.768,1.866,1.866,0,0,0,1.792-1.856c0-1.5-2.528-3.616-6.944-3.616s-6.912,2.976-6.912,6.08a6.367,6.367,0,0,0,4.1,5.76c1.7.768,3.424,1.728,4.832,2.528a4.224,4.224,0,0,1,2.432,3.584c0,1.024-.768,3.424-4.288,3.424a5.5,5.5,0,0,1-4.672-2.144,1.723,1.723,0,0,0-1.408-.8,1.871,1.871,0,0,0-1.856,1.824c0,1.568,2.688,4.544,7.9,4.544C129.688,28.576,132.6,25.056,132.6,21.632Z" transform="translate(627 244)" fill="#2c2d48"/>
    <circle id="楕円形_53" data-name="楕円形 53" cx="20" cy="20" r="20" transform="translate(819 236)" fill="#ffe699"/>
    <path id="パス_63" data-name="パス 63" d="M57.86,16.248V3.1a1.154,1.154,0,0,0-2.3,0V6.864c0,4.392,0,10.992-.024,11.88-.024,1.008-.648,1.272-1.368,1.272a8.588,8.588,0,0,1-1.632-.264.984.984,0,0,0-.264-.024,1.111,1.111,0,0,0-1.032,1.2c0,1.032.84,1.368,2.784,1.368,2.928,0,3.888-1.68,3.888-3.12v-.048Zm-6.72.24a1.122,1.122,0,0,0,2.232,0V4.344a1.069,1.069,0,0,0-1.128-1.08,1.05,1.05,0,0,0-1.1,1.08Zm-8.184,4.848a1.092,1.092,0,1,0,2.184,0V14.112c1.488,0,2.064.048,2.064.912.024.7.024,2.3.024,2.3,0,.6-.264.744-.576.744a1.883,1.883,0,0,1-.336-.048A1.039,1.039,0,0,1,46.2,18c-.456,0-.7.48-.7.96,0,.768.408,1.056,1.536,1.056,1.68,0,2.232-1.056,2.232-2.448v-.144c-.024-.816-.024-2.064-.024-2.76,0-1.488-.7-2.208-2.28-2.256-.552-.024-1.176-.024-1.824-.024V10.7l3.96.024a.926.926,0,1,0,0-1.848H45.14V6.936h3.12a.928.928,0,1,0,0-1.848l-3.12.024V2.664a1.1,1.1,0,0,0-2.184,0V5.112l-1.2-.024a5.633,5.633,0,0,0,.384-1.3c0-.552-.576-.888-1.128-.888a.881.881,0,0,0-.912.624,9.175,9.175,0,0,1-1.68,3.48.846.846,0,0,0-.168.5,1.062,1.062,0,0,0,1.1.936c.648,0,1.056-.528,1.584-1.512h2.016V8.88H39.068a.926.926,0,1,0,0,1.848l3.888-.024v1.68c-2.64,0-3.936,0-4.008,2.232,0,.648-.024,1.512-.024,2.376s.024,1.7.024,2.352a1.045,1.045,0,0,0,2.088,0V19.32c-.024-.888-.024-2.112-.024-3.144V15.024c0-.84.36-.912,1.944-.912Zm38.4-3.984a.981.981,0,0,0,1.032-1.032,1.013,1.013,0,0,0-1.032-1.056H76.172V12.6h4.944a.981.981,0,0,0,1.032-1.032,1.013,1.013,0,0,0-1.032-1.056H76.172V7.92H82.22a.981.981,0,0,0,1.032-1.032A1.013,1.013,0,0,0,82.22,5.832H73.94a19.1,19.1,0,0,0,1.008-3A1.179,1.179,0,0,0,73.7,1.752a1.087,1.087,0,0,0-1.1.888,20.956,20.956,0,0,1-4.056,8.136,1.225,1.225,0,0,0-.312.768,1.071,1.071,0,0,0,1.08,1.056,1.435,1.435,0,0,0,1.08-.624A26.79,26.79,0,0,0,72.98,7.92h.888V21.5a1.152,1.152,0,1,0,2.3,0V17.352ZM65.4,21.672a1.076,1.076,0,0,0,1.152,1.08,1.094,1.094,0,0,0,1.152-1.1l.288-14.832a15.8,15.8,0,0,0,1.92-3.84A1.292,1.292,0,0,0,68.588,1.8a1.029,1.029,0,0,0-1.032.72,22.1,22.1,0,0,1-5.784,8.472,1.2,1.2,0,0,0-.432.864,1.118,1.118,0,0,0,1.128,1.08c.552,0,1.272-.36,3.168-2.76L65.4,21.648ZM101.2,7.464c-.264,3.768-1.464,8.832-6.816,12.048a.952.952,0,0,0-.48.84A1.13,1.13,0,0,0,95.036,21.5a1.571,1.571,0,0,0,.792-.24c5.64-3.264,7.128-9.312,7.536-13.752.672.168.72.528.72,3.84,0,8.568-2.352,8.688-3.36,8.688a6.764,6.764,0,0,1-1.44-.216,1.883,1.883,0,0,0-.336-.048.994.994,0,0,0-1.008,1.056,1.147,1.147,0,0,0,.864,1.152,8.56,8.56,0,0,0,1.968.264c4.872,0,5.616-5.424,5.616-10.728,0-1.248-.024-2.424-.072-3.408a2.469,2.469,0,0,0-2.64-2.592H102c-1.464,0-3.144,0-4.272.024A18.1,18.1,0,0,0,98.78,2.376a1.124,1.124,0,0,0-1.2-1.008.955.955,0,0,0-1.008.744A21.423,21.423,0,0,1,93.548,9.12a1.143,1.143,0,0,0-.24.648,1.01,1.01,0,0,0,1.1.912c.768,0,1.128-.288,2.5-3.192l1.008-.024a11.5,11.5,0,0,1-4.536,7.752,1.242,1.242,0,0,0-.576.984,1.069,1.069,0,0,0,1.1,1.008,1.655,1.655,0,0,0,.984-.384c2.976-2.3,4.488-5.832,5.184-9.36ZM89.78,21.7a1.159,1.159,0,0,0,2.3,0l.024-7.392c.768-.36,1.488-.672,2.112-1.008a1.1,1.1,0,0,0,.672-.984A.94.94,0,0,0,94,11.328a.914.914,0,0,0-.408.1c-.456.24-.96.48-1.488.7L92.132,8.5h.984A1.013,1.013,0,0,0,94.148,7.44a1.019,1.019,0,0,0-1.056-1.056h-.96L92.156,2.4a1.154,1.154,0,0,0-2.3,0V6.384h-.96c0-.072.192-1.536.192-1.968A.965.965,0,0,0,88,3.528c-.552,0-1.08.288-1.08.888a17.9,17.9,0,0,1-1.248,6.624,1.282,1.282,0,0,0-.12.48.906.906,0,0,0,1.008.816c.96,0,1.392-.456,1.992-3.792L89.828,8.5v4.512c-1.008.36-2.088.7-3.264,1.056a1.051,1.051,0,0,0-.792,1.032A1.1,1.1,0,0,0,86.9,16.224c.36,0,.72-.12,2.9-.96Z" transform="translate(629 288)" fill="#2c2d48"/>
  </g>
</svg>
